ISO-10303-21;
HEADER;
/* Generated by software containing ST-Developer
 * from STEP Tools, Inc. (www.steptools.com) 
 */

FILE_DESCRIPTION(
/* description */ (''),
/* implementation_level */ '2;1');

FILE_NAME(
/* name */ 'LED mount.step',
/* time_stamp */ '2026-09-03T18:04:27+02:00',
/* author */ (''),
/* organization */ (''),
/* preprocessor_version */ 'ST-DEVELOPER v20.1',
/* originating_system */ 'Autodesk Translation Framework v15.8.0.0',
/* authorisation */ '');

FILE_SCHEMA (('AUTOMOTIVE_DESIGN { 1 0 10303 214 3 1 1 }'));
ENDSEC;

DATA;
#10=MECHANICAL_DESIGN_GEOMETRIC_PRESENTATION_REPRESENTATION('',(#13),#871);
#11=SHAPE_REPRESENTATION_RELATIONSHIP('SRR','None',#878,#12);
#12=ADVANCED_BREP_SHAPE_REPRESENTATION('',(#14),#870);
#13=STYLED_ITEM('',(#887),#14);
#14=MANIFOLD_SOLID_BREP('Body1',#547);
#15=FACE_BOUND('',#54,.T.);
#16=FACE_BOUND('',#64,.T.);
#17=FACE_BOUND('',#66,.T.);
#18=FACE_BOUND('',#67,.T.);
#19=FACE_BOUND('',#81,.T.);
#20=FACE_BOUND('',#82,.T.);
#21=FACE_OUTER_BOUND('',#49,.T.);
#22=FACE_OUTER_BOUND('',#50,.T.);
#23=FACE_OUTER_BOUND('',#51,.T.);
#24=FACE_OUTER_BOUND('',#52,.T.);
#25=FACE_OUTER_BOUND('',#53,.T.);
#26=FACE_OUTER_BOUND('',#55,.T.);
#27=FACE_OUTER_BOUND('',#56,.T.);
#28=FACE_OUTER_BOUND('',#57,.T.);
#29=FACE_OUTER_BOUND('',#58,.T.);
#30=FACE_OUTER_BOUND('',#59,.T.);
#31=FACE_OUTER_BOUND('',#60,.T.);
#32=FACE_OUTER_BOUND('',#61,.T.);
#33=FACE_OUTER_BOUND('',#62,.T.);
#34=FACE_OUTER_BOUND('',#63,.T.);
#35=FACE_OUTER_BOUND('',#65,.T.);
#36=FACE_OUTER_BOUND('',#68,.T.);
#37=FACE_OUTER_BOUND('',#69,.T.);
#38=FACE_OUTER_BOUND('',#70,.T.);
#39=FACE_OUTER_BOUND('',#71,.T.);
#40=FACE_OUTER_BOUND('',#72,.T.);
#41=FACE_OUTER_BOUND('',#73,.T.);
#42=FACE_OUTER_BOUND('',#74,.T.);
#43=FACE_OUTER_BOUND('',#75,.T.);
#44=FACE_OUTER_BOUND('',#76,.T.);
#45=FACE_OUTER_BOUND('',#77,.T.);
#46=FACE_OUTER_BOUND('',#78,.T.);
#47=FACE_OUTER_BOUND('',#79,.T.);
#48=FACE_OUTER_BOUND('',#80,.T.);
#49=EDGE_LOOP('',(#347,#348,#349,#350));
#50=EDGE_LOOP('',(#351,#352,#353,#354));
#51=EDGE_LOOP('',(#355,#356,#357,#358));
#52=EDGE_LOOP('',(#359,#360,#361,#362));
#53=EDGE_LOOP('',(#363,#364,#365,#366));
#54=EDGE_LOOP('',(#367,#368,#369,#370));
#55=EDGE_LOOP('',(#371,#372,#373,#374));
#56=EDGE_LOOP('',(#375,#376,#377,#378));
#57=EDGE_LOOP('',(#379,#380,#381,#382));
#58=EDGE_LOOP('',(#383,#384,#385,#386));
#59=EDGE_LOOP('',(#387,#388,#389,#390));
#60=EDGE_LOOP('',(#391,#392,#393,#394));
#61=EDGE_LOOP('',(#395,#396,#397,#398));
#62=EDGE_LOOP('',(#399,#400,#401,#402));
#63=EDGE_LOOP('',(#403,#404,#405,#406));
#64=EDGE_LOOP('',(#407,#408,#409,#410));
#65=EDGE_LOOP('',(#411,#412,#413,#414,#415,#416,#417,#418));
#66=EDGE_LOOP('',(#419,#420,#421,#422));
#67=EDGE_LOOP('',(#423,#424,#425,#426));
#68=EDGE_LOOP('',(#427,#428,#429,#430));
#69=EDGE_LOOP('',(#431,#432,#433,#434));
#70=EDGE_LOOP('',(#435,#436,#437,#438));
#71=EDGE_LOOP('',(#439,#440,#441,#442));
#72=EDGE_LOOP('',(#443,#444,#445,#446));
#73=EDGE_LOOP('',(#447,#448,#449,#450));
#74=EDGE_LOOP('',(#451,#452,#453,#454));
#75=EDGE_LOOP('',(#455,#456,#457,#458));
#76=EDGE_LOOP('',(#459,#460,#461,#462));
#77=EDGE_LOOP('',(#463,#464,#465,#466));
#78=EDGE_LOOP('',(#467,#468,#469,#470));
#79=EDGE_LOOP('',(#471,#472,#473,#474));
#80=EDGE_LOOP('',(#475,#476,#477,#478,#479,#480,#481,#482));
#81=EDGE_LOOP('',(#483,#484,#485,#486));
#82=EDGE_LOOP('',(#487,#488,#489,#490));
#83=LINE('',#723,#155);
#84=LINE('',#725,#156);
#85=LINE('',#727,#157);
#86=LINE('',#728,#158);
#87=LINE('',#731,#159);
#88=LINE('',#733,#160);
#89=LINE('',#734,#161);
#90=LINE('',#737,#162);
#91=LINE('',#739,#163);
#92=LINE('',#740,#164);
#93=LINE('',#742,#165);
#94=LINE('',#743,#166);
#95=LINE('',#747,#167);
#96=LINE('',#749,#168);
#97=LINE('',#751,#169);
#98=LINE('',#752,#170);
#99=LINE('',#755,#171);
#100=LINE('',#757,#172);
#101=LINE('',#758,#173);
#102=LINE('',#761,#174);
#103=LINE('',#762,#175);
#104=LINE('',#765,#176);
#105=LINE('',#766,#177);
#106=LINE('',#768,#178);
#107=LINE('',#772,#179);
#108=LINE('',#774,#180);
#109=LINE('',#776,#181);
#110=LINE('',#777,#182);
#111=LINE('',#780,#183);
#112=LINE('',#782,#184);
#113=LINE('',#783,#185);
#114=LINE('',#786,#186);
#115=LINE('',#788,#187);
#116=LINE('',#789,#188);
#117=LINE('',#791,#189);
#118=LINE('',#792,#190);
#119=LINE('',#796,#191);
#120=LINE('',#798,#192);
#121=LINE('',#800,#193);
#122=LINE('',#801,#194);
#123=LINE('',#805,#195);
#124=LINE('',#807,#196);
#125=LINE('',#809,#197);
#126=LINE('',#811,#198);
#127=LINE('',#813,#199);
#128=LINE('',#815,#200);
#129=LINE('',#817,#201);
#130=LINE('',#818,#202);
#131=LINE('',#822,#203);
#132=LINE('',#823,#204);
#133=LINE('',#824,#205);
#134=LINE('',#827,#206);
#135=LINE('',#828,#207);
#136=LINE('',#831,#208);
#137=LINE('',#832,#209);
#138=LINE('',#834,#210);
#139=LINE('',#838,#211);
#140=LINE('',#839,#212);
#141=LINE('',#840,#213);
#142=LINE('',#843,#214);
#143=LINE('',#844,#215);
#144=LINE('',#847,#216);
#145=LINE('',#848,#217);
#146=LINE('',#851,#218);
#147=LINE('',#852,#219);
#148=LINE('',#855,#220);
#149=LINE('',#856,#221);
#150=LINE('',#859,#222);
#151=LINE('',#860,#223);
#152=LINE('',#863,#224);
#153=LINE('',#864,#225);
#154=LINE('',#866,#226);
#155=VECTOR('',#593,10.);
#156=VECTOR('',#594,10.);
#157=VECTOR('',#595,10.);
#158=VECTOR('',#596,10.);
#159=VECTOR('',#599,10.);
#160=VECTOR('',#600,10.);
#161=VECTOR('',#601,10.);
#162=VECTOR('',#604,10.);
#163=VECTOR('',#605,10.);
#164=VECTOR('',#606,10.);
#165=VECTOR('',#609,10.);
#166=VECTOR('',#610,10.);
#167=VECTOR('',#613,10.);
#168=VECTOR('',#614,10.);
#169=VECTOR('',#615,10.);
#170=VECTOR('',#616,10.);
#171=VECTOR('',#619,10.);
#172=VECTOR('',#620,10.);
#173=VECTOR('',#621,10.);
#174=VECTOR('',#624,10.);
#175=VECTOR('',#625,10.);
#176=VECTOR('',#628,10.);
#177=VECTOR('',#629,10.);
#178=VECTOR('',#632,10.);
#179=VECTOR('',#635,10.);
#180=VECTOR('',#636,10.);
#181=VECTOR('',#637,10.);
#182=VECTOR('',#638,10.);
#183=VECTOR('',#641,10.);
#184=VECTOR('',#642,10.);
#185=VECTOR('',#643,10.);
#186=VECTOR('',#646,10.);
#187=VECTOR('',#647,10.);
#188=VECTOR('',#648,10.);
#189=VECTOR('',#651,10.);
#190=VECTOR('',#652,10.);
#191=VECTOR('',#655,10.);
#192=VECTOR('',#656,10.);
#193=VECTOR('',#657,10.);
#194=VECTOR('',#658,10.);
#195=VECTOR('',#661,10.);
#196=VECTOR('',#662,10.);
#197=VECTOR('',#663,10.);
#198=VECTOR('',#664,10.);
#199=VECTOR('',#665,10.);
#200=VECTOR('',#666,10.);
#201=VECTOR('',#667,10.);
#202=VECTOR('',#668,10.);
#203=VECTOR('',#671,10.);
#204=VECTOR('',#672,10.);
#205=VECTOR('',#673,10.);
#206=VECTOR('',#676,10.);
#207=VECTOR('',#677,10.);
#208=VECTOR('',#680,10.);
#209=VECTOR('',#681,10.);
#210=VECTOR('',#684,10.);
#211=VECTOR('',#687,10.);
#212=VECTOR('',#688,10.);
#213=VECTOR('',#689,10.);
#214=VECTOR('',#692,10.);
#215=VECTOR('',#693,10.);
#216=VECTOR('',#696,10.);
#217=VECTOR('',#697,10.);
#218=VECTOR('',#700,10.);
#219=VECTOR('',#701,10.);
#220=VECTOR('',#704,10.);
#221=VECTOR('',#705,10.);
#222=VECTOR('',#708,10.);
#223=VECTOR('',#709,10.);
#224=VECTOR('',#712,10.);
#225=VECTOR('',#713,10.);
#226=VECTOR('',#716,10.);
#227=VERTEX_POINT('',#721);
#228=VERTEX_POINT('',#722);
#229=VERTEX_POINT('',#724);
#230=VERTEX_POINT('',#726);
#231=VERTEX_POINT('',#730);
#232=VERTEX_POINT('',#732);
#233=VERTEX_POINT('',#736);
#234=VERTEX_POINT('',#738);
#235=VERTEX_POINT('',#745);
#236=VERTEX_POINT('',#746);
#237=VERTEX_POINT('',#748);
#238=VERTEX_POINT('',#750);
#239=VERTEX_POINT('',#754);
#240=VERTEX_POINT('',#756);
#241=VERTEX_POINT('',#760);
#242=VERTEX_POINT('',#764);
#243=VERTEX_POINT('',#770);
#244=VERTEX_POINT('',#771);
#245=VERTEX_POINT('',#773);
#246=VERTEX_POINT('',#775);
#247=VERTEX_POINT('',#779);
#248=VERTEX_POINT('',#781);
#249=VERTEX_POINT('',#785);
#250=VERTEX_POINT('',#787);
#251=VERTEX_POINT('',#794);
#252=VERTEX_POINT('',#795);
#253=VERTEX_POINT('',#797);
#254=VERTEX_POINT('',#799);
#255=VERTEX_POINT('',#803);
#256=VERTEX_POINT('',#804);
#257=VERTEX_POINT('',#806);
#258=VERTEX_POINT('',#808);
#259=VERTEX_POINT('',#810);
#260=VERTEX_POINT('',#812);
#261=VERTEX_POINT('',#814);
#262=VERTEX_POINT('',#816);
#263=VERTEX_POINT('',#820);
#264=VERTEX_POINT('',#821);
#265=VERTEX_POINT('',#826);
#266=VERTEX_POINT('',#830);
#267=VERTEX_POINT('',#836);
#268=VERTEX_POINT('',#837);
#269=VERTEX_POINT('',#842);
#270=VERTEX_POINT('',#846);
#271=VERTEX_POINT('',#850);
#272=VERTEX_POINT('',#854);
#273=VERTEX_POINT('',#858);
#274=VERTEX_POINT('',#862);
#275=EDGE_CURVE('',#227,#228,#83,.T.);
#276=EDGE_CURVE('',#228,#229,#84,.T.);
#277=EDGE_CURVE('',#229,#230,#85,.T.);
#278=EDGE_CURVE('',#227,#230,#86,.T.);
#279=EDGE_CURVE('',#231,#227,#87,.T.);
#280=EDGE_CURVE('',#230,#232,#88,.T.);
#281=EDGE_CURVE('',#231,#232,#89,.T.);
#282=EDGE_CURVE('',#228,#233,#90,.T.);
#283=EDGE_CURVE('',#233,#234,#91,.T.);
#284=EDGE_CURVE('',#234,#229,#92,.T.);
#285=EDGE_CURVE('',#233,#231,#93,.T.);
#286=EDGE_CURVE('',#232,#234,#94,.T.);
#287=EDGE_CURVE('',#235,#236,#95,.T.);
#288=EDGE_CURVE('',#237,#235,#96,.T.);
#289=EDGE_CURVE('',#238,#237,#97,.T.);
#290=EDGE_CURVE('',#236,#238,#98,.T.);
#291=EDGE_CURVE('',#235,#239,#99,.T.);
#292=EDGE_CURVE('',#240,#239,#100,.T.);
#293=EDGE_CURVE('',#237,#240,#101,.T.);
#294=EDGE_CURVE('',#236,#241,#102,.T.);
#295=EDGE_CURVE('',#239,#241,#103,.T.);
#296=EDGE_CURVE('',#242,#240,#104,.T.);
#297=EDGE_CURVE('',#238,#242,#105,.T.);
#298=EDGE_CURVE('',#241,#242,#106,.T.);
#299=EDGE_CURVE('',#243,#244,#107,.T.);
#300=EDGE_CURVE('',#245,#243,#108,.T.);
#301=EDGE_CURVE('',#246,#245,#109,.T.);
#302=EDGE_CURVE('',#246,#244,#110,.T.);
#303=EDGE_CURVE('',#244,#247,#111,.T.);
#304=EDGE_CURVE('',#248,#246,#112,.T.);
#305=EDGE_CURVE('',#248,#247,#113,.T.);
#306=EDGE_CURVE('',#247,#249,#114,.T.);
#307=EDGE_CURVE('',#250,#248,#115,.T.);
#308=EDGE_CURVE('',#250,#249,#116,.T.);
#309=EDGE_CURVE('',#249,#243,#117,.T.);
#310=EDGE_CURVE('',#245,#250,#118,.T.);
#311=EDGE_CURVE('',#251,#252,#119,.T.);
#312=EDGE_CURVE('',#253,#251,#120,.T.);
#313=EDGE_CURVE('',#254,#253,#121,.T.);
#314=EDGE_CURVE('',#252,#254,#122,.T.);
#315=EDGE_CURVE('',#255,#256,#123,.T.);
#316=EDGE_CURVE('',#256,#257,#124,.T.);
#317=EDGE_CURVE('',#257,#258,#125,.T.);
#318=EDGE_CURVE('',#258,#259,#126,.T.);
#319=EDGE_CURVE('',#259,#260,#127,.T.);
#320=EDGE_CURVE('',#260,#261,#128,.T.);
#321=EDGE_CURVE('',#261,#262,#129,.T.);
#322=EDGE_CURVE('',#262,#255,#130,.T.);
#323=EDGE_CURVE('',#263,#264,#131,.T.);
#324=EDGE_CURVE('',#263,#253,#132,.T.);
#325=EDGE_CURVE('',#264,#251,#133,.T.);
#326=EDGE_CURVE('',#265,#263,#134,.T.);
#327=EDGE_CURVE('',#265,#254,#135,.T.);
#328=EDGE_CURVE('',#266,#265,#136,.T.);
#329=EDGE_CURVE('',#266,#252,#137,.T.);
#330=EDGE_CURVE('',#264,#266,#138,.T.);
#331=EDGE_CURVE('',#267,#268,#139,.T.);
#332=EDGE_CURVE('',#267,#255,#140,.T.);
#333=EDGE_CURVE('',#268,#262,#141,.T.);
#334=EDGE_CURVE('',#269,#268,#142,.T.);
#335=EDGE_CURVE('',#269,#261,#143,.T.);
#336=EDGE_CURVE('',#270,#269,#144,.T.);
#337=EDGE_CURVE('',#270,#260,#145,.T.);
#338=EDGE_CURVE('',#271,#270,#146,.T.);
#339=EDGE_CURVE('',#271,#259,#147,.T.);
#340=EDGE_CURVE('',#271,#272,#148,.T.);
#341=EDGE_CURVE('',#272,#258,#149,.T.);
#342=EDGE_CURVE('',#273,#272,#150,.T.);
#343=EDGE_CURVE('',#273,#257,#151,.T.);
#344=EDGE_CURVE('',#274,#273,#152,.T.);
#345=EDGE_CURVE('',#274,#256,#153,.T.);
#346=EDGE_CURVE('',#267,#274,#154,.T.);
#347=ORIENTED_EDGE('',*,*,#275,.T.);
#348=ORIENTED_EDGE('',*,*,#276,.T.);
#349=ORIENTED_EDGE('',*,*,#277,.T.);
#350=ORIENTED_EDGE('',*,*,#278,.F.);
#351=ORIENTED_EDGE('',*,*,#279,.T.);
#352=ORIENTED_EDGE('',*,*,#278,.T.);
#353=ORIENTED_EDGE('',*,*,#280,.T.);
#354=ORIENTED_EDGE('',*,*,#281,.F.);
#355=ORIENTED_EDGE('',*,*,#282,.T.);
#356=ORIENTED_EDGE('',*,*,#283,.T.);
#357=ORIENTED_EDGE('',*,*,#284,.T.);
#358=ORIENTED_EDGE('',*,*,#276,.F.);
#359=ORIENTED_EDGE('',*,*,#285,.T.);
#360=ORIENTED_EDGE('',*,*,#281,.T.);
#361=ORIENTED_EDGE('',*,*,#286,.T.);
#362=ORIENTED_EDGE('',*,*,#283,.F.);
#363=ORIENTED_EDGE('',*,*,#280,.F.);
#364=ORIENTED_EDGE('',*,*,#277,.F.);
#365=ORIENTED_EDGE('',*,*,#284,.F.);
#366=ORIENTED_EDGE('',*,*,#286,.F.);
#367=ORIENTED_EDGE('',*,*,#287,.F.);
#368=ORIENTED_EDGE('',*,*,#288,.F.);
#369=ORIENTED_EDGE('',*,*,#289,.F.);
#370=ORIENTED_EDGE('',*,*,#290,.F.);
#371=ORIENTED_EDGE('',*,*,#288,.T.);
#372=ORIENTED_EDGE('',*,*,#291,.T.);
#373=ORIENTED_EDGE('',*,*,#292,.F.);
#374=ORIENTED_EDGE('',*,*,#293,.F.);
#375=ORIENTED_EDGE('',*,*,#287,.T.);
#376=ORIENTED_EDGE('',*,*,#294,.T.);
#377=ORIENTED_EDGE('',*,*,#295,.F.);
#378=ORIENTED_EDGE('',*,*,#291,.F.);
#379=ORIENTED_EDGE('',*,*,#289,.T.);
#380=ORIENTED_EDGE('',*,*,#293,.T.);
#381=ORIENTED_EDGE('',*,*,#296,.F.);
#382=ORIENTED_EDGE('',*,*,#297,.F.);
#383=ORIENTED_EDGE('',*,*,#290,.T.);
#384=ORIENTED_EDGE('',*,*,#297,.T.);
#385=ORIENTED_EDGE('',*,*,#298,.F.);
#386=ORIENTED_EDGE('',*,*,#294,.F.);
#387=ORIENTED_EDGE('',*,*,#299,.F.);
#388=ORIENTED_EDGE('',*,*,#300,.F.);
#389=ORIENTED_EDGE('',*,*,#301,.F.);
#390=ORIENTED_EDGE('',*,*,#302,.T.);
#391=ORIENTED_EDGE('',*,*,#303,.F.);
#392=ORIENTED_EDGE('',*,*,#302,.F.);
#393=ORIENTED_EDGE('',*,*,#304,.F.);
#394=ORIENTED_EDGE('',*,*,#305,.T.);
#395=ORIENTED_EDGE('',*,*,#306,.F.);
#396=ORIENTED_EDGE('',*,*,#305,.F.);
#397=ORIENTED_EDGE('',*,*,#307,.F.);
#398=ORIENTED_EDGE('',*,*,#308,.T.);
#399=ORIENTED_EDGE('',*,*,#309,.F.);
#400=ORIENTED_EDGE('',*,*,#308,.F.);
#401=ORIENTED_EDGE('',*,*,#310,.F.);
#402=ORIENTED_EDGE('',*,*,#300,.T.);
#403=ORIENTED_EDGE('',*,*,#311,.F.);
#404=ORIENTED_EDGE('',*,*,#312,.F.);
#405=ORIENTED_EDGE('',*,*,#313,.F.);
#406=ORIENTED_EDGE('',*,*,#314,.F.);
#407=ORIENTED_EDGE('',*,*,#285,.F.);
#408=ORIENTED_EDGE('',*,*,#282,.F.);
#409=ORIENTED_EDGE('',*,*,#275,.F.);
#410=ORIENTED_EDGE('',*,*,#279,.F.);
#411=ORIENTED_EDGE('',*,*,#315,.T.);
#412=ORIENTED_EDGE('',*,*,#316,.T.);
#413=ORIENTED_EDGE('',*,*,#317,.T.);
#414=ORIENTED_EDGE('',*,*,#318,.T.);
#415=ORIENTED_EDGE('',*,*,#319,.T.);
#416=ORIENTED_EDGE('',*,*,#320,.T.);
#417=ORIENTED_EDGE('',*,*,#321,.T.);
#418=ORIENTED_EDGE('',*,*,#322,.T.);
#419=ORIENTED_EDGE('',*,*,#295,.T.);
#420=ORIENTED_EDGE('',*,*,#298,.T.);
#421=ORIENTED_EDGE('',*,*,#296,.T.);
#422=ORIENTED_EDGE('',*,*,#292,.T.);
#423=ORIENTED_EDGE('',*,*,#306,.T.);
#424=ORIENTED_EDGE('',*,*,#309,.T.);
#425=ORIENTED_EDGE('',*,*,#299,.T.);
#426=ORIENTED_EDGE('',*,*,#303,.T.);
#427=ORIENTED_EDGE('',*,*,#323,.F.);
#428=ORIENTED_EDGE('',*,*,#324,.T.);
#429=ORIENTED_EDGE('',*,*,#312,.T.);
#430=ORIENTED_EDGE('',*,*,#325,.F.);
#431=ORIENTED_EDGE('',*,*,#326,.F.);
#432=ORIENTED_EDGE('',*,*,#327,.T.);
#433=ORIENTED_EDGE('',*,*,#313,.T.);
#434=ORIENTED_EDGE('',*,*,#324,.F.);
#435=ORIENTED_EDGE('',*,*,#328,.F.);
#436=ORIENTED_EDGE('',*,*,#329,.T.);
#437=ORIENTED_EDGE('',*,*,#314,.T.);
#438=ORIENTED_EDGE('',*,*,#327,.F.);
#439=ORIENTED_EDGE('',*,*,#330,.F.);
#440=ORIENTED_EDGE('',*,*,#325,.T.);
#441=ORIENTED_EDGE('',*,*,#311,.T.);
#442=ORIENTED_EDGE('',*,*,#329,.F.);
#443=ORIENTED_EDGE('',*,*,#331,.F.);
#444=ORIENTED_EDGE('',*,*,#332,.T.);
#445=ORIENTED_EDGE('',*,*,#322,.F.);
#446=ORIENTED_EDGE('',*,*,#333,.F.);
#447=ORIENTED_EDGE('',*,*,#334,.T.);
#448=ORIENTED_EDGE('',*,*,#333,.T.);
#449=ORIENTED_EDGE('',*,*,#321,.F.);
#450=ORIENTED_EDGE('',*,*,#335,.F.);
#451=ORIENTED_EDGE('',*,*,#336,.T.);
#452=ORIENTED_EDGE('',*,*,#335,.T.);
#453=ORIENTED_EDGE('',*,*,#320,.F.);
#454=ORIENTED_EDGE('',*,*,#337,.F.);
#455=ORIENTED_EDGE('',*,*,#338,.T.);
#456=ORIENTED_EDGE('',*,*,#337,.T.);
#457=ORIENTED_EDGE('',*,*,#319,.F.);
#458=ORIENTED_EDGE('',*,*,#339,.F.);
#459=ORIENTED_EDGE('',*,*,#340,.F.);
#460=ORIENTED_EDGE('',*,*,#339,.T.);
#461=ORIENTED_EDGE('',*,*,#318,.F.);
#462=ORIENTED_EDGE('',*,*,#341,.F.);
#463=ORIENTED_EDGE('',*,*,#342,.T.);
#464=ORIENTED_EDGE('',*,*,#341,.T.);
#465=ORIENTED_EDGE('',*,*,#317,.F.);
#466=ORIENTED_EDGE('',*,*,#343,.F.);
#467=ORIENTED_EDGE('',*,*,#344,.T.);
#468=ORIENTED_EDGE('',*,*,#343,.T.);
#469=ORIENTED_EDGE('',*,*,#316,.F.);
#470=ORIENTED_EDGE('',*,*,#345,.F.);
#471=ORIENTED_EDGE('',*,*,#346,.T.);
#472=ORIENTED_EDGE('',*,*,#345,.T.);
#473=ORIENTED_EDGE('',*,*,#315,.F.);
#474=ORIENTED_EDGE('',*,*,#332,.F.);
#475=ORIENTED_EDGE('',*,*,#346,.F.);
#476=ORIENTED_EDGE('',*,*,#331,.T.);
#477=ORIENTED_EDGE('',*,*,#334,.F.);
#478=ORIENTED_EDGE('',*,*,#336,.F.);
#479=ORIENTED_EDGE('',*,*,#338,.F.);
#480=ORIENTED_EDGE('',*,*,#340,.T.);
#481=ORIENTED_EDGE('',*,*,#342,.F.);
#482=ORIENTED_EDGE('',*,*,#344,.F.);
#483=ORIENTED_EDGE('',*,*,#307,.T.);
#484=ORIENTED_EDGE('',*,*,#304,.T.);
#485=ORIENTED_EDGE('',*,*,#301,.T.);
#486=ORIENTED_EDGE('',*,*,#310,.T.);
#487=ORIENTED_EDGE('',*,*,#323,.T.);
#488=ORIENTED_EDGE('',*,*,#330,.T.);
#489=ORIENTED_EDGE('',*,*,#328,.T.);
#490=ORIENTED_EDGE('',*,*,#326,.T.);
#491=PLANE('',#561);
#492=PLANE('',#562);
#493=PLANE('',#563);
#494=PLANE('',#564);
#495=PLANE('',#565);
#496=PLANE('',#566);
#497=PLANE('',#567);
#498=PLANE('',#568);
#499=PLANE('',#569);
#500=PLANE('',#570);
#501=PLANE('',#571);
#502=PLANE('',#572);
#503=PLANE('',#573);
#504=PLANE('',#574);
#505=PLANE('',#575);
#506=PLANE('',#576);
#507=PLANE('',#577);
#508=PLANE('',#578);
#509=PLANE('',#579);
#510=PLANE('',#580);
#511=PLANE('',#581);
#512=PLANE('',#582);
#513=PLANE('',#583);
#514=PLANE('',#584);
#515=PLANE('',#585);
#516=PLANE('',#586);
#517=PLANE('',#587);
#518=PLANE('',#588);
#519=ADVANCED_FACE('',(#21),#491,.F.);
#520=ADVANCED_FACE('',(#22),#492,.F.);
#521=ADVANCED_FACE('',(#23),#493,.F.);
#522=ADVANCED_FACE('',(#24),#494,.F.);
#523=ADVANCED_FACE('',(#25,#15),#495,.F.);
#524=ADVANCED_FACE('',(#26),#496,.T.);
#525=ADVANCED_FACE('',(#27),#497,.T.);
#526=ADVANCED_FACE('',(#28),#498,.T.);
#527=ADVANCED_FACE('',(#29),#499,.T.);
#528=ADVANCED_FACE('',(#30),#500,.F.);
#529=ADVANCED_FACE('',(#31),#501,.F.);
#530=ADVANCED_FACE('',(#32),#502,.F.);
#531=ADVANCED_FACE('',(#33),#503,.F.);
#532=ADVANCED_FACE('',(#34,#16),#504,.F.);
#533=ADVANCED_FACE('',(#35,#17,#18),#505,.T.);
#534=ADVANCED_FACE('',(#36),#506,.F.);
#535=ADVANCED_FACE('',(#37),#507,.F.);
#536=ADVANCED_FACE('',(#38),#508,.F.);
#537=ADVANCED_FACE('',(#39),#509,.F.);
#538=ADVANCED_FACE('',(#40),#510,.T.);
#539=ADVANCED_FACE('',(#41),#511,.T.);
#540=ADVANCED_FACE('',(#42),#512,.T.);
#541=ADVANCED_FACE('',(#43),#513,.T.);
#542=ADVANCED_FACE('',(#44),#514,.T.);
#543=ADVANCED_FACE('',(#45),#515,.T.);
#544=ADVANCED_FACE('',(#46),#516,.T.);
#545=ADVANCED_FACE('',(#47),#517,.T.);
#546=ADVANCED_FACE('',(#48,#19,#20),#518,.F.);
#547=CLOSED_SHELL('',(#519,#520,#521,#522,#523,#524,#525,#526,#527,#528,
#529,#530,#531,#532,#533,#534,#535,#536,#537,#538,#539,#540,#541,#542,#543,
#544,#545,#546));
#548=DERIVED_UNIT_ELEMENT(#550,1.);
#549=DERIVED_UNIT_ELEMENT(#873,-3.);
#550=(
MASS_UNIT()
NAMED_UNIT(*)
SI_UNIT(.KILO.,.GRAM.)
);
#551=DERIVED_UNIT((#548,#549));
#552=MEASURE_REPRESENTATION_ITEM('density measure',
POSITIVE_RATIO_MEASURE(7850.),#551);
#553=PROPERTY_DEFINITION_REPRESENTATION(#558,#555);
#554=PROPERTY_DEFINITION_REPRESENTATION(#559,#556);
#555=REPRESENTATION('material name',(#557),#870);
#556=REPRESENTATION('density',(#552),#870);
#557=DESCRIPTIVE_REPRESENTATION_ITEM('Steel','Steel');
#558=PROPERTY_DEFINITION('material property','material name',#880);
#559=PROPERTY_DEFINITION('material property','density of part',#880);
#560=AXIS2_PLACEMENT_3D('',#719,#589,#590);
#561=AXIS2_PLACEMENT_3D('',#720,#591,#592);
#562=AXIS2_PLACEMENT_3D('',#729,#597,#598);
#563=AXIS2_PLACEMENT_3D('',#735,#602,#603);
#564=AXIS2_PLACEMENT_3D('',#741,#607,#608);
#565=AXIS2_PLACEMENT_3D('',#744,#611,#612);
#566=AXIS2_PLACEMENT_3D('',#753,#617,#618);
#567=AXIS2_PLACEMENT_3D('',#759,#622,#623);
#568=AXIS2_PLACEMENT_3D('',#763,#626,#627);
#569=AXIS2_PLACEMENT_3D('',#767,#630,#631);
#570=AXIS2_PLACEMENT_3D('',#769,#633,#634);
#571=AXIS2_PLACEMENT_3D('',#778,#639,#640);
#572=AXIS2_PLACEMENT_3D('',#784,#644,#645);
#573=AXIS2_PLACEMENT_3D('',#790,#649,#650);
#574=AXIS2_PLACEMENT_3D('',#793,#653,#654);
#575=AXIS2_PLACEMENT_3D('',#802,#659,#660);
#576=AXIS2_PLACEMENT_3D('',#819,#669,#670);
#577=AXIS2_PLACEMENT_3D('',#825,#674,#675);
#578=AXIS2_PLACEMENT_3D('',#829,#678,#679);
#579=AXIS2_PLACEMENT_3D('',#833,#682,#683);
#580=AXIS2_PLACEMENT_3D('',#835,#685,#686);
#581=AXIS2_PLACEMENT_3D('',#841,#690,#691);
#582=AXIS2_PLACEMENT_3D('',#845,#694,#695);
#583=AXIS2_PLACEMENT_3D('',#849,#698,#699);
#584=AXIS2_PLACEMENT_3D('',#853,#702,#703);
#585=AXIS2_PLACEMENT_3D('',#857,#706,#707);
#586=AXIS2_PLACEMENT_3D('',#861,#710,#711);
#587=AXIS2_PLACEMENT_3D('',#865,#714,#715);
#588=AXIS2_PLACEMENT_3D('',#867,#717,#718);
#589=DIRECTION('axis',(0.,0.,1.));
#590=DIRECTION('refdir',(1.,0.,0.));
#591=DIRECTION('center_axis',(0.,0.,-1.));
#592=DIRECTION('ref_axis',(-1.,0.,0.));
#593=DIRECTION('',(1.,0.,0.));
#594=DIRECTION('',(0.,1.,0.));
#595=DIRECTION('',(-1.,0.,0.));
#596=DIRECTION('',(0.,1.,0.));
#597=DIRECTION('center_axis',(-1.,0.,0.));
#598=DIRECTION('ref_axis',(0.,0.,1.));
#599=DIRECTION('',(0.,0.,-1.));
#600=DIRECTION('',(0.,0.,1.));
#601=DIRECTION('',(0.,1.,0.));
#602=DIRECTION('center_axis',(1.,0.,0.));
#603=DIRECTION('ref_axis',(0.,0.,-1.));
#604=DIRECTION('',(0.,0.,1.));
#605=DIRECTION('',(0.,1.,0.));
#606=DIRECTION('',(0.,0.,-1.));
#607=DIRECTION('center_axis',(0.,0.,1.));
#608=DIRECTION('ref_axis',(1.,0.,0.));
#609=DIRECTION('',(-1.,0.,0.));
#610=DIRECTION('',(1.,0.,0.));
#611=DIRECTION('center_axis',(0.,1.,0.));
#612=DIRECTION('ref_axis',(0.,0.,1.));
#613=DIRECTION('',(1.,0.,0.));
#614=DIRECTION('',(0.,0.,-1.));
#615=DIRECTION('',(-1.,0.,0.));
#616=DIRECTION('',(0.,0.,1.));
#617=DIRECTION('center_axis',(1.,0.,0.));
#618=DIRECTION('ref_axis',(0.,0.,-1.));
#619=DIRECTION('',(0.,1.,0.));
#620=DIRECTION('',(0.,0.,-1.));
#621=DIRECTION('',(0.,1.,0.));
#622=DIRECTION('center_axis',(0.,0.,1.));
#623=DIRECTION('ref_axis',(1.,0.,0.));
#624=DIRECTION('',(0.,1.,0.));
#625=DIRECTION('',(1.,0.,0.));
#626=DIRECTION('center_axis',(0.,0.,-1.));
#627=DIRECTION('ref_axis',(-1.,0.,0.));
#628=DIRECTION('',(-1.,0.,0.));
#629=DIRECTION('',(0.,1.,0.));
#630=DIRECTION('center_axis',(-1.,0.,0.));
#631=DIRECTION('ref_axis',(0.,0.,1.));
#632=DIRECTION('',(0.,0.,1.));
#633=DIRECTION('center_axis',(0.,0.,1.));
#634=DIRECTION('ref_axis',(1.,0.,0.));
#635=DIRECTION('',(-1.,0.,0.));
#636=DIRECTION('',(0.,1.,0.));
#637=DIRECTION('',(1.,0.,0.));
#638=DIRECTION('',(0.,1.,0.));
#639=DIRECTION('center_axis',(-1.,0.,0.));
#640=DIRECTION('ref_axis',(0.,0.,1.));
#641=DIRECTION('',(0.,0.,-1.));
#642=DIRECTION('',(0.,0.,1.));
#643=DIRECTION('',(0.,1.,0.));
#644=DIRECTION('center_axis',(0.,0.,-1.));
#645=DIRECTION('ref_axis',(-1.,0.,0.));
#646=DIRECTION('',(1.,0.,0.));
#647=DIRECTION('',(-1.,0.,0.));
#648=DIRECTION('',(0.,1.,0.));
#649=DIRECTION('center_axis',(1.,0.,0.));
#650=DIRECTION('ref_axis',(0.,0.,-1.));
#651=DIRECTION('',(0.,0.,1.));
#652=DIRECTION('',(0.,0.,-1.));
#653=DIRECTION('center_axis',(0.,1.,0.));
#654=DIRECTION('ref_axis',(0.,0.,1.));
#655=DIRECTION('',(0.,0.,1.));
#656=DIRECTION('',(-1.,0.,0.));
#657=DIRECTION('',(0.,0.,-1.));
#658=DIRECTION('',(1.,0.,0.));
#659=DIRECTION('center_axis',(0.,1.,0.));
#660=DIRECTION('ref_axis',(0.,0.,1.));
#661=DIRECTION('',(0.,0.,-1.));
#662=DIRECTION('',(-0.650791373444339,0.,-0.759256602375265));
#663=DIRECTION('',(-1.,0.,0.));
#664=DIRECTION('',(-0.650791373452748,0.,0.759256602368057));
#665=DIRECTION('',(0.,0.,1.));
#666=DIRECTION('',(0.650791373448501,0.,0.759256602371697));
#667=DIRECTION('',(1.,0.,5.07530525542929E-17));
#668=DIRECTION('',(0.650791373448578,0.,-0.759256602371631));
#669=DIRECTION('center_axis',(0.,0.,-1.));
#670=DIRECTION('ref_axis',(-1.,0.,0.));
#671=DIRECTION('',(-1.,0.,0.));
#672=DIRECTION('',(0.,1.,0.));
#673=DIRECTION('',(0.,1.,0.));
#674=DIRECTION('center_axis',(1.,0.,0.));
#675=DIRECTION('ref_axis',(0.,0.,-1.));
#676=DIRECTION('',(0.,0.,-1.));
#677=DIRECTION('',(0.,1.,0.));
#678=DIRECTION('center_axis',(0.,0.,1.));
#679=DIRECTION('ref_axis',(1.,0.,0.));
#680=DIRECTION('',(1.,0.,0.));
#681=DIRECTION('',(0.,1.,0.));
#682=DIRECTION('center_axis',(-1.,0.,0.));
#683=DIRECTION('ref_axis',(0.,0.,1.));
#684=DIRECTION('',(0.,0.,1.));
#685=DIRECTION('center_axis',(0.759256602371631,0.,0.650791373448578));
#686=DIRECTION('ref_axis',(0.650791373448578,0.,-0.759256602371631));
#687=DIRECTION('',(-0.650791373448578,0.,0.759256602371631));
#688=DIRECTION('',(0.,1.,0.));
#689=DIRECTION('',(0.,1.,0.));
#690=DIRECTION('center_axis',(-5.07530525542929E-17,0.,1.));
#691=DIRECTION('ref_axis',(1.,0.,5.07530525542929E-17));
#692=DIRECTION('',(1.,0.,5.07530525542929E-17));
#693=DIRECTION('',(0.,1.,0.));
#694=DIRECTION('center_axis',(-0.759256602371697,0.,0.650791373448501));
#695=DIRECTION('ref_axis',(0.650791373448501,0.,0.759256602371697));
#696=DIRECTION('',(0.650791373448501,0.,0.759256602371697));
#697=DIRECTION('',(0.,1.,0.));
#698=DIRECTION('center_axis',(-1.,0.,0.));
#699=DIRECTION('ref_axis',(0.,0.,1.));
#700=DIRECTION('',(0.,0.,1.));
#701=DIRECTION('',(0.,1.,0.));
#702=DIRECTION('center_axis',(-0.759256602368057,0.,-0.650791373452748));
#703=DIRECTION('ref_axis',(-0.650791373452748,0.,0.759256602368057));
#704=DIRECTION('',(0.650791373452748,0.,-0.759256602368057));
#705=DIRECTION('',(0.,1.,0.));
#706=DIRECTION('center_axis',(0.,0.,-1.));
#707=DIRECTION('ref_axis',(-1.,0.,0.));
#708=DIRECTION('',(-1.,0.,0.));
#709=DIRECTION('',(0.,1.,0.));
#710=DIRECTION('center_axis',(0.759256602375265,0.,-0.650791373444339));
#711=DIRECTION('ref_axis',(-0.650791373444339,0.,-0.759256602375265));
#712=DIRECTION('',(-0.650791373444339,0.,-0.759256602375265));
#713=DIRECTION('',(0.,1.,0.));
#714=DIRECTION('center_axis',(1.,0.,0.));
#715=DIRECTION('ref_axis',(0.,0.,-1.));
#716=DIRECTION('',(0.,0.,-1.));
#717=DIRECTION('center_axis',(0.,1.,0.));
#718=DIRECTION('ref_axis',(1.,0.,0.));
#719=CARTESIAN_POINT('',(0.,0.,0.));
#720=CARTESIAN_POINT('Origin',(23.,0.,-23.));
#721=CARTESIAN_POINT('',(-23.,2.5,-23.));
#722=CARTESIAN_POINT('',(23.,2.5,-23.));
#723=CARTESIAN_POINT('',(-11.5,2.5,-23.));
#724=CARTESIAN_POINT('',(23.,4.,-23.));
#725=CARTESIAN_POINT('',(23.,0.,-23.));
#726=CARTESIAN_POINT('',(-23.,4.,-23.));
#727=CARTESIAN_POINT('',(-23.,4.,-23.));
#728=CARTESIAN_POINT('',(-23.,0.,-23.));
#729=CARTESIAN_POINT('Origin',(-23.,0.,-23.));
#730=CARTESIAN_POINT('',(-23.,2.5,23.));
#731=CARTESIAN_POINT('',(-23.,2.5,11.5));
#732=CARTESIAN_POINT('',(-23.,4.,23.));
#733=CARTESIAN_POINT('',(-23.,4.,23.));
#734=CARTESIAN_POINT('',(-23.,0.,23.));
#735=CARTESIAN_POINT('Origin',(23.,0.,23.));
#736=CARTESIAN_POINT('',(23.,2.5,23.));
#737=CARTESIAN_POINT('',(23.,2.5,23.7427414481137));
#738=CARTESIAN_POINT('',(23.,4.,23.));
#739=CARTESIAN_POINT('',(23.,0.,23.));
#740=CARTESIAN_POINT('',(23.,4.,-23.));
#741=CARTESIAN_POINT('Origin',(-23.,0.,23.));
#742=CARTESIAN_POINT('',(-23.5000001788139,2.5,23.));
#743=CARTESIAN_POINT('',(23.,4.,23.));
#744=CARTESIAN_POINT('Origin',(0.,4.,0.));
#745=CARTESIAN_POINT('',(-20.5,4.,-20.5));
#746=CARTESIAN_POINT('',(20.5,4.,-20.5));
#747=CARTESIAN_POINT('',(-10.25,4.,-20.5));
#748=CARTESIAN_POINT('',(-20.5,4.,20.5));
#749=CARTESIAN_POINT('',(-20.5,4.,10.25));
#750=CARTESIAN_POINT('',(20.5,4.,20.5));
#751=CARTESIAN_POINT('',(10.25,4.,20.5));
#752=CARTESIAN_POINT('',(20.5,4.,-10.25));
#753=CARTESIAN_POINT('Origin',(-20.5,0.,20.5));
#754=CARTESIAN_POINT('',(-20.5,5.,-20.5));
#755=CARTESIAN_POINT('',(-20.5,0.,-20.5));
#756=CARTESIAN_POINT('',(-20.5,5.,20.5));
#757=CARTESIAN_POINT('',(-20.5,5.,20.5));
#758=CARTESIAN_POINT('',(-20.5,0.,20.5));
#759=CARTESIAN_POINT('Origin',(-20.5,0.,-20.5));
#760=CARTESIAN_POINT('',(20.5,5.,-20.5));
#761=CARTESIAN_POINT('',(20.5,0.,-20.5));
#762=CARTESIAN_POINT('',(-20.5,5.,-20.5));
#763=CARTESIAN_POINT('Origin',(20.5,0.,20.5));
#764=CARTESIAN_POINT('',(20.5,5.,20.5));
#765=CARTESIAN_POINT('',(20.5,5.,20.5));
#766=CARTESIAN_POINT('',(20.5,0.,20.5));
#767=CARTESIAN_POINT('Origin',(20.5,0.,-20.5));
#768=CARTESIAN_POINT('',(20.5,5.,-20.5));
#769=CARTESIAN_POINT('Origin',(-74.999999999996,0.,70.0000000000005));
#770=CARTESIAN_POINT('',(75.000000000004,5.,70.0000000000005));
#771=CARTESIAN_POINT('',(-74.999999999996,5.,70.0000000000005));
#772=CARTESIAN_POINT('',(-37.4999999999954,5.,70.0000000000005));
#773=CARTESIAN_POINT('',(75.000000000004,0.,70.0000000000005));
#774=CARTESIAN_POINT('',(75.000000000004,0.,70.0000000000005));
#775=CARTESIAN_POINT('',(-74.999999999996,0.,70.0000000000005));
#776=CARTESIAN_POINT('',(-37.4999999999954,0.,70.0000000000005));
#777=CARTESIAN_POINT('',(-74.999999999996,0.,70.0000000000005));
#778=CARTESIAN_POINT('Origin',(-74.999999999996,0.,55.0000000000005));
#779=CARTESIAN_POINT('',(-74.999999999996,5.,55.0000000000005));
#780=CARTESIAN_POINT('',(-74.999999999996,5.,27.5000000000005));
#781=CARTESIAN_POINT('',(-74.999999999996,0.,55.0000000000005));
#782=CARTESIAN_POINT('',(-74.999999999996,0.,27.5000000000005));
#783=CARTESIAN_POINT('',(-74.999999999996,0.,55.0000000000005));
#784=CARTESIAN_POINT('Origin',(75.000000000004,0.,55.0000000000005));
#785=CARTESIAN_POINT('',(75.000000000004,5.,55.0000000000005));
#786=CARTESIAN_POINT('',(37.5000000000046,5.,55.0000000000005));
#787=CARTESIAN_POINT('',(75.000000000004,0.,55.0000000000005));
#788=CARTESIAN_POINT('',(37.5000000000046,0.,55.0000000000005));
#789=CARTESIAN_POINT('',(75.000000000004,0.,55.0000000000005));
#790=CARTESIAN_POINT('Origin',(75.000000000004,0.,70.0000000000005));
#791=CARTESIAN_POINT('',(75.000000000004,5.,35.0000000000005));
#792=CARTESIAN_POINT('',(75.000000000004,0.,35.0000000000005));
#793=CARTESIAN_POINT('Origin',(0.,2.5,0.));
#794=CARTESIAN_POINT('',(-47.5,2.5,-47.5));
#795=CARTESIAN_POINT('',(-47.5,2.5,47.5));
#796=CARTESIAN_POINT('',(-47.5,2.5,-47.5));
#797=CARTESIAN_POINT('',(47.5,2.5,-47.5));
#798=CARTESIAN_POINT('',(47.5,2.5,-47.5));
#799=CARTESIAN_POINT('',(47.5,2.5,47.5));
#800=CARTESIAN_POINT('',(47.5,2.5,47.5));
#801=CARTESIAN_POINT('',(-47.5,2.5,47.5));
#802=CARTESIAN_POINT('Origin',(5.20472553944273E-12,5.,4.88498130835069E-13));
#803=CARTESIAN_POINT('',(87.4999999999951,5.,72.7222301929073));
#804=CARTESIAN_POINT('',(87.4999999999994,5.,-72.7222301928962));
#805=CARTESIAN_POINT('',(87.5000000000133,5.,75.0000000000006));
#806=CARTESIAN_POINT('',(85.5476258796812,5.,-75.0000000000047));
#807=CARTESIAN_POINT('',(87.4999999999994,5.,-72.7222301928962));
#808=CARTESIAN_POINT('',(-85.5476258796456,5.,-74.9999999999894));
#809=CARTESIAN_POINT('',(87.5000000000133,5.,-74.9999999999995));
#810=CARTESIAN_POINT('',(-87.5000000000029,5.,-72.7222301928863));
#811=CARTESIAN_POINT('',(-87.5000000000029,5.,-72.7222301928863));
#812=CARTESIAN_POINT('',(-87.4999999999867,5.,72.7222301928855));
#813=CARTESIAN_POINT('',(-87.4999999999867,5.,-74.9999999999995));
#814=CARTESIAN_POINT('',(-85.5476258796412,5.,75.0000000000005));
#815=CARTESIAN_POINT('',(-87.4999999999867,5.,72.7222301928855));
#816=CARTESIAN_POINT('',(85.5476258796635,5.,75.0000000000057));
#817=CARTESIAN_POINT('',(-87.4999999999867,5.,75.0000000000005));
#818=CARTESIAN_POINT('',(87.4999999999951,5.,72.7222301929073));
#819=CARTESIAN_POINT('Origin',(47.5,0.,-47.5));
#820=CARTESIAN_POINT('',(47.5,0.,-47.5));
#821=CARTESIAN_POINT('',(-47.5,0.,-47.5));
#822=CARTESIAN_POINT('',(23.7500000000026,0.,-47.5));
#823=CARTESIAN_POINT('',(47.5,0.,-47.5));
#824=CARTESIAN_POINT('',(-47.5,0.,-47.5));
#825=CARTESIAN_POINT('Origin',(47.5,0.,47.5));
#826=CARTESIAN_POINT('',(47.5,0.,47.5));
#827=CARTESIAN_POINT('',(47.5,0.,23.7500000000002));
#828=CARTESIAN_POINT('',(47.5,0.,47.5));
#829=CARTESIAN_POINT('Origin',(-47.5,0.,47.5));
#830=CARTESIAN_POINT('',(-47.5,0.,47.5));
#831=CARTESIAN_POINT('',(-23.7499999999974,0.,47.5));
#832=CARTESIAN_POINT('',(-47.5,0.,47.5));
#833=CARTESIAN_POINT('Origin',(-47.5,0.,-47.5));
#834=CARTESIAN_POINT('',(-47.5,0.,-23.7499999999998));
#835=CARTESIAN_POINT('Origin',(85.5476258796635,0.,75.0000000000057));
#836=CARTESIAN_POINT('',(87.4999999999951,0.,72.7222301929073));
#837=CARTESIAN_POINT('',(85.5476258796635,0.,75.0000000000057));
#838=CARTESIAN_POINT('',(87.4999999999951,0.,72.7222301929073));
#839=CARTESIAN_POINT('',(87.4999999999951,0.,72.7222301929073));
#840=CARTESIAN_POINT('',(85.5476258796635,0.,75.0000000000057));
#841=CARTESIAN_POINT('Origin',(-85.5476258796412,0.,75.0000000000005));
#842=CARTESIAN_POINT('',(-85.5476258796412,0.,75.0000000000005));
#843=CARTESIAN_POINT('',(-87.4999999999867,0.,75.0000000000005));
#844=CARTESIAN_POINT('',(-85.5476258796412,0.,75.0000000000005));
#845=CARTESIAN_POINT('Origin',(-87.4999999999867,0.,72.7222301928855));
#846=CARTESIAN_POINT('',(-87.4999999999867,0.,72.7222301928855));
#847=CARTESIAN_POINT('',(-87.4999999999867,0.,72.7222301928855));
#848=CARTESIAN_POINT('',(-87.4999999999867,0.,72.7222301928855));
#849=CARTESIAN_POINT('Origin',(-87.4999999999867,0.,-72.7222301928863));
#850=CARTESIAN_POINT('',(-87.5000000000029,0.,-72.7222301928863));
#851=CARTESIAN_POINT('',(-87.4999999999867,0.,-74.9999999999995));
#852=CARTESIAN_POINT('',(-87.5000000000029,0.,-72.7222301928863));
#853=CARTESIAN_POINT('Origin',(-85.5476258796456,0.,-74.9999999999894));
#854=CARTESIAN_POINT('',(-85.5476258796456,0.,-74.9999999999894));
#855=CARTESIAN_POINT('',(-87.5000000000029,0.,-72.7222301928863));
#856=CARTESIAN_POINT('',(-85.5476258796456,0.,-74.9999999999894));
#857=CARTESIAN_POINT('Origin',(85.5476258796812,0.,-74.9999999999995));
#858=CARTESIAN_POINT('',(85.5476258796812,0.,-75.0000000000047));
#859=CARTESIAN_POINT('',(87.5000000000133,0.,-74.9999999999995));
#860=CARTESIAN_POINT('',(85.5476258796812,0.,-75.0000000000047));
#861=CARTESIAN_POINT('Origin',(87.4999999999994,0.,-72.7222301928962));
#862=CARTESIAN_POINT('',(87.4999999999994,0.,-72.7222301928962));
#863=CARTESIAN_POINT('',(87.4999999999994,0.,-72.7222301928962));
#864=CARTESIAN_POINT('',(87.4999999999994,0.,-72.7222301928962));
#865=CARTESIAN_POINT('Origin',(87.5000000000133,0.,72.7222301929073));
#866=CARTESIAN_POINT('',(87.5000000000133,0.,75.0000000000006));
#867=CARTESIAN_POINT('Origin',(5.20472553944273E-12,0.,4.88498130835069E-13));
#868=UNCERTAINTY_MEASURE_WITH_UNIT(LENGTH_MEASURE(0.01),#872,
'DISTANCE_ACCURACY_VALUE',
'Maximum model space distance between geometric entities at asserted c
onnectivities');
#869=UNCERTAINTY_MEASURE_WITH_UNIT(LENGTH_MEASURE(0.01),#872,
'DISTANCE_ACCURACY_VALUE',
'Maximum model space distance between geometric entities at asserted c
onnectivities');
#870=(
GEOMETRIC_REPRESENTATION_CONTEXT(3)
GLOBAL_UNCERTAINTY_ASSIGNED_CONTEXT((#868))
GLOBAL_UNIT_ASSIGNED_CONTEXT((#872,#874,#875))
REPRESENTATION_CONTEXT('','3D')
);
#871=(
GEOMETRIC_REPRESENTATION_CONTEXT(3)
GLOBAL_UNCERTAINTY_ASSIGNED_CONTEXT((#869))
GLOBAL_UNIT_ASSIGNED_CONTEXT((#872,#874,#875))
REPRESENTATION_CONTEXT('','3D')
);
#872=(
LENGTH_UNIT()
NAMED_UNIT(*)
SI_UNIT(.MILLI.,.METRE.)
);
#873=(
LENGTH_UNIT()
NAMED_UNIT(*)
SI_UNIT($,.METRE.)
);
#874=(
NAMED_UNIT(*)
PLANE_ANGLE_UNIT()
SI_UNIT($,.RADIAN.)
);
#875=(
NAMED_UNIT(*)
SI_UNIT($,.STERADIAN.)
SOLID_ANGLE_UNIT()
);
#876=SHAPE_DEFINITION_REPRESENTATION(#877,#878);
#877=PRODUCT_DEFINITION_SHAPE('',$,#880);
#878=SHAPE_REPRESENTATION('',(#560),#870);
#879=PRODUCT_DEFINITION_CONTEXT('part definition',#884,'design');
#880=PRODUCT_DEFINITION('2026-06-29-17-39-57-834','LED mount',#881,#879);
#881=PRODUCT_DEFINITION_FORMATION('',$,#886);
#882=PRODUCT_RELATED_PRODUCT_CATEGORY('LED mount','LED mount',(#886));
#883=APPLICATION_PROTOCOL_DEFINITION('international standard',
'automotive_design',2009,#884);
#884=APPLICATION_CONTEXT(
'Core Data for Automotive Mechanical Design Process');
#885=PRODUCT_CONTEXT('part definition',#884,'mechanical');
#886=PRODUCT('2026-06-29-17-39-57-834','LED mount',$,(#885));
#887=PRESENTATION_STYLE_ASSIGNMENT((#888));
#888=SURFACE_STYLE_USAGE(.BOTH.,#889);
#889=SURFACE_SIDE_STYLE('',(#890));
#890=SURFACE_STYLE_FILL_AREA(#891);
#891=FILL_AREA_STYLE('Aluminum - Brushed Linear',(#892));
#892=FILL_AREA_STYLE_COLOUR('Aluminum - Brushed Linear',#893);
#893=COLOUR_RGB('Aluminum - Brushed Linear',0.96078431372549,0.96078431372549,
0.964705882352941);
ENDSEC;
END-ISO-10303-21;
