ISO-10303-21;
HEADER;
/* Generated by software containing ST-Developer
 * from STEP Tools, Inc. (www.steptools.com) 
 */

FILE_DESCRIPTION(
/* description */ (''),
/* implementation_level */ '2;1');

FILE_NAME(
/* name */ 'Condensor lens mount.step',
/* time_stamp */ '2026-09-03T18:10:59+02:00',
/* author */ (''),
/* organization */ (''),
/* preprocessor_version */ 'ST-DEVELOPER v20.1',
/* originating_system */ 'Autodesk Translation Framework v15.8.0.0',
/* authorisation */ '');

FILE_SCHEMA (('AUTOMOTIVE_DESIGN { 1 0 10303 214 3 1 1 }'));
ENDSEC;

DATA;
#10=MECHANICAL_DESIGN_GEOMETRIC_PRESENTATION_REPRESENTATION('',(#13,#14),
#810);
#11=SHAPE_REPRESENTATION_RELATIONSHIP('SRR','None',#817,#12);
#12=ADVANCED_BREP_SHAPE_REPRESENTATION('',(#15,#16),#809);
#13=STYLED_ITEM('',(#826),#15);
#14=STYLED_ITEM('',(#826),#16);
#15=MANIFOLD_SOLID_BREP('Body4',#482);
#16=MANIFOLD_SOLID_BREP('Body5',#483);
#17=CYLINDRICAL_SURFACE('',#507,50.);
#18=CYLINDRICAL_SURFACE('',#529,50.);
#19=TOROIDAL_SURFACE('',#503,49.9999988824129,0.5);
#20=TOROIDAL_SURFACE('',#510,50.1,0.1);
#21=TOROIDAL_SURFACE('',#523,50.1,0.1);
#22=TOROIDAL_SURFACE('',#531,49.9999988824129,0.5);
#23=FACE_BOUND('',#73,.T.);
#24=FACE_BOUND('',#82,.T.);
#25=FACE_BOUND('',#84,.T.);
#26=FACE_BOUND('',#97,.T.);
#27=CIRCLE('',#502,50.);
#28=CIRCLE('',#504,50.0833331470688);
#29=CIRCLE('',#505,0.5);
#30=CIRCLE('',#506,50.4999988824129);
#31=CIRCLE('',#508,50.);
#32=CIRCLE('',#509,50.);
#33=CIRCLE('',#511,0.1);
#34=CIRCLE('',#518,50.4999988824129);
#35=CIRCLE('',#524,50.);
#36=CIRCLE('',#525,0.1);
#37=CIRCLE('',#526,50.0833331470688);
#38=CIRCLE('',#527,50.0833331470688);
#39=CIRCLE('',#528,50.);
#40=CIRCLE('',#530,50.);
#41=CIRCLE('',#532,0.5);
#42=FACE_OUTER_BOUND('',#68,.T.);
#43=FACE_OUTER_BOUND('',#69,.T.);
#44=FACE_OUTER_BOUND('',#70,.T.);
#45=FACE_OUTER_BOUND('',#71,.T.);
#46=FACE_OUTER_BOUND('',#72,.T.);
#47=FACE_OUTER_BOUND('',#74,.T.);
#48=FACE_OUTER_BOUND('',#75,.T.);
#49=FACE_OUTER_BOUND('',#76,.T.);
#50=FACE_OUTER_BOUND('',#77,.T.);
#51=FACE_OUTER_BOUND('',#78,.T.);
#52=FACE_OUTER_BOUND('',#79,.T.);
#53=FACE_OUTER_BOUND('',#80,.T.);
#54=FACE_OUTER_BOUND('',#81,.T.);
#55=FACE_OUTER_BOUND('',#83,.T.);
#56=FACE_OUTER_BOUND('',#85,.T.);
#57=FACE_OUTER_BOUND('',#86,.T.);
#58=FACE_OUTER_BOUND('',#87,.T.);
#59=FACE_OUTER_BOUND('',#88,.T.);
#60=FACE_OUTER_BOUND('',#89,.T.);
#61=FACE_OUTER_BOUND('',#90,.T.);
#62=FACE_OUTER_BOUND('',#91,.T.);
#63=FACE_OUTER_BOUND('',#92,.T.);
#64=FACE_OUTER_BOUND('',#93,.T.);
#65=FACE_OUTER_BOUND('',#94,.T.);
#66=FACE_OUTER_BOUND('',#95,.T.);
#67=FACE_OUTER_BOUND('',#96,.T.);
#68=EDGE_LOOP('',(#306,#307,#308,#309));
#69=EDGE_LOOP('',(#310,#311,#312,#313));
#70=EDGE_LOOP('',(#314,#315,#316,#317));
#71=EDGE_LOOP('',(#318,#319,#320,#321));
#72=EDGE_LOOP('',(#322,#323,#324,#325,#326,#327,#328,#329));
#73=EDGE_LOOP('',(#330));
#74=EDGE_LOOP('',(#331,#332,#333,#334));
#75=EDGE_LOOP('',(#335,#336,#337,#338,#339));
#76=EDGE_LOOP('',(#340,#341,#342,#343,#344));
#77=EDGE_LOOP('',(#345,#346,#347,#348));
#78=EDGE_LOOP('',(#349,#350,#351,#352));
#79=EDGE_LOOP('',(#353,#354,#355,#356));
#80=EDGE_LOOP('',(#357,#358,#359,#360));
#81=EDGE_LOOP('',(#361,#362,#363,#364,#365,#366,#367,#368));
#82=EDGE_LOOP('',(#369));
#83=EDGE_LOOP('',(#370,#371,#372,#373,#374,#375,#376,#377));
#84=EDGE_LOOP('',(#378));
#85=EDGE_LOOP('',(#379,#380,#381,#382));
#86=EDGE_LOOP('',(#383,#384,#385,#386));
#87=EDGE_LOOP('',(#387,#388,#389,#390));
#88=EDGE_LOOP('',(#391,#392,#393,#394));
#89=EDGE_LOOP('',(#395,#396,#397,#398,#399,#400));
#90=EDGE_LOOP('',(#401,#402,#403,#404,#405));
#91=EDGE_LOOP('',(#406,#407,#408,#409,#410));
#92=EDGE_LOOP('',(#411,#412,#413,#414));
#93=EDGE_LOOP('',(#415,#416,#417,#418));
#94=EDGE_LOOP('',(#419,#420,#421,#422));
#95=EDGE_LOOP('',(#423,#424,#425,#426));
#96=EDGE_LOOP('',(#427,#428,#429,#430,#431,#432,#433,#434));
#97=EDGE_LOOP('',(#435));
#98=LINE('',#676,#148);
#99=LINE('',#678,#149);
#100=LINE('',#680,#150);
#101=LINE('',#681,#151);
#102=LINE('',#684,#152);
#103=LINE('',#686,#153);
#104=LINE('',#687,#154);
#105=LINE('',#690,#155);
#106=LINE('',#692,#156);
#107=LINE('',#693,#157);
#108=LINE('',#696,#158);
#109=LINE('',#698,#159);
#110=LINE('',#699,#160);
#111=LINE('',#703,#161);
#112=LINE('',#704,#162);
#113=LINE('',#706,#163);
#114=LINE('',#707,#164);
#115=LINE('',#720,#165);
#116=LINE('',#726,#166);
#117=LINE('',#727,#167);
#118=LINE('',#730,#168);
#119=LINE('',#731,#169);
#120=LINE('',#734,#170);
#121=LINE('',#735,#171);
#122=LINE('',#737,#172);
#123=LINE('',#742,#173);
#124=LINE('',#744,#174);
#125=LINE('',#746,#175);
#126=LINE('',#748,#176);
#127=LINE('',#750,#177);
#128=LINE('',#752,#178);
#129=LINE('',#754,#179);
#130=LINE('',#755,#180);
#131=LINE('',#760,#181);
#132=LINE('',#762,#182);
#133=LINE('',#763,#183);
#134=LINE('',#766,#184);
#135=LINE('',#767,#185);
#136=LINE('',#770,#186);
#137=LINE('',#771,#187);
#138=LINE('',#774,#188);
#139=LINE('',#775,#189);
#140=LINE('',#789,#190);
#141=LINE('',#794,#191);
#142=LINE('',#795,#192);
#143=LINE('',#798,#193);
#144=LINE('',#799,#194);
#145=LINE('',#802,#195);
#146=LINE('',#803,#196);
#147=LINE('',#805,#197);
#148=VECTOR('',#542,10.);
#149=VECTOR('',#543,10.);
#150=VECTOR('',#544,10.);
#151=VECTOR('',#545,10.);
#152=VECTOR('',#548,10.);
#153=VECTOR('',#549,10.);
#154=VECTOR('',#550,10.);
#155=VECTOR('',#553,10.);
#156=VECTOR('',#554,10.);
#157=VECTOR('',#555,10.);
#158=VECTOR('',#558,10.);
#159=VECTOR('',#559,10.);
#160=VECTOR('',#560,10.);
#161=VECTOR('',#563,10.);
#162=VECTOR('',#564,10.);
#163=VECTOR('',#565,10.);
#164=VECTOR('',#566,10.);
#165=VECTOR('',#581,50.);
#166=VECTOR('',#590,10.);
#167=VECTOR('',#591,10.);
#168=VECTOR('',#594,10.);
#169=VECTOR('',#595,10.);
#170=VECTOR('',#598,10.);
#171=VECTOR('',#599,10.);
#172=VECTOR('',#602,10.);
#173=VECTOR('',#607,10.);
#174=VECTOR('',#608,10.);
#175=VECTOR('',#609,10.);
#176=VECTOR('',#610,10.);
#177=VECTOR('',#611,10.);
#178=VECTOR('',#612,10.);
#179=VECTOR('',#613,10.);
#180=VECTOR('',#614,10.);
#181=VECTOR('',#619,10.);
#182=VECTOR('',#620,10.);
#183=VECTOR('',#621,10.);
#184=VECTOR('',#624,10.);
#185=VECTOR('',#625,10.);
#186=VECTOR('',#628,10.);
#187=VECTOR('',#629,10.);
#188=VECTOR('',#632,10.);
#189=VECTOR('',#633,10.);
#190=VECTOR('',#650,50.);
#191=VECTOR('',#657,10.);
#192=VECTOR('',#658,10.);
#193=VECTOR('',#661,10.);
#194=VECTOR('',#662,10.);
#195=VECTOR('',#665,10.);
#196=VECTOR('',#666,10.);
#197=VECTOR('',#669,10.);
#198=VERTEX_POINT('',#674);
#199=VERTEX_POINT('',#675);
#200=VERTEX_POINT('',#677);
#201=VERTEX_POINT('',#679);
#202=VERTEX_POINT('',#683);
#203=VERTEX_POINT('',#685);
#204=VERTEX_POINT('',#689);
#205=VERTEX_POINT('',#691);
#206=VERTEX_POINT('',#695);
#207=VERTEX_POINT('',#697);
#208=VERTEX_POINT('',#701);
#209=VERTEX_POINT('',#702);
#210=VERTEX_POINT('',#705);
#211=VERTEX_POINT('',#708);
#212=VERTEX_POINT('',#711);
#213=VERTEX_POINT('',#713);
#214=VERTEX_POINT('',#717);
#215=VERTEX_POINT('',#718);
#216=VERTEX_POINT('',#725);
#217=VERTEX_POINT('',#729);
#218=VERTEX_POINT('',#733);
#219=VERTEX_POINT('',#740);
#220=VERTEX_POINT('',#741);
#221=VERTEX_POINT('',#743);
#222=VERTEX_POINT('',#745);
#223=VERTEX_POINT('',#747);
#224=VERTEX_POINT('',#749);
#225=VERTEX_POINT('',#751);
#226=VERTEX_POINT('',#753);
#227=VERTEX_POINT('',#756);
#228=VERTEX_POINT('',#759);
#229=VERTEX_POINT('',#761);
#230=VERTEX_POINT('',#765);
#231=VERTEX_POINT('',#769);
#232=VERTEX_POINT('',#773);
#233=VERTEX_POINT('',#777);
#234=VERTEX_POINT('',#778);
#235=VERTEX_POINT('',#780);
#236=VERTEX_POINT('',#782);
#237=VERTEX_POINT('',#787);
#238=VERTEX_POINT('',#793);
#239=VERTEX_POINT('',#797);
#240=VERTEX_POINT('',#801);
#241=EDGE_CURVE('',#198,#199,#98,.T.);
#242=EDGE_CURVE('',#200,#198,#99,.T.);
#243=EDGE_CURVE('',#201,#200,#100,.T.);
#244=EDGE_CURVE('',#201,#199,#101,.T.);
#245=EDGE_CURVE('',#199,#202,#102,.T.);
#246=EDGE_CURVE('',#203,#201,#103,.T.);
#247=EDGE_CURVE('',#203,#202,#104,.T.);
#248=EDGE_CURVE('',#202,#204,#105,.T.);
#249=EDGE_CURVE('',#205,#203,#106,.T.);
#250=EDGE_CURVE('',#205,#204,#107,.T.);
#251=EDGE_CURVE('',#204,#206,#108,.T.);
#252=EDGE_CURVE('',#207,#205,#109,.T.);
#253=EDGE_CURVE('',#207,#206,#110,.T.);
#254=EDGE_CURVE('',#208,#209,#111,.T.);
#255=EDGE_CURVE('',#209,#207,#112,.T.);
#256=EDGE_CURVE('',#200,#210,#113,.T.);
#257=EDGE_CURVE('',#210,#208,#114,.T.);
#258=EDGE_CURVE('',#211,#211,#27,.T.);
#259=EDGE_CURVE('',#212,#212,#28,.T.);
#260=EDGE_CURVE('',#212,#213,#29,.T.);
#261=EDGE_CURVE('',#213,#213,#30,.T.);
#262=EDGE_CURVE('',#214,#215,#31,.T.);
#263=EDGE_CURVE('',#214,#211,#115,.T.);
#264=EDGE_CURVE('',#215,#214,#32,.T.);
#265=EDGE_CURVE('',#215,#212,#33,.T.);
#266=EDGE_CURVE('',#206,#216,#116,.T.);
#267=EDGE_CURVE('',#216,#209,#117,.T.);
#268=EDGE_CURVE('',#216,#217,#118,.T.);
#269=EDGE_CURVE('',#208,#217,#119,.T.);
#270=EDGE_CURVE('',#217,#218,#120,.T.);
#271=EDGE_CURVE('',#210,#218,#121,.T.);
#272=EDGE_CURVE('',#218,#198,#122,.T.);
#273=EDGE_CURVE('',#219,#220,#123,.T.);
#274=EDGE_CURVE('',#221,#219,#124,.T.);
#275=EDGE_CURVE('',#222,#221,#125,.T.);
#276=EDGE_CURVE('',#223,#222,#126,.T.);
#277=EDGE_CURVE('',#224,#223,#127,.T.);
#278=EDGE_CURVE('',#225,#224,#128,.T.);
#279=EDGE_CURVE('',#226,#225,#129,.T.);
#280=EDGE_CURVE('',#220,#226,#130,.T.);
#281=EDGE_CURVE('',#227,#227,#34,.T.);
#282=EDGE_CURVE('',#223,#228,#131,.T.);
#283=EDGE_CURVE('',#229,#228,#132,.T.);
#284=EDGE_CURVE('',#224,#229,#133,.T.);
#285=EDGE_CURVE('',#222,#230,#134,.T.);
#286=EDGE_CURVE('',#228,#230,#135,.T.);
#287=EDGE_CURVE('',#221,#231,#136,.T.);
#288=EDGE_CURVE('',#230,#231,#137,.T.);
#289=EDGE_CURVE('',#219,#232,#138,.T.);
#290=EDGE_CURVE('',#231,#232,#139,.T.);
#291=EDGE_CURVE('',#233,#234,#35,.T.);
#292=EDGE_CURVE('',#234,#235,#36,.T.);
#293=EDGE_CURVE('',#235,#236,#37,.T.);
#294=EDGE_CURVE('',#236,#235,#38,.T.);
#295=EDGE_CURVE('',#234,#233,#39,.T.);
#296=EDGE_CURVE('',#237,#237,#40,.T.);
#297=EDGE_CURVE('',#237,#233,#140,.T.);
#298=EDGE_CURVE('',#227,#236,#41,.T.);
#299=EDGE_CURVE('',#238,#220,#141,.T.);
#300=EDGE_CURVE('',#232,#238,#142,.T.);
#301=EDGE_CURVE('',#239,#229,#143,.T.);
#302=EDGE_CURVE('',#225,#239,#144,.T.);
#303=EDGE_CURVE('',#240,#239,#145,.T.);
#304=EDGE_CURVE('',#226,#240,#146,.T.);
#305=EDGE_CURVE('',#238,#240,#147,.T.);
#306=ORIENTED_EDGE('',*,*,#241,.F.);
#307=ORIENTED_EDGE('',*,*,#242,.F.);
#308=ORIENTED_EDGE('',*,*,#243,.F.);
#309=ORIENTED_EDGE('',*,*,#244,.T.);
#310=ORIENTED_EDGE('',*,*,#245,.F.);
#311=ORIENTED_EDGE('',*,*,#244,.F.);
#312=ORIENTED_EDGE('',*,*,#246,.F.);
#313=ORIENTED_EDGE('',*,*,#247,.T.);
#314=ORIENTED_EDGE('',*,*,#248,.F.);
#315=ORIENTED_EDGE('',*,*,#247,.F.);
#316=ORIENTED_EDGE('',*,*,#249,.F.);
#317=ORIENTED_EDGE('',*,*,#250,.T.);
#318=ORIENTED_EDGE('',*,*,#251,.F.);
#319=ORIENTED_EDGE('',*,*,#250,.F.);
#320=ORIENTED_EDGE('',*,*,#252,.F.);
#321=ORIENTED_EDGE('',*,*,#253,.T.);
#322=ORIENTED_EDGE('',*,*,#254,.T.);
#323=ORIENTED_EDGE('',*,*,#255,.T.);
#324=ORIENTED_EDGE('',*,*,#252,.T.);
#325=ORIENTED_EDGE('',*,*,#249,.T.);
#326=ORIENTED_EDGE('',*,*,#246,.T.);
#327=ORIENTED_EDGE('',*,*,#243,.T.);
#328=ORIENTED_EDGE('',*,*,#256,.T.);
#329=ORIENTED_EDGE('',*,*,#257,.T.);
#330=ORIENTED_EDGE('',*,*,#258,.T.);
#331=ORIENTED_EDGE('',*,*,#259,.F.);
#332=ORIENTED_EDGE('',*,*,#260,.T.);
#333=ORIENTED_EDGE('',*,*,#261,.F.);
#334=ORIENTED_EDGE('',*,*,#260,.F.);
#335=ORIENTED_EDGE('',*,*,#262,.F.);
#336=ORIENTED_EDGE('',*,*,#263,.T.);
#337=ORIENTED_EDGE('',*,*,#258,.F.);
#338=ORIENTED_EDGE('',*,*,#263,.F.);
#339=ORIENTED_EDGE('',*,*,#264,.F.);
#340=ORIENTED_EDGE('',*,*,#262,.T.);
#341=ORIENTED_EDGE('',*,*,#265,.T.);
#342=ORIENTED_EDGE('',*,*,#259,.T.);
#343=ORIENTED_EDGE('',*,*,#265,.F.);
#344=ORIENTED_EDGE('',*,*,#264,.T.);
#345=ORIENTED_EDGE('',*,*,#266,.F.);
#346=ORIENTED_EDGE('',*,*,#253,.F.);
#347=ORIENTED_EDGE('',*,*,#255,.F.);
#348=ORIENTED_EDGE('',*,*,#267,.F.);
#349=ORIENTED_EDGE('',*,*,#268,.F.);
#350=ORIENTED_EDGE('',*,*,#267,.T.);
#351=ORIENTED_EDGE('',*,*,#254,.F.);
#352=ORIENTED_EDGE('',*,*,#269,.T.);
#353=ORIENTED_EDGE('',*,*,#270,.F.);
#354=ORIENTED_EDGE('',*,*,#269,.F.);
#355=ORIENTED_EDGE('',*,*,#257,.F.);
#356=ORIENTED_EDGE('',*,*,#271,.T.);
#357=ORIENTED_EDGE('',*,*,#272,.F.);
#358=ORIENTED_EDGE('',*,*,#271,.F.);
#359=ORIENTED_EDGE('',*,*,#256,.F.);
#360=ORIENTED_EDGE('',*,*,#242,.T.);
#361=ORIENTED_EDGE('',*,*,#266,.T.);
#362=ORIENTED_EDGE('',*,*,#268,.T.);
#363=ORIENTED_EDGE('',*,*,#270,.T.);
#364=ORIENTED_EDGE('',*,*,#272,.T.);
#365=ORIENTED_EDGE('',*,*,#241,.T.);
#366=ORIENTED_EDGE('',*,*,#245,.T.);
#367=ORIENTED_EDGE('',*,*,#248,.T.);
#368=ORIENTED_EDGE('',*,*,#251,.T.);
#369=ORIENTED_EDGE('',*,*,#261,.T.);
#370=ORIENTED_EDGE('',*,*,#273,.F.);
#371=ORIENTED_EDGE('',*,*,#274,.F.);
#372=ORIENTED_EDGE('',*,*,#275,.F.);
#373=ORIENTED_EDGE('',*,*,#276,.F.);
#374=ORIENTED_EDGE('',*,*,#277,.F.);
#375=ORIENTED_EDGE('',*,*,#278,.F.);
#376=ORIENTED_EDGE('',*,*,#279,.F.);
#377=ORIENTED_EDGE('',*,*,#280,.F.);
#378=ORIENTED_EDGE('',*,*,#281,.F.);
#379=ORIENTED_EDGE('',*,*,#277,.T.);
#380=ORIENTED_EDGE('',*,*,#282,.T.);
#381=ORIENTED_EDGE('',*,*,#283,.F.);
#382=ORIENTED_EDGE('',*,*,#284,.F.);
#383=ORIENTED_EDGE('',*,*,#276,.T.);
#384=ORIENTED_EDGE('',*,*,#285,.T.);
#385=ORIENTED_EDGE('',*,*,#286,.F.);
#386=ORIENTED_EDGE('',*,*,#282,.F.);
#387=ORIENTED_EDGE('',*,*,#275,.T.);
#388=ORIENTED_EDGE('',*,*,#287,.T.);
#389=ORIENTED_EDGE('',*,*,#288,.F.);
#390=ORIENTED_EDGE('',*,*,#285,.F.);
#391=ORIENTED_EDGE('',*,*,#274,.T.);
#392=ORIENTED_EDGE('',*,*,#289,.T.);
#393=ORIENTED_EDGE('',*,*,#290,.F.);
#394=ORIENTED_EDGE('',*,*,#287,.F.);
#395=ORIENTED_EDGE('',*,*,#291,.T.);
#396=ORIENTED_EDGE('',*,*,#292,.T.);
#397=ORIENTED_EDGE('',*,*,#293,.T.);
#398=ORIENTED_EDGE('',*,*,#294,.T.);
#399=ORIENTED_EDGE('',*,*,#292,.F.);
#400=ORIENTED_EDGE('',*,*,#295,.T.);
#401=ORIENTED_EDGE('',*,*,#296,.F.);
#402=ORIENTED_EDGE('',*,*,#297,.T.);
#403=ORIENTED_EDGE('',*,*,#295,.F.);
#404=ORIENTED_EDGE('',*,*,#291,.F.);
#405=ORIENTED_EDGE('',*,*,#297,.F.);
#406=ORIENTED_EDGE('',*,*,#281,.T.);
#407=ORIENTED_EDGE('',*,*,#298,.T.);
#408=ORIENTED_EDGE('',*,*,#293,.F.);
#409=ORIENTED_EDGE('',*,*,#294,.F.);
#410=ORIENTED_EDGE('',*,*,#298,.F.);
#411=ORIENTED_EDGE('',*,*,#273,.T.);
#412=ORIENTED_EDGE('',*,*,#299,.F.);
#413=ORIENTED_EDGE('',*,*,#300,.F.);
#414=ORIENTED_EDGE('',*,*,#289,.F.);
#415=ORIENTED_EDGE('',*,*,#278,.T.);
#416=ORIENTED_EDGE('',*,*,#284,.T.);
#417=ORIENTED_EDGE('',*,*,#301,.F.);
#418=ORIENTED_EDGE('',*,*,#302,.F.);
#419=ORIENTED_EDGE('',*,*,#279,.T.);
#420=ORIENTED_EDGE('',*,*,#302,.T.);
#421=ORIENTED_EDGE('',*,*,#303,.F.);
#422=ORIENTED_EDGE('',*,*,#304,.F.);
#423=ORIENTED_EDGE('',*,*,#280,.T.);
#424=ORIENTED_EDGE('',*,*,#304,.T.);
#425=ORIENTED_EDGE('',*,*,#305,.F.);
#426=ORIENTED_EDGE('',*,*,#299,.T.);
#427=ORIENTED_EDGE('',*,*,#305,.T.);
#428=ORIENTED_EDGE('',*,*,#303,.T.);
#429=ORIENTED_EDGE('',*,*,#301,.T.);
#430=ORIENTED_EDGE('',*,*,#283,.T.);
#431=ORIENTED_EDGE('',*,*,#286,.T.);
#432=ORIENTED_EDGE('',*,*,#288,.T.);
#433=ORIENTED_EDGE('',*,*,#290,.T.);
#434=ORIENTED_EDGE('',*,*,#300,.T.);
#435=ORIENTED_EDGE('',*,*,#296,.T.);
#436=PLANE('',#497);
#437=PLANE('',#498);
#438=PLANE('',#499);
#439=PLANE('',#500);
#440=PLANE('',#501);
#441=PLANE('',#512);
#442=PLANE('',#513);
#443=PLANE('',#514);
#444=PLANE('',#515);
#445=PLANE('',#516);
#446=PLANE('',#517);
#447=PLANE('',#519);
#448=PLANE('',#520);
#449=PLANE('',#521);
#450=PLANE('',#522);
#451=PLANE('',#533);
#452=PLANE('',#534);
#453=PLANE('',#535);
#454=PLANE('',#536);
#455=PLANE('',#537);
#456=ADVANCED_FACE('',(#42),#436,.T.);
#457=ADVANCED_FACE('',(#43),#437,.T.);
#458=ADVANCED_FACE('',(#44),#438,.T.);
#459=ADVANCED_FACE('',(#45),#439,.T.);
#460=ADVANCED_FACE('',(#46,#23),#440,.F.);
#461=ADVANCED_FACE('',(#47),#19,.F.);
#462=ADVANCED_FACE('',(#48),#17,.F.);
#463=ADVANCED_FACE('',(#49),#20,.T.);
#464=ADVANCED_FACE('',(#50),#441,.T.);
#465=ADVANCED_FACE('',(#51),#442,.T.);
#466=ADVANCED_FACE('',(#52),#443,.T.);
#467=ADVANCED_FACE('',(#53),#444,.T.);
#468=ADVANCED_FACE('',(#54,#24),#445,.T.);
#469=ADVANCED_FACE('',(#55,#25),#446,.F.);
#470=ADVANCED_FACE('',(#56),#447,.T.);
#471=ADVANCED_FACE('',(#57),#448,.T.);
#472=ADVANCED_FACE('',(#58),#449,.T.);
#473=ADVANCED_FACE('',(#59),#450,.T.);
#474=ADVANCED_FACE('',(#60),#21,.T.);
#475=ADVANCED_FACE('',(#61),#18,.F.);
#476=ADVANCED_FACE('',(#62),#22,.F.);
#477=ADVANCED_FACE('',(#63),#451,.T.);
#478=ADVANCED_FACE('',(#64),#452,.T.);
#479=ADVANCED_FACE('',(#65),#453,.T.);
#480=ADVANCED_FACE('',(#66),#454,.T.);
#481=ADVANCED_FACE('',(#67,#26),#455,.T.);
#482=CLOSED_SHELL('',(#456,#457,#458,#459,#460,#461,#462,#463,#464,#465,
#466,#467,#468));
#483=CLOSED_SHELL('',(#469,#470,#471,#472,#473,#474,#475,#476,#477,#478,
#479,#480,#481));
#484=DERIVED_UNIT_ELEMENT(#486,1.);
#485=DERIVED_UNIT_ELEMENT(#812,-3.);
#486=(
MASS_UNIT()
NAMED_UNIT(*)
SI_UNIT(.KILO.,.GRAM.)
);
#487=DERIVED_UNIT((#484,#485));
#488=MEASURE_REPRESENTATION_ITEM('density measure',
POSITIVE_RATIO_MEASURE(7850.),#487);
#489=PROPERTY_DEFINITION_REPRESENTATION(#494,#491);
#490=PROPERTY_DEFINITION_REPRESENTATION(#495,#492);
#491=REPRESENTATION('material name',(#493),#809);
#492=REPRESENTATION('density',(#488),#809);
#493=DESCRIPTIVE_REPRESENTATION_ITEM('Steel','Steel');
#494=PROPERTY_DEFINITION('material property','material name',#819);
#495=PROPERTY_DEFINITION('material property','density of part',#819);
#496=AXIS2_PLACEMENT_3D('',#672,#538,#539);
#497=AXIS2_PLACEMENT_3D('',#673,#540,#541);
#498=AXIS2_PLACEMENT_3D('',#682,#546,#547);
#499=AXIS2_PLACEMENT_3D('',#688,#551,#552);
#500=AXIS2_PLACEMENT_3D('',#694,#556,#557);
#501=AXIS2_PLACEMENT_3D('',#700,#561,#562);
#502=AXIS2_PLACEMENT_3D('',#709,#567,#568);
#503=AXIS2_PLACEMENT_3D('',#710,#569,#570);
#504=AXIS2_PLACEMENT_3D('',#712,#571,#572);
#505=AXIS2_PLACEMENT_3D('',#714,#573,#574);
#506=AXIS2_PLACEMENT_3D('',#715,#575,#576);
#507=AXIS2_PLACEMENT_3D('',#716,#577,#578);
#508=AXIS2_PLACEMENT_3D('',#719,#579,#580);
#509=AXIS2_PLACEMENT_3D('',#721,#582,#583);
#510=AXIS2_PLACEMENT_3D('',#722,#584,#585);
#511=AXIS2_PLACEMENT_3D('',#723,#586,#587);
#512=AXIS2_PLACEMENT_3D('',#724,#588,#589);
#513=AXIS2_PLACEMENT_3D('',#728,#592,#593);
#514=AXIS2_PLACEMENT_3D('',#732,#596,#597);
#515=AXIS2_PLACEMENT_3D('',#736,#600,#601);
#516=AXIS2_PLACEMENT_3D('',#738,#603,#604);
#517=AXIS2_PLACEMENT_3D('',#739,#605,#606);
#518=AXIS2_PLACEMENT_3D('',#757,#615,#616);
#519=AXIS2_PLACEMENT_3D('',#758,#617,#618);
#520=AXIS2_PLACEMENT_3D('',#764,#622,#623);
#521=AXIS2_PLACEMENT_3D('',#768,#626,#627);
#522=AXIS2_PLACEMENT_3D('',#772,#630,#631);
#523=AXIS2_PLACEMENT_3D('',#776,#634,#635);
#524=AXIS2_PLACEMENT_3D('',#779,#636,#637);
#525=AXIS2_PLACEMENT_3D('',#781,#638,#639);
#526=AXIS2_PLACEMENT_3D('',#783,#640,#641);
#527=AXIS2_PLACEMENT_3D('',#784,#642,#643);
#528=AXIS2_PLACEMENT_3D('',#785,#644,#645);
#529=AXIS2_PLACEMENT_3D('',#786,#646,#647);
#530=AXIS2_PLACEMENT_3D('',#788,#648,#649);
#531=AXIS2_PLACEMENT_3D('',#790,#651,#652);
#532=AXIS2_PLACEMENT_3D('',#791,#653,#654);
#533=AXIS2_PLACEMENT_3D('',#792,#655,#656);
#534=AXIS2_PLACEMENT_3D('',#796,#659,#660);
#535=AXIS2_PLACEMENT_3D('',#800,#663,#664);
#536=AXIS2_PLACEMENT_3D('',#804,#667,#668);
#537=AXIS2_PLACEMENT_3D('',#806,#670,#671);
#538=DIRECTION('axis',(0.,0.,1.));
#539=DIRECTION('refdir',(1.,0.,0.));
#540=DIRECTION('center_axis',(1.,0.,0.));
#541=DIRECTION('ref_axis',(0.,0.,-1.));
#542=DIRECTION('',(0.,0.,-1.));
#543=DIRECTION('',(0.,1.,0.));
#544=DIRECTION('',(0.,0.,1.));
#545=DIRECTION('',(0.,1.,0.));
#546=DIRECTION('center_axis',(0.759256602364266,0.,-0.650791373457171));
#547=DIRECTION('ref_axis',(-0.650791373457171,0.,-0.759256602364266));
#548=DIRECTION('',(-0.650791373457171,0.,-0.759256602364266));
#549=DIRECTION('',(0.650791373457171,0.,0.759256602364266));
#550=DIRECTION('',(0.,1.,0.));
#551=DIRECTION('center_axis',(5.07530525542929E-17,0.,-1.));
#552=DIRECTION('ref_axis',(-1.,0.,-5.07530525542929E-17));
#553=DIRECTION('',(-1.,0.,-5.07530525542929E-17));
#554=DIRECTION('',(1.,0.,5.07530525542929E-17));
#555=DIRECTION('',(0.,1.,0.));
#556=DIRECTION('center_axis',(-0.759256602364465,0.,-0.650791373456938));
#557=DIRECTION('ref_axis',(-0.650791373456938,0.,0.759256602364465));
#558=DIRECTION('',(-0.650791373456938,0.,0.759256602364465));
#559=DIRECTION('',(0.650791373456938,0.,-0.759256602364465));
#560=DIRECTION('',(0.,1.,0.));
#561=DIRECTION('center_axis',(0.,1.,0.));
#562=DIRECTION('ref_axis',(1.,0.,0.));
#563=DIRECTION('',(-0.650791373456537,0.,-0.75925660236481));
#564=DIRECTION('',(0.,0.,-1.));
#565=DIRECTION('',(-0.650791373457811,0.,0.759256602363717));
#566=DIRECTION('',(-1.,0.,0.));
#567=DIRECTION('center_axis',(0.,1.,0.));
#568=DIRECTION('ref_axis',(1.,0.,0.));
#569=DIRECTION('center_axis',(0.,1.,0.));
#570=DIRECTION('ref_axis',(0.,0.,1.));
#571=DIRECTION('center_axis',(0.,1.,0.));
#572=DIRECTION('ref_axis',(1.,0.,0.));
#573=DIRECTION('center_axis',(1.,0.,-1.22464679914735E-16));
#574=DIRECTION('ref_axis',(-1.22464679914735E-16,0.,-1.));
#575=DIRECTION('center_axis',(0.,-1.,0.));
#576=DIRECTION('ref_axis',(0.,0.,1.));
#577=DIRECTION('center_axis',(0.,1.,0.));
#578=DIRECTION('ref_axis',(1.,0.,0.));
#579=DIRECTION('center_axis',(0.,-1.,0.));
#580=DIRECTION('ref_axis',(1.,0.,0.));
#581=DIRECTION('',(0.,-1.,0.));
#582=DIRECTION('center_axis',(0.,-1.,0.));
#583=DIRECTION('ref_axis',(1.,0.,0.));
#584=DIRECTION('center_axis',(0.,1.,0.));
#585=DIRECTION('ref_axis',(0.,0.,1.));
#586=DIRECTION('center_axis',(-1.,0.,1.22464679914735E-16));
#587=DIRECTION('ref_axis',(-1.22464679914735E-16,0.,-1.));
#588=DIRECTION('center_axis',(-1.,0.,0.));
#589=DIRECTION('ref_axis',(0.,0.,1.));
#590=DIRECTION('',(0.,0.,1.));
#591=DIRECTION('',(0.,-1.,0.));
#592=DIRECTION('center_axis',(-0.75925660236481,0.,0.650791373456537));
#593=DIRECTION('ref_axis',(0.650791373456537,0.,0.75925660236481));
#594=DIRECTION('',(0.650791373456537,0.,0.75925660236481));
#595=DIRECTION('',(0.,1.,0.));
#596=DIRECTION('center_axis',(0.,0.,1.));
#597=DIRECTION('ref_axis',(1.,0.,0.));
#598=DIRECTION('',(1.,0.,0.));
#599=DIRECTION('',(0.,1.,0.));
#600=DIRECTION('center_axis',(0.759256602363717,0.,0.650791373457811));
#601=DIRECTION('ref_axis',(0.650791373457811,0.,-0.759256602363717));
#602=DIRECTION('',(0.650791373457811,0.,-0.759256602363717));
#603=DIRECTION('center_axis',(0.,1.,0.));
#604=DIRECTION('ref_axis',(0.,0.,1.));
#605=DIRECTION('center_axis',(0.,1.,0.));
#606=DIRECTION('ref_axis',(0.,0.,1.));
#607=DIRECTION('',(0.,0.,1.));
#608=DIRECTION('',(-0.650791373456938,0.,0.759256602364465));
#609=DIRECTION('',(-1.,0.,-5.07530525542929E-17));
#610=DIRECTION('',(-0.650791373457171,0.,-0.759256602364266));
#611=DIRECTION('',(0.,0.,-1.));
#612=DIRECTION('',(0.650791373457811,0.,-0.759256602363717));
#613=DIRECTION('',(1.,0.,0.));
#614=DIRECTION('',(0.650791373456537,0.,0.75925660236481));
#615=DIRECTION('center_axis',(0.,-1.,0.));
#616=DIRECTION('ref_axis',(0.,0.,1.));
#617=DIRECTION('center_axis',(1.,0.,0.));
#618=DIRECTION('ref_axis',(0.,0.,-1.));
#619=DIRECTION('',(0.,1.,0.));
#620=DIRECTION('',(0.,0.,-1.));
#621=DIRECTION('',(0.,1.,0.));
#622=DIRECTION('center_axis',(0.759256602364266,0.,-0.650791373457171));
#623=DIRECTION('ref_axis',(-0.650791373457171,0.,-0.759256602364266));
#624=DIRECTION('',(0.,1.,0.));
#625=DIRECTION('',(-0.650791373457171,0.,-0.759256602364266));
#626=DIRECTION('center_axis',(5.07530525542929E-17,0.,-1.));
#627=DIRECTION('ref_axis',(-1.,0.,-5.07530525542929E-17));
#628=DIRECTION('',(0.,1.,0.));
#629=DIRECTION('',(-1.,0.,-5.07530525542929E-17));
#630=DIRECTION('center_axis',(-0.759256602364465,0.,-0.650791373456938));
#631=DIRECTION('ref_axis',(-0.650791373456938,0.,0.759256602364465));
#632=DIRECTION('',(0.,1.,0.));
#633=DIRECTION('',(-0.650791373456938,0.,0.759256602364465));
#634=DIRECTION('center_axis',(0.,-1.,0.));
#635=DIRECTION('ref_axis',(0.,0.,-1.));
#636=DIRECTION('center_axis',(0.,1.,0.));
#637=DIRECTION('ref_axis',(1.,0.,0.));
#638=DIRECTION('center_axis',(-1.,0.,-1.22464679914735E-16));
#639=DIRECTION('ref_axis',(-1.22464679914735E-16,0.,1.));
#640=DIRECTION('center_axis',(0.,-1.,0.));
#641=DIRECTION('ref_axis',(1.,0.,0.));
#642=DIRECTION('center_axis',(0.,-1.,0.));
#643=DIRECTION('ref_axis',(1.,0.,0.));
#644=DIRECTION('center_axis',(0.,1.,0.));
#645=DIRECTION('ref_axis',(1.,0.,0.));
#646=DIRECTION('center_axis',(0.,1.,0.));
#647=DIRECTION('ref_axis',(1.,0.,0.));
#648=DIRECTION('center_axis',(0.,-1.,0.));
#649=DIRECTION('ref_axis',(1.,0.,0.));
#650=DIRECTION('',(0.,-1.,0.));
#651=DIRECTION('center_axis',(0.,1.,0.));
#652=DIRECTION('ref_axis',(0.,0.,1.));
#653=DIRECTION('center_axis',(1.,0.,-1.22464679914735E-16));
#654=DIRECTION('ref_axis',(-1.22464679914735E-16,0.,-1.));
#655=DIRECTION('center_axis',(-1.,0.,0.));
#656=DIRECTION('ref_axis',(0.,0.,1.));
#657=DIRECTION('',(0.,-1.,0.));
#658=DIRECTION('',(0.,0.,1.));
#659=DIRECTION('center_axis',(0.759256602363717,0.,0.650791373457811));
#660=DIRECTION('ref_axis',(0.650791373457811,0.,-0.759256602363717));
#661=DIRECTION('',(0.650791373457811,0.,-0.759256602363717));
#662=DIRECTION('',(0.,1.,0.));
#663=DIRECTION('center_axis',(0.,0.,1.));
#664=DIRECTION('ref_axis',(1.,0.,0.));
#665=DIRECTION('',(1.,0.,0.));
#666=DIRECTION('',(0.,1.,0.));
#667=DIRECTION('center_axis',(-0.75925660236481,0.,0.650791373456537));
#668=DIRECTION('ref_axis',(0.650791373456537,0.,0.75925660236481));
#669=DIRECTION('',(0.650791373456537,0.,0.75925660236481));
#670=DIRECTION('center_axis',(0.,1.,0.));
#671=DIRECTION('ref_axis',(1.,0.,0.));
#672=CARTESIAN_POINT('',(0.,0.,0.));
#673=CARTESIAN_POINT('Origin',(87.5000000000021,0.,72.7222301929138));
#674=CARTESIAN_POINT('',(87.4999999999983,0.,72.7222301929138));
#675=CARTESIAN_POINT('',(87.4999999999986,0.,-72.7222301929113));
#676=CARTESIAN_POINT('',(87.5000000000021,0.,36.3611150964569));
#677=CARTESIAN_POINT('',(87.4999999999983,-2.5,72.7222301929138));
#678=CARTESIAN_POINT('',(87.4999999999983,0.,72.7222301929138));
#679=CARTESIAN_POINT('',(87.4999999999986,-2.5,-72.7222301929113));
#680=CARTESIAN_POINT('',(87.5000000000021,-2.5,-74.9999999999999));
#681=CARTESIAN_POINT('',(87.4999999999986,0.,-72.7222301929113));
#682=CARTESIAN_POINT('Origin',(87.4999999999986,0.,-72.7222301929113));
#683=CARTESIAN_POINT('',(85.5476258796315,0.,-74.999999999999));
#684=CARTESIAN_POINT('',(86.9372568711295,0.,-73.3787638432565));
#685=CARTESIAN_POINT('',(85.5476258796315,-2.5,-74.999999999999));
#686=CARTESIAN_POINT('',(87.4999999999986,-2.5,-72.7222301929113));
#687=CARTESIAN_POINT('',(85.5476258796315,0.,-74.999999999999));
#688=CARTESIAN_POINT('Origin',(85.5476258796315,0.,-74.9999999999999));
#689=CARTESIAN_POINT('',(-85.547625879629,0.,-75.0000000000003));
#690=CARTESIAN_POINT('',(42.7738129398168,0.,-74.9999999999999));
#691=CARTESIAN_POINT('',(-85.547625879629,-2.5,-75.0000000000003));
#692=CARTESIAN_POINT('',(-87.4999999999979,-2.5,-74.9999999999999));
#693=CARTESIAN_POINT('',(-85.547625879629,0.,-75.0000000000003));
#694=CARTESIAN_POINT('Origin',(-85.547625879629,0.,-75.0000000000003));
#695=CARTESIAN_POINT('',(-87.4999999999978,0.,-72.7222301929092));
#696=CARTESIAN_POINT('',(-85.9610698109546,0.,-74.5176487467883));
#697=CARTESIAN_POINT('',(-87.4999999999978,-2.5,-72.7222301929092));
#698=CARTESIAN_POINT('',(-87.4999999999978,-2.5,-72.7222301929092));
#699=CARTESIAN_POINT('',(-87.4999999999978,0.,-72.7222301929092));
#700=CARTESIAN_POINT('Origin',(2.06057393370429E-12,-2.5,-9.76996261670138E-14));
#701=CARTESIAN_POINT('',(-85.5476258796294,-2.5,75.0000000000001));
#702=CARTESIAN_POINT('',(-87.4999999999978,-2.5,72.722230192907));
#703=CARTESIAN_POINT('',(-87.4999999999978,-2.5,72.722230192907));
#704=CARTESIAN_POINT('',(-87.4999999999979,-2.5,75.0000000000001));
#705=CARTESIAN_POINT('',(85.5476258796315,-2.5,74.9999999999973));
#706=CARTESIAN_POINT('',(87.4999999999983,-2.5,72.7222301929138));
#707=CARTESIAN_POINT('',(87.5000000000021,-2.5,75.0000000000001));
#708=CARTESIAN_POINT('',(-50.,-2.5,6.12323399573677E-15));
#709=CARTESIAN_POINT('Origin',(0.,-2.5,0.));
#710=CARTESIAN_POINT('Origin',(0.,0.,0.));
#711=CARTESIAN_POINT('',(-6.13343936291884E-15,-0.49300649116848,-50.0833331470688));
#712=CARTESIAN_POINT('Origin',(0.,-0.49300649116848,0.));
#713=CARTESIAN_POINT('',(6.18446619882919E-15,0.,-50.4999988824129));
#714=CARTESIAN_POINT('Origin',(-6.12323385887182E-15,0.,-49.9999988824129));
#715=CARTESIAN_POINT('Origin',(0.,0.,0.));
#716=CARTESIAN_POINT('Origin',(0.,0.,0.));
#717=CARTESIAN_POINT('',(-50.,-0.591607789402177,-6.12323399573677E-15));
#718=CARTESIAN_POINT('',(-6.12323399573677E-15,-0.591607789402177,-50.));
#719=CARTESIAN_POINT('Origin',(0.,-0.591607789402177,0.));
#720=CARTESIAN_POINT('',(-50.,0.,6.12323399573677E-15));
#721=CARTESIAN_POINT('Origin',(0.,-0.591607789402177,0.));
#722=CARTESIAN_POINT('Origin',(0.,-0.591607789402177,0.));
#723=CARTESIAN_POINT('Origin',(-6.13548046372824E-15,-0.591607789402177,
-50.1));
#724=CARTESIAN_POINT('Origin',(-87.4999999999979,0.,-72.7222301929092));
#725=CARTESIAN_POINT('',(-87.4999999999978,0.,72.722230192907));
#726=CARTESIAN_POINT('',(-87.4999999999979,0.,-36.3611150964547));
#727=CARTESIAN_POINT('',(-87.4999999999978,0.,72.722230192907));
#728=CARTESIAN_POINT('Origin',(-87.4999999999978,0.,72.722230192907));
#729=CARTESIAN_POINT('',(-85.5476258796294,0.,75.0000000000001));
#730=CARTESIAN_POINT('',(-86.9372568711585,0.,73.3787638432186));
#731=CARTESIAN_POINT('',(-85.5476258796294,0.,75.0000000000001));
#732=CARTESIAN_POINT('Origin',(-85.5476258796294,0.,75.0000000000001));
#733=CARTESIAN_POINT('',(85.5476258796315,0.,74.9999999999973));
#734=CARTESIAN_POINT('',(-42.7738129398137,0.,75.0000000000001));
#735=CARTESIAN_POINT('',(85.5476258796315,0.,74.9999999999973));
#736=CARTESIAN_POINT('Origin',(85.5476258796315,0.,74.9999999999973));
#737=CARTESIAN_POINT('',(85.9610698109147,0.,74.5176487468358));
#738=CARTESIAN_POINT('Origin',(2.06057393370429E-12,0.,-9.76996261670138E-14));
#739=CARTESIAN_POINT('Origin',(2.06057393370429E-12,0.,-9.76996261670138E-14));
#740=CARTESIAN_POINT('',(-87.4999999999978,0.,-72.7222301929092));
#741=CARTESIAN_POINT('',(-87.4999999999978,0.,72.722230192907));
#742=CARTESIAN_POINT('',(-87.4999999999979,0.,-36.3611150964547));
#743=CARTESIAN_POINT('',(-85.547625879629,0.,-75.0000000000003));
#744=CARTESIAN_POINT('',(-85.9610698109546,0.,-74.5176487467883));
#745=CARTESIAN_POINT('',(85.5476258796315,0.,-74.999999999999));
#746=CARTESIAN_POINT('',(42.7738129398168,0.,-74.9999999999999));
#747=CARTESIAN_POINT('',(87.4999999999986,0.,-72.7222301929113));
#748=CARTESIAN_POINT('',(86.9372568711295,0.,-73.3787638432565));
#749=CARTESIAN_POINT('',(87.4999999999983,0.,72.7222301929138));
#750=CARTESIAN_POINT('',(87.5000000000021,0.,36.3611150964569));
#751=CARTESIAN_POINT('',(85.5476258796315,0.,74.9999999999973));
#752=CARTESIAN_POINT('',(85.9610698109147,0.,74.5176487468358));
#753=CARTESIAN_POINT('',(-85.5476258796294,0.,75.0000000000001));
#754=CARTESIAN_POINT('',(-42.7738129398137,0.,75.0000000000001));
#755=CARTESIAN_POINT('',(-86.9372568711585,0.,73.3787638432186));
#756=CARTESIAN_POINT('',(6.18446619882919E-15,0.,-50.4999988824129));
#757=CARTESIAN_POINT('Origin',(0.,0.,0.));
#758=CARTESIAN_POINT('Origin',(87.5000000000021,0.,72.7222301929138));
#759=CARTESIAN_POINT('',(87.4999999999986,2.5,-72.7222301929113));
#760=CARTESIAN_POINT('',(87.4999999999986,0.,-72.7222301929113));
#761=CARTESIAN_POINT('',(87.4999999999983,2.5,72.7222301929138));
#762=CARTESIAN_POINT('',(87.5000000000021,2.5,-74.9999999999999));
#763=CARTESIAN_POINT('',(87.4999999999983,0.,72.7222301929138));
#764=CARTESIAN_POINT('Origin',(87.4999999999986,0.,-72.7222301929113));
#765=CARTESIAN_POINT('',(85.5476258796315,2.5,-74.999999999999));
#766=CARTESIAN_POINT('',(85.5476258796315,0.,-74.999999999999));
#767=CARTESIAN_POINT('',(87.4999999999986,2.5,-72.7222301929113));
#768=CARTESIAN_POINT('Origin',(85.5476258796315,0.,-74.9999999999999));
#769=CARTESIAN_POINT('',(-85.547625879629,2.5,-75.0000000000003));
#770=CARTESIAN_POINT('',(-85.547625879629,0.,-75.0000000000003));
#771=CARTESIAN_POINT('',(-87.4999999999979,2.5,-74.9999999999999));
#772=CARTESIAN_POINT('Origin',(-85.547625879629,0.,-75.0000000000003));
#773=CARTESIAN_POINT('',(-87.4999999999978,2.5,-72.7222301929092));
#774=CARTESIAN_POINT('',(-87.4999999999978,0.,-72.7222301929092));
#775=CARTESIAN_POINT('',(-87.4999999999978,2.5,-72.7222301929092));
#776=CARTESIAN_POINT('Origin',(0.,0.591607789402177,0.));
#777=CARTESIAN_POINT('',(-50.,0.591607789402177,6.12323399573677E-15));
#778=CARTESIAN_POINT('',(-6.12323399573677E-15,0.591607789402177,50.));
#779=CARTESIAN_POINT('Origin',(0.,0.591607789402177,0.));
#780=CARTESIAN_POINT('',(-6.13343936291884E-15,0.49300649116848,50.0833331470688));
#781=CARTESIAN_POINT('Origin',(-6.13548046372824E-15,0.591607789402177,
50.1));
#782=CARTESIAN_POINT('',(-6.13343936291884E-15,0.49300649116848,-50.0833331470688));
#783=CARTESIAN_POINT('Origin',(0.,0.49300649116848,0.));
#784=CARTESIAN_POINT('Origin',(0.,0.49300649116848,0.));
#785=CARTESIAN_POINT('Origin',(0.,0.591607789402177,0.));
#786=CARTESIAN_POINT('Origin',(0.,0.,0.));
#787=CARTESIAN_POINT('',(-50.,2.5,6.12323399573677E-15));
#788=CARTESIAN_POINT('Origin',(0.,2.5,0.));
#789=CARTESIAN_POINT('',(-50.,0.,6.12323399573677E-15));
#790=CARTESIAN_POINT('Origin',(0.,0.,0.));
#791=CARTESIAN_POINT('Origin',(-6.12323385887182E-15,0.,-49.9999988824129));
#792=CARTESIAN_POINT('Origin',(-87.4999999999979,0.,-72.7222301929092));
#793=CARTESIAN_POINT('',(-87.4999999999978,2.5,72.722230192907));
#794=CARTESIAN_POINT('',(-87.4999999999978,0.,72.722230192907));
#795=CARTESIAN_POINT('',(-87.4999999999979,2.5,75.0000000000001));
#796=CARTESIAN_POINT('Origin',(85.5476258796315,0.,74.9999999999973));
#797=CARTESIAN_POINT('',(85.5476258796315,2.5,74.9999999999973));
#798=CARTESIAN_POINT('',(87.4999999999983,2.5,72.7222301929138));
#799=CARTESIAN_POINT('',(85.5476258796315,0.,74.9999999999973));
#800=CARTESIAN_POINT('Origin',(-85.5476258796294,0.,75.0000000000001));
#801=CARTESIAN_POINT('',(-85.5476258796294,2.5,75.0000000000001));
#802=CARTESIAN_POINT('',(87.5000000000021,2.5,75.0000000000001));
#803=CARTESIAN_POINT('',(-85.5476258796294,0.,75.0000000000001));
#804=CARTESIAN_POINT('Origin',(-87.4999999999978,0.,72.722230192907));
#805=CARTESIAN_POINT('',(-87.4999999999978,2.5,72.722230192907));
#806=CARTESIAN_POINT('Origin',(2.06057393370429E-12,2.5,-9.76996261670138E-14));
#807=UNCERTAINTY_MEASURE_WITH_UNIT(LENGTH_MEASURE(0.01),#811,
'DISTANCE_ACCURACY_VALUE',
'Maximum model space distance between geometric entities at asserted c
onnectivities');
#808=UNCERTAINTY_MEASURE_WITH_UNIT(LENGTH_MEASURE(0.01),#811,
'DISTANCE_ACCURACY_VALUE',
'Maximum model space distance between geometric entities at asserted c
onnectivities');
#809=(
GEOMETRIC_REPRESENTATION_CONTEXT(3)
GLOBAL_UNCERTAINTY_ASSIGNED_CONTEXT((#807))
GLOBAL_UNIT_ASSIGNED_CONTEXT((#811,#813,#814))
REPRESENTATION_CONTEXT('','3D')
);
#810=(
GEOMETRIC_REPRESENTATION_CONTEXT(3)
GLOBAL_UNCERTAINTY_ASSIGNED_CONTEXT((#808))
GLOBAL_UNIT_ASSIGNED_CONTEXT((#811,#813,#814))
REPRESENTATION_CONTEXT('','3D')
);
#811=(
LENGTH_UNIT()
NAMED_UNIT(*)
SI_UNIT(.MILLI.,.METRE.)
);
#812=(
LENGTH_UNIT()
NAMED_UNIT(*)
SI_UNIT($,.METRE.)
);
#813=(
NAMED_UNIT(*)
PLANE_ANGLE_UNIT()
SI_UNIT($,.RADIAN.)
);
#814=(
NAMED_UNIT(*)
SI_UNIT($,.STERADIAN.)
SOLID_ANGLE_UNIT()
);
#815=SHAPE_DEFINITION_REPRESENTATION(#816,#817);
#816=PRODUCT_DEFINITION_SHAPE('',$,#819);
#817=SHAPE_REPRESENTATION('',(#496),#809);
#818=PRODUCT_DEFINITION_CONTEXT('part definition',#823,'design');
#819=PRODUCT_DEFINITION('2026-06-29-18-31-42-518',
'Condensor lens mount',#820,#818);
#820=PRODUCT_DEFINITION_FORMATION('',$,#825);
#821=PRODUCT_RELATED_PRODUCT_CATEGORY('Condensor lens mount',
'Condensor lens mount',(#825));
#822=APPLICATION_PROTOCOL_DEFINITION('international standard',
'automotive_design',2009,#823);
#823=APPLICATION_CONTEXT(
'Core Data for Automotive Mechanical Design Process');
#824=PRODUCT_CONTEXT('part definition',#823,'mechanical');
#825=PRODUCT('2026-06-29-18-31-42-518','Condensor lens mount',$,(#824));
#826=PRESENTATION_STYLE_ASSIGNMENT((#827));
#827=SURFACE_STYLE_USAGE(.BOTH.,#828);
#828=SURFACE_SIDE_STYLE('',(#829));
#829=SURFACE_STYLE_FILL_AREA(#830);
#830=FILL_AREA_STYLE('Plastic - Matte (White)',(#831));
#831=FILL_AREA_STYLE_COLOUR('Plastic - Matte (White)',#832);
#832=COLOUR_RGB('Plastic - Matte (White)',0.964705882352941,0.964705882352941,
0.952941176470588);
ENDSEC;
END-ISO-10303-21;
