ISO-10303-21;
HEADER;
/* Generated by software containing ST-Developer
 * from STEP Tools, Inc. (www.steptools.com) 
 */

FILE_DESCRIPTION(
/* description */ (''),
/* implementation_level */ '2;1');

FILE_NAME(
/* name */ 'LCD mount.step',
/* time_stamp */ '2026-09-03T18:07:16+02:00',
/* author */ (''),
/* organization */ (''),
/* preprocessor_version */ 'ST-DEVELOPER v20.1',
/* originating_system */ 'Autodesk Translation Framework v15.8.0.0',
/* authorisation */ '');

FILE_SCHEMA (('AUTOMOTIVE_DESIGN { 1 0 10303 214 3 1 1 }'));
ENDSEC;

DATA;
#10=MECHANICAL_DESIGN_GEOMETRIC_PRESENTATION_REPRESENTATION('',(#62,#63,
#64,#65),#1568);
#11=SHAPE_REPRESENTATION_RELATIONSHIP('SRR','None',#1575,#12);
#12=ADVANCED_BREP_SHAPE_REPRESENTATION('',(#66,#67,#68,#69),#1567);
#13=B_SPLINE_CURVE_WITH_KNOTS('',3,(#1442,#1443,#1444,#1445,#1446,#1447,
#1448),.UNSPECIFIED.,.F.,.F.,(4,3,4),(0.,0.00674920347624604,0.0157481414445741),
 .UNSPECIFIED.);
#14=B_SPLINE_CURVE_WITH_KNOTS('',3,(#1452,#1453,#1454,#1455),
 .UNSPECIFIED.,.F.,.F.,(4,4),(0.00666666590505169,0.183333259738135),
 .UNSPECIFIED.);
#15=B_SPLINE_CURVE_WITH_KNOTS('',3,(#1458,#1459,#1460,#1461),
 .UNSPECIFIED.,.F.,.F.,(4,4),(0.00666666590505169,0.183333259738135),
 .UNSPECIFIED.);
#16=B_SPLINE_CURVE_WITH_KNOTS('',3,(#1490,#1491,#1492,#1493),
 .UNSPECIFIED.,.F.,.F.,(4,4),(-0.183333259738135,0.),.UNSPECIFIED.);
#17=B_SPLINE_CURVE_WITH_KNOTS('',3,(#1496,#1497,#1498,#1499),
 .UNSPECIFIED.,.F.,.F.,(4,4),(0.00666666590505169,0.183333259738135),
 .UNSPECIFIED.);
#18=B_SPLINE_CURVE_WITH_KNOTS('',3,(#1544,#1545,#1546,#1547),
 .UNSPECIFIED.,.F.,.F.,(4,4),(0.00666666590505169,0.183333259738135),
 .UNSPECIFIED.);
#19=B_SPLINE_CURVE_WITH_KNOTS('',3,(#1550,#1551,#1552,#1553),
 .UNSPECIFIED.,.F.,.F.,(4,4),(-0.183333259738135,0.),.UNSPECIFIED.);
#20=B_SPLINE_SURFACE_WITH_KNOTS('',3,3,((#1416,#1417,#1418,#1419,#1420),
(#1421,#1422,#1423,#1424,#1425),(#1426,#1427,#1428,#1429,#1430),(#1431,
#1432,#1433,#1434,#1435),(#1436,#1437,#1438,#1439,#1440)),.UNSPECIFIED.,
 .F.,.F.,.F.,(4,1,4),(4,1,4),(0.,0.571428571428571,1.),(-0.785398168364494,
-2.4835203893403E-9,0.785398163397453),.UNSPECIFIED.);
#21=SPHERICAL_SURFACE('',#960,0.1);
#22=TOROIDAL_SURFACE('',#954,12.15,0.1);
#23=TOROIDAL_SURFACE('',#978,11.75,0.5);
#24=CIRCLE('',#949,0.1);
#25=CIRCLE('',#950,0.0999999999999979);
#26=CIRCLE('',#952,0.1);
#27=CIRCLE('',#953,0.0999999999999979);
#28=CIRCLE('',#955,0.1);
#29=CIRCLE('',#956,12.15);
#30=CIRCLE('',#957,12.25);
#31=CIRCLE('',#959,0.0999999999999979);
#32=CIRCLE('',#961,0.100000000000004);
#33=CIRCLE('',#963,0.4);
#34=CIRCLE('',#965,0.0999999999999979);
#35=CIRCLE('',#968,12.25);
#36=CIRCLE('',#971,0.5);
#37=CIRCLE('',#972,0.5);
#38=CIRCLE('',#975,0.499999999999998);
#39=CIRCLE('',#977,0.499999999999998);
#40=CIRCLE('',#979,11.75);
#41=CIRCLE('',#982,11.75);
#42=CIRCLE('',#985,0.1);
#43=CIRCLE('',#986,0.1);
#44=CIRCLE('',#990,11.75);
#45=CIRCLE('',#991,11.75);
#46=CIRCLE('',#997,0.1);
#47=CIRCLE('',#998,0.1);
#48=CIRCLE('',#1003,11.75);
#49=CIRCLE('',#1004,11.75);
#50=CYLINDRICAL_SURFACE('',#948,0.1);
#51=CYLINDRICAL_SURFACE('',#951,0.1);
#52=CYLINDRICAL_SURFACE('',#958,0.1);
#53=CYLINDRICAL_SURFACE('',#964,0.1);
#54=CYLINDRICAL_SURFACE('',#967,12.25);
#55=CYLINDRICAL_SURFACE('',#974,0.5);
#56=CYLINDRICAL_SURFACE('',#976,0.5);
#57=CYLINDRICAL_SURFACE('',#981,11.75);
#58=CYLINDRICAL_SURFACE('',#984,0.1);
#59=CYLINDRICAL_SURFACE('',#989,11.75);
#60=CYLINDRICAL_SURFACE('',#996,0.1);
#61=CYLINDRICAL_SURFACE('',#1002,11.75);
#62=STYLED_ITEM('',(#1584),#66);
#63=STYLED_ITEM('',(#1584),#67);
#64=STYLED_ITEM('',(#1584),#68);
#65=STYLED_ITEM('',(#1584),#69);
#66=MANIFOLD_SOLID_BREP('Body1',#913);
#67=MANIFOLD_SOLID_BREP('Body2',#914);
#68=MANIFOLD_SOLID_BREP('Body3',#915);
#69=MANIFOLD_SOLID_BREP('Body4',#916);
#70=FACE_BOUND('',#144,.T.);
#71=FACE_BOUND('',#145,.T.);
#72=FACE_BOUND('',#147,.T.);
#73=FACE_BOUND('',#148,.T.);
#74=FACE_OUTER_BOUND('',#127,.T.);
#75=FACE_OUTER_BOUND('',#128,.T.);
#76=FACE_OUTER_BOUND('',#129,.T.);
#77=FACE_OUTER_BOUND('',#130,.T.);
#78=FACE_OUTER_BOUND('',#131,.T.);
#79=FACE_OUTER_BOUND('',#132,.T.);
#80=FACE_OUTER_BOUND('',#133,.T.);
#81=FACE_OUTER_BOUND('',#134,.T.);
#82=FACE_OUTER_BOUND('',#135,.T.);
#83=FACE_OUTER_BOUND('',#136,.T.);
#84=FACE_OUTER_BOUND('',#137,.T.);
#85=FACE_OUTER_BOUND('',#138,.T.);
#86=FACE_OUTER_BOUND('',#139,.T.);
#87=FACE_OUTER_BOUND('',#140,.T.);
#88=FACE_OUTER_BOUND('',#141,.T.);
#89=FACE_OUTER_BOUND('',#142,.T.);
#90=FACE_OUTER_BOUND('',#143,.T.);
#91=FACE_OUTER_BOUND('',#146,.T.);
#92=FACE_OUTER_BOUND('',#149,.T.);
#93=FACE_OUTER_BOUND('',#150,.T.);
#94=FACE_OUTER_BOUND('',#151,.T.);
#95=FACE_OUTER_BOUND('',#152,.T.);
#96=FACE_OUTER_BOUND('',#153,.T.);
#97=FACE_OUTER_BOUND('',#154,.T.);
#98=FACE_OUTER_BOUND('',#155,.T.);
#99=FACE_OUTER_BOUND('',#156,.T.);
#100=FACE_OUTER_BOUND('',#157,.T.);
#101=FACE_OUTER_BOUND('',#158,.T.);
#102=FACE_OUTER_BOUND('',#159,.T.);
#103=FACE_OUTER_BOUND('',#160,.T.);
#104=FACE_OUTER_BOUND('',#161,.T.);
#105=FACE_OUTER_BOUND('',#162,.T.);
#106=FACE_OUTER_BOUND('',#163,.T.);
#107=FACE_OUTER_BOUND('',#164,.T.);
#108=FACE_OUTER_BOUND('',#165,.T.);
#109=FACE_OUTER_BOUND('',#166,.T.);
#110=FACE_OUTER_BOUND('',#167,.T.);
#111=FACE_OUTER_BOUND('',#168,.T.);
#112=FACE_OUTER_BOUND('',#169,.T.);
#113=FACE_OUTER_BOUND('',#170,.T.);
#114=FACE_OUTER_BOUND('',#171,.T.);
#115=FACE_OUTER_BOUND('',#172,.T.);
#116=FACE_OUTER_BOUND('',#173,.T.);
#117=FACE_OUTER_BOUND('',#174,.T.);
#118=FACE_OUTER_BOUND('',#175,.T.);
#119=FACE_OUTER_BOUND('',#176,.T.);
#120=FACE_OUTER_BOUND('',#177,.T.);
#121=FACE_OUTER_BOUND('',#178,.T.);
#122=FACE_OUTER_BOUND('',#179,.T.);
#123=FACE_OUTER_BOUND('',#180,.T.);
#124=FACE_OUTER_BOUND('',#181,.T.);
#125=FACE_OUTER_BOUND('',#182,.T.);
#126=FACE_OUTER_BOUND('',#183,.T.);
#127=EDGE_LOOP('',(#573,#574,#575,#576));
#128=EDGE_LOOP('',(#577,#578,#579,#580));
#129=EDGE_LOOP('',(#581,#582,#583,#584));
#130=EDGE_LOOP('',(#585,#586,#587,#588));
#131=EDGE_LOOP('',(#589,#590,#591,#592));
#132=EDGE_LOOP('',(#593,#594,#595,#596));
#133=EDGE_LOOP('',(#597,#598,#599,#600));
#134=EDGE_LOOP('',(#601,#602,#603,#604));
#135=EDGE_LOOP('',(#605,#606,#607,#608));
#136=EDGE_LOOP('',(#609,#610,#611,#612));
#137=EDGE_LOOP('',(#613,#614,#615,#616));
#138=EDGE_LOOP('',(#617,#618,#619,#620));
#139=EDGE_LOOP('',(#621,#622,#623,#624));
#140=EDGE_LOOP('',(#625,#626,#627,#628));
#141=EDGE_LOOP('',(#629,#630,#631,#632));
#142=EDGE_LOOP('',(#633,#634,#635,#636));
#143=EDGE_LOOP('',(#637,#638,#639,#640,#641,#642,#643,#644));
#144=EDGE_LOOP('',(#645,#646,#647,#648));
#145=EDGE_LOOP('',(#649,#650,#651,#652));
#146=EDGE_LOOP('',(#653,#654,#655,#656,#657,#658,#659,#660));
#147=EDGE_LOOP('',(#661,#662,#663,#664));
#148=EDGE_LOOP('',(#665,#666,#667,#668));
#149=EDGE_LOOP('',(#669,#670,#671,#672));
#150=EDGE_LOOP('',(#673,#674,#675,#676));
#151=EDGE_LOOP('',(#677,#678,#679,#680));
#152=EDGE_LOOP('',(#681,#682,#683,#684));
#153=EDGE_LOOP('',(#685,#686,#687));
#154=EDGE_LOOP('',(#688,#689,#690,#691));
#155=EDGE_LOOP('',(#692,#693,#694,#695));
#156=EDGE_LOOP('',(#696,#697,#698,#699));
#157=EDGE_LOOP('',(#700,#701,#702,#703));
#158=EDGE_LOOP('',(#704,#705,#706,#707));
#159=EDGE_LOOP('',(#708,#709,#710,#711,#712));
#160=EDGE_LOOP('',(#713,#714,#715,#716));
#161=EDGE_LOOP('',(#717,#718,#719,#720,#721,#722));
#162=EDGE_LOOP('',(#723,#724,#725,#726));
#163=EDGE_LOOP('',(#727,#728,#729,#730));
#164=EDGE_LOOP('',(#731,#732,#733,#734));
#165=EDGE_LOOP('',(#735,#736,#737,#738));
#166=EDGE_LOOP('',(#739,#740,#741,#742));
#167=EDGE_LOOP('',(#743,#744,#745,#746,#747,#748,#749,#750));
#168=EDGE_LOOP('',(#751,#752,#753,#754));
#169=EDGE_LOOP('',(#755,#756,#757,#758,#759));
#170=EDGE_LOOP('',(#760,#761,#762,#763));
#171=EDGE_LOOP('',(#764,#765,#766,#767));
#172=EDGE_LOOP('',(#768,#769,#770,#771));
#173=EDGE_LOOP('',(#772,#773,#774,#775,#776));
#174=EDGE_LOOP('',(#777,#778,#779,#780,#781));
#175=EDGE_LOOP('',(#782,#783,#784,#785,#786));
#176=EDGE_LOOP('',(#787,#788,#789,#790));
#177=EDGE_LOOP('',(#791,#792,#793,#794,#795));
#178=EDGE_LOOP('',(#796,#797,#798,#799));
#179=EDGE_LOOP('',(#800,#801,#802,#803,#804));
#180=EDGE_LOOP('',(#805,#806,#807,#808));
#181=EDGE_LOOP('',(#809,#810,#811,#812));
#182=EDGE_LOOP('',(#813,#814,#815,#816,#817));
#183=EDGE_LOOP('',(#818,#819,#820,#821,#822));
#184=LINE('',#1262,#276);
#185=LINE('',#1264,#277);
#186=LINE('',#1266,#278);
#187=LINE('',#1267,#279);
#188=LINE('',#1270,#280);
#189=LINE('',#1272,#281);
#190=LINE('',#1273,#282);
#191=LINE('',#1276,#283);
#192=LINE('',#1278,#284);
#193=LINE('',#1279,#285);
#194=LINE('',#1281,#286);
#195=LINE('',#1282,#287);
#196=LINE('',#1286,#288);
#197=LINE('',#1288,#289);
#198=LINE('',#1290,#290);
#199=LINE('',#1291,#291);
#200=LINE('',#1294,#292);
#201=LINE('',#1296,#293);
#202=LINE('',#1297,#294);
#203=LINE('',#1300,#295);
#204=LINE('',#1302,#296);
#205=LINE('',#1303,#297);
#206=LINE('',#1305,#298);
#207=LINE('',#1306,#299);
#208=LINE('',#1310,#300);
#209=LINE('',#1312,#301);
#210=LINE('',#1314,#302);
#211=LINE('',#1315,#303);
#212=LINE('',#1318,#304);
#213=LINE('',#1320,#305);
#214=LINE('',#1321,#306);
#215=LINE('',#1324,#307);
#216=LINE('',#1326,#308);
#217=LINE('',#1327,#309);
#218=LINE('',#1330,#310);
#219=LINE('',#1332,#311);
#220=LINE('',#1333,#312);
#221=LINE('',#1336,#313);
#222=LINE('',#1338,#314);
#223=LINE('',#1339,#315);
#224=LINE('',#1342,#316);
#225=LINE('',#1344,#317);
#226=LINE('',#1345,#318);
#227=LINE('',#1348,#319);
#228=LINE('',#1350,#320);
#229=LINE('',#1351,#321);
#230=LINE('',#1353,#322);
#231=LINE('',#1354,#323);
#232=LINE('',#1362,#324);
#233=LINE('',#1365,#325);
#234=LINE('',#1371,#326);
#235=LINE('',#1374,#327);
#236=LINE('',#1384,#328);
#237=LINE('',#1385,#329);
#238=LINE('',#1390,#330);
#239=LINE('',#1393,#331);
#240=LINE('',#1396,#332);
#241=LINE('',#1400,#333);
#242=LINE('',#1401,#334);
#243=LINE('',#1404,#335);
#244=LINE('',#1408,#336);
#245=LINE('',#1409,#337);
#246=LINE('',#1412,#338);
#247=LINE('',#1414,#339);
#248=LINE('',#1457,#340);
#249=LINE('',#1466,#341);
#250=LINE('',#1472,#342);
#251=LINE('',#1473,#343);
#252=LINE('',#1482,#344);
#253=LINE('',#1485,#345);
#254=LINE('',#1488,#346);
#255=LINE('',#1495,#347);
#256=LINE('',#1502,#348);
#257=LINE('',#1503,#349);
#258=LINE('',#1509,#350);
#259=LINE('',#1512,#351);
#260=LINE('',#1514,#352);
#261=LINE('',#1515,#353);
#262=LINE('',#1517,#354);
#263=LINE('',#1518,#355);
#264=LINE('',#1526,#356);
#265=LINE('',#1529,#357);
#266=LINE('',#1532,#358);
#267=LINE('',#1534,#359);
#268=LINE('',#1536,#360);
#269=LINE('',#1537,#361);
#270=LINE('',#1540,#362);
#271=LINE('',#1541,#363);
#272=LINE('',#1549,#364);
#273=LINE('',#1558,#365);
#274=LINE('',#1561,#366);
#275=LINE('',#1562,#367);
#276=VECTOR('',#1012,10.);
#277=VECTOR('',#1013,10.);
#278=VECTOR('',#1014,10.);
#279=VECTOR('',#1015,10.);
#280=VECTOR('',#1018,10.);
#281=VECTOR('',#1019,10.);
#282=VECTOR('',#1020,10.);
#283=VECTOR('',#1023,10.);
#284=VECTOR('',#1024,10.);
#285=VECTOR('',#1025,10.);
#286=VECTOR('',#1028,10.);
#287=VECTOR('',#1029,10.);
#288=VECTOR('',#1032,10.);
#289=VECTOR('',#1033,10.);
#290=VECTOR('',#1034,10.);
#291=VECTOR('',#1035,10.);
#292=VECTOR('',#1038,10.);
#293=VECTOR('',#1039,10.);
#294=VECTOR('',#1040,10.);
#295=VECTOR('',#1043,10.);
#296=VECTOR('',#1044,10.);
#297=VECTOR('',#1045,10.);
#298=VECTOR('',#1048,10.);
#299=VECTOR('',#1049,10.);
#300=VECTOR('',#1052,10.);
#301=VECTOR('',#1053,10.);
#302=VECTOR('',#1054,10.);
#303=VECTOR('',#1055,10.);
#304=VECTOR('',#1058,10.);
#305=VECTOR('',#1059,10.);
#306=VECTOR('',#1060,10.);
#307=VECTOR('',#1063,10.);
#308=VECTOR('',#1064,10.);
#309=VECTOR('',#1065,10.);
#310=VECTOR('',#1068,10.);
#311=VECTOR('',#1069,10.);
#312=VECTOR('',#1070,10.);
#313=VECTOR('',#1073,10.);
#314=VECTOR('',#1074,10.);
#315=VECTOR('',#1075,10.);
#316=VECTOR('',#1078,10.);
#317=VECTOR('',#1079,10.);
#318=VECTOR('',#1080,10.);
#319=VECTOR('',#1083,10.);
#320=VECTOR('',#1084,10.);
#321=VECTOR('',#1085,10.);
#322=VECTOR('',#1088,10.);
#323=VECTOR('',#1089,10.);
#324=VECTOR('',#1098,10.);
#325=VECTOR('',#1101,10.);
#326=VECTOR('',#1106,10.);
#327=VECTOR('',#1109,10.);
#328=VECTOR('',#1122,10.);
#329=VECTOR('',#1123,10.);
#330=VECTOR('',#1130,10.);
#331=VECTOR('',#1133,10.);
#332=VECTOR('',#1136,10.);
#333=VECTOR('',#1141,10.);
#334=VECTOR('',#1142,10.);
#335=VECTOR('',#1145,10.);
#336=VECTOR('',#1150,10.);
#337=VECTOR('',#1151,10.);
#338=VECTOR('',#1154,10.);
#339=VECTOR('',#1155,10.);
#340=VECTOR('',#1162,10.);
#341=VECTOR('',#1169,10.);
#342=VECTOR('',#1178,10.);
#343=VECTOR('',#1179,10.);
#344=VECTOR('',#1190,10.);
#345=VECTOR('',#1193,10.);
#346=VECTOR('',#1196,10.);
#347=VECTOR('',#1197,10.);
#348=VECTOR('',#1200,10.);
#349=VECTOR('',#1201,10.);
#350=VECTOR('',#1208,10.);
#351=VECTOR('',#1211,10.);
#352=VECTOR('',#1212,10.);
#353=VECTOR('',#1213,10.);
#354=VECTOR('',#1216,10.);
#355=VECTOR('',#1217,10.);
#356=VECTOR('',#1226,10.);
#357=VECTOR('',#1229,10.);
#358=VECTOR('',#1232,10.);
#359=VECTOR('',#1233,10.);
#360=VECTOR('',#1234,10.);
#361=VECTOR('',#1235,10.);
#362=VECTOR('',#1238,10.);
#363=VECTOR('',#1239,10.);
#364=VECTOR('',#1242,10.);
#365=VECTOR('',#1247,10.);
#366=VECTOR('',#1252,10.);
#367=VECTOR('',#1253,10.);
#368=VERTEX_POINT('',#1260);
#369=VERTEX_POINT('',#1261);
#370=VERTEX_POINT('',#1263);
#371=VERTEX_POINT('',#1265);
#372=VERTEX_POINT('',#1269);
#373=VERTEX_POINT('',#1271);
#374=VERTEX_POINT('',#1275);
#375=VERTEX_POINT('',#1277);
#376=VERTEX_POINT('',#1284);
#377=VERTEX_POINT('',#1285);
#378=VERTEX_POINT('',#1287);
#379=VERTEX_POINT('',#1289);
#380=VERTEX_POINT('',#1293);
#381=VERTEX_POINT('',#1295);
#382=VERTEX_POINT('',#1299);
#383=VERTEX_POINT('',#1301);
#384=VERTEX_POINT('',#1308);
#385=VERTEX_POINT('',#1309);
#386=VERTEX_POINT('',#1311);
#387=VERTEX_POINT('',#1313);
#388=VERTEX_POINT('',#1317);
#389=VERTEX_POINT('',#1319);
#390=VERTEX_POINT('',#1323);
#391=VERTEX_POINT('',#1325);
#392=VERTEX_POINT('',#1329);
#393=VERTEX_POINT('',#1331);
#394=VERTEX_POINT('',#1335);
#395=VERTEX_POINT('',#1337);
#396=VERTEX_POINT('',#1341);
#397=VERTEX_POINT('',#1343);
#398=VERTEX_POINT('',#1347);
#399=VERTEX_POINT('',#1349);
#400=VERTEX_POINT('',#1358);
#401=VERTEX_POINT('',#1359);
#402=VERTEX_POINT('',#1361);
#403=VERTEX_POINT('',#1363);
#404=VERTEX_POINT('',#1367);
#405=VERTEX_POINT('',#1368);
#406=VERTEX_POINT('',#1370);
#407=VERTEX_POINT('',#1372);
#408=VERTEX_POINT('',#1376);
#409=VERTEX_POINT('',#1377);
#410=VERTEX_POINT('',#1382);
#411=VERTEX_POINT('',#1389);
#412=VERTEX_POINT('',#1391);
#413=VERTEX_POINT('',#1395);
#414=VERTEX_POINT('',#1399);
#415=VERTEX_POINT('',#1403);
#416=VERTEX_POINT('',#1407);
#417=VERTEX_POINT('',#1411);
#418=VERTEX_POINT('',#1413);
#419=VERTEX_POINT('',#1441);
#420=VERTEX_POINT('',#1451);
#421=VERTEX_POINT('',#1456);
#422=VERTEX_POINT('',#1465);
#423=VERTEX_POINT('',#1471);
#424=VERTEX_POINT('',#1478);
#425=VERTEX_POINT('',#1479);
#426=VERTEX_POINT('',#1481);
#427=VERTEX_POINT('',#1483);
#428=VERTEX_POINT('',#1487);
#429=VERTEX_POINT('',#1489);
#430=VERTEX_POINT('',#1494);
#431=VERTEX_POINT('',#1501);
#432=VERTEX_POINT('',#1505);
#433=VERTEX_POINT('',#1507);
#434=VERTEX_POINT('',#1511);
#435=VERTEX_POINT('',#1513);
#436=VERTEX_POINT('',#1522);
#437=VERTEX_POINT('',#1523);
#438=VERTEX_POINT('',#1525);
#439=VERTEX_POINT('',#1527);
#440=VERTEX_POINT('',#1531);
#441=VERTEX_POINT('',#1533);
#442=VERTEX_POINT('',#1535);
#443=VERTEX_POINT('',#1539);
#444=VERTEX_POINT('',#1543);
#445=VERTEX_POINT('',#1548);
#446=VERTEX_POINT('',#1555);
#447=VERTEX_POINT('',#1557);
#448=EDGE_CURVE('',#368,#369,#184,.T.);
#449=EDGE_CURVE('',#370,#368,#185,.T.);
#450=EDGE_CURVE('',#371,#370,#186,.T.);
#451=EDGE_CURVE('',#371,#369,#187,.T.);
#452=EDGE_CURVE('',#369,#372,#188,.T.);
#453=EDGE_CURVE('',#373,#371,#189,.T.);
#454=EDGE_CURVE('',#373,#372,#190,.T.);
#455=EDGE_CURVE('',#372,#374,#191,.T.);
#456=EDGE_CURVE('',#375,#373,#192,.T.);
#457=EDGE_CURVE('',#375,#374,#193,.T.);
#458=EDGE_CURVE('',#374,#368,#194,.T.);
#459=EDGE_CURVE('',#370,#375,#195,.T.);
#460=EDGE_CURVE('',#376,#377,#196,.T.);
#461=EDGE_CURVE('',#377,#378,#197,.T.);
#462=EDGE_CURVE('',#379,#378,#198,.T.);
#463=EDGE_CURVE('',#376,#379,#199,.T.);
#464=EDGE_CURVE('',#380,#376,#200,.T.);
#465=EDGE_CURVE('',#381,#379,#201,.T.);
#466=EDGE_CURVE('',#380,#381,#202,.T.);
#467=EDGE_CURVE('',#382,#380,#203,.T.);
#468=EDGE_CURVE('',#383,#381,#204,.T.);
#469=EDGE_CURVE('',#382,#383,#205,.T.);
#470=EDGE_CURVE('',#377,#382,#206,.T.);
#471=EDGE_CURVE('',#378,#383,#207,.T.);
#472=EDGE_CURVE('',#384,#385,#208,.T.);
#473=EDGE_CURVE('',#384,#386,#209,.T.);
#474=EDGE_CURVE('',#387,#386,#210,.T.);
#475=EDGE_CURVE('',#385,#387,#211,.T.);
#476=EDGE_CURVE('',#388,#385,#212,.T.);
#477=EDGE_CURVE('',#389,#387,#213,.T.);
#478=EDGE_CURVE('',#388,#389,#214,.T.);
#479=EDGE_CURVE('',#390,#388,#215,.T.);
#480=EDGE_CURVE('',#391,#389,#216,.T.);
#481=EDGE_CURVE('',#390,#391,#217,.T.);
#482=EDGE_CURVE('',#392,#390,#218,.T.);
#483=EDGE_CURVE('',#393,#391,#219,.T.);
#484=EDGE_CURVE('',#392,#393,#220,.T.);
#485=EDGE_CURVE('',#392,#394,#221,.T.);
#486=EDGE_CURVE('',#395,#393,#222,.T.);
#487=EDGE_CURVE('',#394,#395,#223,.T.);
#488=EDGE_CURVE('',#396,#394,#224,.T.);
#489=EDGE_CURVE('',#397,#395,#225,.T.);
#490=EDGE_CURVE('',#396,#397,#226,.T.);
#491=EDGE_CURVE('',#398,#396,#227,.T.);
#492=EDGE_CURVE('',#399,#397,#228,.T.);
#493=EDGE_CURVE('',#398,#399,#229,.T.);
#494=EDGE_CURVE('',#384,#398,#230,.T.);
#495=EDGE_CURVE('',#386,#399,#231,.T.);
#496=EDGE_CURVE('',#400,#401,#24,.T.);
#497=EDGE_CURVE('',#401,#402,#232,.T.);
#498=EDGE_CURVE('',#402,#403,#25,.T.);
#499=EDGE_CURVE('',#403,#400,#233,.T.);
#500=EDGE_CURVE('',#404,#405,#26,.T.);
#501=EDGE_CURVE('',#405,#406,#234,.T.);
#502=EDGE_CURVE('',#406,#407,#27,.T.);
#503=EDGE_CURVE('',#407,#404,#235,.T.);
#504=EDGE_CURVE('',#408,#409,#28,.T.);
#505=EDGE_CURVE('',#409,#407,#29,.T.);
#506=EDGE_CURVE('',#406,#408,#30,.T.);
#507=EDGE_CURVE('',#410,#402,#31,.T.);
#508=EDGE_CURVE('',#402,#409,#236,.T.);
#509=EDGE_CURVE('',#408,#410,#237,.T.);
#510=EDGE_CURVE('',#410,#403,#32,.T.);
#511=EDGE_CURVE('',#411,#403,#238,.T.);
#512=EDGE_CURVE('',#412,#411,#33,.T.);
#513=EDGE_CURVE('',#412,#400,#239,.T.);
#514=EDGE_CURVE('',#410,#413,#240,.T.);
#515=EDGE_CURVE('',#411,#413,#34,.T.);
#516=EDGE_CURVE('',#414,#408,#241,.T.);
#517=EDGE_CURVE('',#413,#414,#242,.T.);
#518=EDGE_CURVE('',#415,#406,#243,.T.);
#519=EDGE_CURVE('',#414,#415,#35,.T.);
#520=EDGE_CURVE('',#416,#405,#244,.T.);
#521=EDGE_CURVE('',#415,#416,#245,.T.);
#522=EDGE_CURVE('',#417,#404,#246,.T.);
#523=EDGE_CURVE('',#418,#417,#247,.T.);
#524=EDGE_CURVE('',#416,#418,#36,.T.);
#525=EDGE_CURVE('',#419,#412,#13,.T.);
#526=EDGE_CURVE('',#413,#419,#37,.T.);
#527=EDGE_CURVE('',#419,#420,#14,.T.);
#528=EDGE_CURVE('',#420,#421,#248,.T.);
#529=EDGE_CURVE('',#401,#421,#15,.T.);
#530=EDGE_CURVE('',#420,#414,#38,.T.);
#531=EDGE_CURVE('',#418,#422,#249,.T.);
#532=EDGE_CURVE('',#422,#415,#39,.T.);
#533=EDGE_CURVE('',#420,#422,#40,.T.);
#534=EDGE_CURVE('',#423,#417,#250,.T.);
#535=EDGE_CURVE('',#422,#423,#251,.T.);
#536=EDGE_CURVE('',#421,#423,#41,.T.);
#537=EDGE_CURVE('',#424,#425,#42,.T.);
#538=EDGE_CURVE('',#425,#426,#252,.T.);
#539=EDGE_CURVE('',#426,#427,#43,.T.);
#540=EDGE_CURVE('',#427,#424,#253,.T.);
#541=EDGE_CURVE('',#424,#428,#254,.T.);
#542=EDGE_CURVE('',#429,#428,#16,.T.);
#543=EDGE_CURVE('',#430,#429,#255,.T.);
#544=EDGE_CURVE('',#425,#430,#17,.T.);
#545=EDGE_CURVE('',#427,#431,#256,.T.);
#546=EDGE_CURVE('',#428,#431,#257,.T.);
#547=EDGE_CURVE('',#430,#432,#44,.T.);
#548=EDGE_CURVE('',#433,#429,#45,.T.);
#549=EDGE_CURVE('',#432,#433,#258,.T.);
#550=EDGE_CURVE('',#434,#432,#259,.T.);
#551=EDGE_CURVE('',#435,#433,#260,.T.);
#552=EDGE_CURVE('',#434,#435,#261,.T.);
#553=EDGE_CURVE('',#434,#426,#262,.T.);
#554=EDGE_CURVE('',#431,#435,#263,.T.);
#555=EDGE_CURVE('',#436,#437,#46,.T.);
#556=EDGE_CURVE('',#437,#438,#264,.T.);
#557=EDGE_CURVE('',#438,#439,#47,.T.);
#558=EDGE_CURVE('',#439,#436,#265,.T.);
#559=EDGE_CURVE('',#438,#440,#266,.T.);
#560=EDGE_CURVE('',#440,#441,#267,.T.);
#561=EDGE_CURVE('',#442,#441,#268,.T.);
#562=EDGE_CURVE('',#442,#439,#269,.T.);
#563=EDGE_CURVE('',#437,#443,#270,.T.);
#564=EDGE_CURVE('',#443,#440,#271,.T.);
#565=EDGE_CURVE('',#436,#444,#18,.T.);
#566=EDGE_CURVE('',#444,#445,#272,.T.);
#567=EDGE_CURVE('',#445,#443,#19,.T.);
#568=EDGE_CURVE('',#444,#446,#48,.T.);
#569=EDGE_CURVE('',#446,#447,#273,.T.);
#570=EDGE_CURVE('',#447,#445,#49,.T.);
#571=EDGE_CURVE('',#442,#446,#274,.T.);
#572=EDGE_CURVE('',#441,#447,#275,.T.);
#573=ORIENTED_EDGE('',*,*,#448,.F.);
#574=ORIENTED_EDGE('',*,*,#449,.F.);
#575=ORIENTED_EDGE('',*,*,#450,.F.);
#576=ORIENTED_EDGE('',*,*,#451,.T.);
#577=ORIENTED_EDGE('',*,*,#452,.F.);
#578=ORIENTED_EDGE('',*,*,#451,.F.);
#579=ORIENTED_EDGE('',*,*,#453,.F.);
#580=ORIENTED_EDGE('',*,*,#454,.T.);
#581=ORIENTED_EDGE('',*,*,#455,.F.);
#582=ORIENTED_EDGE('',*,*,#454,.F.);
#583=ORIENTED_EDGE('',*,*,#456,.F.);
#584=ORIENTED_EDGE('',*,*,#457,.T.);
#585=ORIENTED_EDGE('',*,*,#458,.F.);
#586=ORIENTED_EDGE('',*,*,#457,.F.);
#587=ORIENTED_EDGE('',*,*,#459,.F.);
#588=ORIENTED_EDGE('',*,*,#449,.T.);
#589=ORIENTED_EDGE('',*,*,#460,.T.);
#590=ORIENTED_EDGE('',*,*,#461,.T.);
#591=ORIENTED_EDGE('',*,*,#462,.F.);
#592=ORIENTED_EDGE('',*,*,#463,.F.);
#593=ORIENTED_EDGE('',*,*,#464,.T.);
#594=ORIENTED_EDGE('',*,*,#463,.T.);
#595=ORIENTED_EDGE('',*,*,#465,.F.);
#596=ORIENTED_EDGE('',*,*,#466,.F.);
#597=ORIENTED_EDGE('',*,*,#467,.T.);
#598=ORIENTED_EDGE('',*,*,#466,.T.);
#599=ORIENTED_EDGE('',*,*,#468,.F.);
#600=ORIENTED_EDGE('',*,*,#469,.F.);
#601=ORIENTED_EDGE('',*,*,#470,.T.);
#602=ORIENTED_EDGE('',*,*,#469,.T.);
#603=ORIENTED_EDGE('',*,*,#471,.F.);
#604=ORIENTED_EDGE('',*,*,#461,.F.);
#605=ORIENTED_EDGE('',*,*,#472,.F.);
#606=ORIENTED_EDGE('',*,*,#473,.T.);
#607=ORIENTED_EDGE('',*,*,#474,.F.);
#608=ORIENTED_EDGE('',*,*,#475,.F.);
#609=ORIENTED_EDGE('',*,*,#476,.T.);
#610=ORIENTED_EDGE('',*,*,#475,.T.);
#611=ORIENTED_EDGE('',*,*,#477,.F.);
#612=ORIENTED_EDGE('',*,*,#478,.F.);
#613=ORIENTED_EDGE('',*,*,#479,.T.);
#614=ORIENTED_EDGE('',*,*,#478,.T.);
#615=ORIENTED_EDGE('',*,*,#480,.F.);
#616=ORIENTED_EDGE('',*,*,#481,.F.);
#617=ORIENTED_EDGE('',*,*,#482,.T.);
#618=ORIENTED_EDGE('',*,*,#481,.T.);
#619=ORIENTED_EDGE('',*,*,#483,.F.);
#620=ORIENTED_EDGE('',*,*,#484,.F.);
#621=ORIENTED_EDGE('',*,*,#485,.F.);
#622=ORIENTED_EDGE('',*,*,#484,.T.);
#623=ORIENTED_EDGE('',*,*,#486,.F.);
#624=ORIENTED_EDGE('',*,*,#487,.F.);
#625=ORIENTED_EDGE('',*,*,#488,.T.);
#626=ORIENTED_EDGE('',*,*,#487,.T.);
#627=ORIENTED_EDGE('',*,*,#489,.F.);
#628=ORIENTED_EDGE('',*,*,#490,.F.);
#629=ORIENTED_EDGE('',*,*,#491,.T.);
#630=ORIENTED_EDGE('',*,*,#490,.T.);
#631=ORIENTED_EDGE('',*,*,#492,.F.);
#632=ORIENTED_EDGE('',*,*,#493,.F.);
#633=ORIENTED_EDGE('',*,*,#494,.T.);
#634=ORIENTED_EDGE('',*,*,#493,.T.);
#635=ORIENTED_EDGE('',*,*,#495,.F.);
#636=ORIENTED_EDGE('',*,*,#473,.F.);
#637=ORIENTED_EDGE('',*,*,#495,.T.);
#638=ORIENTED_EDGE('',*,*,#492,.T.);
#639=ORIENTED_EDGE('',*,*,#489,.T.);
#640=ORIENTED_EDGE('',*,*,#486,.T.);
#641=ORIENTED_EDGE('',*,*,#483,.T.);
#642=ORIENTED_EDGE('',*,*,#480,.T.);
#643=ORIENTED_EDGE('',*,*,#477,.T.);
#644=ORIENTED_EDGE('',*,*,#474,.T.);
#645=ORIENTED_EDGE('',*,*,#455,.T.);
#646=ORIENTED_EDGE('',*,*,#458,.T.);
#647=ORIENTED_EDGE('',*,*,#448,.T.);
#648=ORIENTED_EDGE('',*,*,#452,.T.);
#649=ORIENTED_EDGE('',*,*,#471,.T.);
#650=ORIENTED_EDGE('',*,*,#468,.T.);
#651=ORIENTED_EDGE('',*,*,#465,.T.);
#652=ORIENTED_EDGE('',*,*,#462,.T.);
#653=ORIENTED_EDGE('',*,*,#494,.F.);
#654=ORIENTED_EDGE('',*,*,#472,.T.);
#655=ORIENTED_EDGE('',*,*,#476,.F.);
#656=ORIENTED_EDGE('',*,*,#479,.F.);
#657=ORIENTED_EDGE('',*,*,#482,.F.);
#658=ORIENTED_EDGE('',*,*,#485,.T.);
#659=ORIENTED_EDGE('',*,*,#488,.F.);
#660=ORIENTED_EDGE('',*,*,#491,.F.);
#661=ORIENTED_EDGE('',*,*,#456,.T.);
#662=ORIENTED_EDGE('',*,*,#453,.T.);
#663=ORIENTED_EDGE('',*,*,#450,.T.);
#664=ORIENTED_EDGE('',*,*,#459,.T.);
#665=ORIENTED_EDGE('',*,*,#470,.F.);
#666=ORIENTED_EDGE('',*,*,#460,.F.);
#667=ORIENTED_EDGE('',*,*,#464,.F.);
#668=ORIENTED_EDGE('',*,*,#467,.F.);
#669=ORIENTED_EDGE('',*,*,#496,.T.);
#670=ORIENTED_EDGE('',*,*,#497,.T.);
#671=ORIENTED_EDGE('',*,*,#498,.T.);
#672=ORIENTED_EDGE('',*,*,#499,.T.);
#673=ORIENTED_EDGE('',*,*,#500,.T.);
#674=ORIENTED_EDGE('',*,*,#501,.T.);
#675=ORIENTED_EDGE('',*,*,#502,.T.);
#676=ORIENTED_EDGE('',*,*,#503,.T.);
#677=ORIENTED_EDGE('',*,*,#504,.T.);
#678=ORIENTED_EDGE('',*,*,#505,.T.);
#679=ORIENTED_EDGE('',*,*,#502,.F.);
#680=ORIENTED_EDGE('',*,*,#506,.T.);
#681=ORIENTED_EDGE('',*,*,#507,.T.);
#682=ORIENTED_EDGE('',*,*,#508,.T.);
#683=ORIENTED_EDGE('',*,*,#504,.F.);
#684=ORIENTED_EDGE('',*,*,#509,.T.);
#685=ORIENTED_EDGE('',*,*,#507,.F.);
#686=ORIENTED_EDGE('',*,*,#510,.T.);
#687=ORIENTED_EDGE('',*,*,#498,.F.);
#688=ORIENTED_EDGE('',*,*,#499,.F.);
#689=ORIENTED_EDGE('',*,*,#511,.F.);
#690=ORIENTED_EDGE('',*,*,#512,.F.);
#691=ORIENTED_EDGE('',*,*,#513,.T.);
#692=ORIENTED_EDGE('',*,*,#510,.F.);
#693=ORIENTED_EDGE('',*,*,#514,.T.);
#694=ORIENTED_EDGE('',*,*,#515,.F.);
#695=ORIENTED_EDGE('',*,*,#511,.T.);
#696=ORIENTED_EDGE('',*,*,#509,.F.);
#697=ORIENTED_EDGE('',*,*,#516,.F.);
#698=ORIENTED_EDGE('',*,*,#517,.F.);
#699=ORIENTED_EDGE('',*,*,#514,.F.);
#700=ORIENTED_EDGE('',*,*,#506,.F.);
#701=ORIENTED_EDGE('',*,*,#518,.F.);
#702=ORIENTED_EDGE('',*,*,#519,.F.);
#703=ORIENTED_EDGE('',*,*,#516,.T.);
#704=ORIENTED_EDGE('',*,*,#501,.F.);
#705=ORIENTED_EDGE('',*,*,#520,.F.);
#706=ORIENTED_EDGE('',*,*,#521,.F.);
#707=ORIENTED_EDGE('',*,*,#518,.T.);
#708=ORIENTED_EDGE('',*,*,#500,.F.);
#709=ORIENTED_EDGE('',*,*,#522,.F.);
#710=ORIENTED_EDGE('',*,*,#523,.F.);
#711=ORIENTED_EDGE('',*,*,#524,.F.);
#712=ORIENTED_EDGE('',*,*,#520,.T.);
#713=ORIENTED_EDGE('',*,*,#525,.T.);
#714=ORIENTED_EDGE('',*,*,#512,.T.);
#715=ORIENTED_EDGE('',*,*,#515,.T.);
#716=ORIENTED_EDGE('',*,*,#526,.T.);
#717=ORIENTED_EDGE('',*,*,#496,.F.);
#718=ORIENTED_EDGE('',*,*,#513,.F.);
#719=ORIENTED_EDGE('',*,*,#525,.F.);
#720=ORIENTED_EDGE('',*,*,#527,.T.);
#721=ORIENTED_EDGE('',*,*,#528,.T.);
#722=ORIENTED_EDGE('',*,*,#529,.F.);
#723=ORIENTED_EDGE('',*,*,#526,.F.);
#724=ORIENTED_EDGE('',*,*,#517,.T.);
#725=ORIENTED_EDGE('',*,*,#530,.F.);
#726=ORIENTED_EDGE('',*,*,#527,.F.);
#727=ORIENTED_EDGE('',*,*,#524,.T.);
#728=ORIENTED_EDGE('',*,*,#531,.T.);
#729=ORIENTED_EDGE('',*,*,#532,.T.);
#730=ORIENTED_EDGE('',*,*,#521,.T.);
#731=ORIENTED_EDGE('',*,*,#530,.T.);
#732=ORIENTED_EDGE('',*,*,#519,.T.);
#733=ORIENTED_EDGE('',*,*,#532,.F.);
#734=ORIENTED_EDGE('',*,*,#533,.F.);
#735=ORIENTED_EDGE('',*,*,#531,.F.);
#736=ORIENTED_EDGE('',*,*,#523,.T.);
#737=ORIENTED_EDGE('',*,*,#534,.F.);
#738=ORIENTED_EDGE('',*,*,#535,.F.);
#739=ORIENTED_EDGE('',*,*,#533,.T.);
#740=ORIENTED_EDGE('',*,*,#535,.T.);
#741=ORIENTED_EDGE('',*,*,#536,.F.);
#742=ORIENTED_EDGE('',*,*,#528,.F.);
#743=ORIENTED_EDGE('',*,*,#497,.F.);
#744=ORIENTED_EDGE('',*,*,#529,.T.);
#745=ORIENTED_EDGE('',*,*,#536,.T.);
#746=ORIENTED_EDGE('',*,*,#534,.T.);
#747=ORIENTED_EDGE('',*,*,#522,.T.);
#748=ORIENTED_EDGE('',*,*,#503,.F.);
#749=ORIENTED_EDGE('',*,*,#505,.F.);
#750=ORIENTED_EDGE('',*,*,#508,.F.);
#751=ORIENTED_EDGE('',*,*,#537,.T.);
#752=ORIENTED_EDGE('',*,*,#538,.T.);
#753=ORIENTED_EDGE('',*,*,#539,.T.);
#754=ORIENTED_EDGE('',*,*,#540,.T.);
#755=ORIENTED_EDGE('',*,*,#537,.F.);
#756=ORIENTED_EDGE('',*,*,#541,.T.);
#757=ORIENTED_EDGE('',*,*,#542,.F.);
#758=ORIENTED_EDGE('',*,*,#543,.F.);
#759=ORIENTED_EDGE('',*,*,#544,.F.);
#760=ORIENTED_EDGE('',*,*,#540,.F.);
#761=ORIENTED_EDGE('',*,*,#545,.T.);
#762=ORIENTED_EDGE('',*,*,#546,.F.);
#763=ORIENTED_EDGE('',*,*,#541,.F.);
#764=ORIENTED_EDGE('',*,*,#547,.F.);
#765=ORIENTED_EDGE('',*,*,#543,.T.);
#766=ORIENTED_EDGE('',*,*,#548,.F.);
#767=ORIENTED_EDGE('',*,*,#549,.F.);
#768=ORIENTED_EDGE('',*,*,#550,.T.);
#769=ORIENTED_EDGE('',*,*,#549,.T.);
#770=ORIENTED_EDGE('',*,*,#551,.F.);
#771=ORIENTED_EDGE('',*,*,#552,.F.);
#772=ORIENTED_EDGE('',*,*,#539,.F.);
#773=ORIENTED_EDGE('',*,*,#553,.F.);
#774=ORIENTED_EDGE('',*,*,#552,.T.);
#775=ORIENTED_EDGE('',*,*,#554,.F.);
#776=ORIENTED_EDGE('',*,*,#545,.F.);
#777=ORIENTED_EDGE('',*,*,#538,.F.);
#778=ORIENTED_EDGE('',*,*,#544,.T.);
#779=ORIENTED_EDGE('',*,*,#547,.T.);
#780=ORIENTED_EDGE('',*,*,#550,.F.);
#781=ORIENTED_EDGE('',*,*,#553,.T.);
#782=ORIENTED_EDGE('',*,*,#554,.T.);
#783=ORIENTED_EDGE('',*,*,#551,.T.);
#784=ORIENTED_EDGE('',*,*,#548,.T.);
#785=ORIENTED_EDGE('',*,*,#542,.T.);
#786=ORIENTED_EDGE('',*,*,#546,.T.);
#787=ORIENTED_EDGE('',*,*,#555,.T.);
#788=ORIENTED_EDGE('',*,*,#556,.T.);
#789=ORIENTED_EDGE('',*,*,#557,.T.);
#790=ORIENTED_EDGE('',*,*,#558,.T.);
#791=ORIENTED_EDGE('',*,*,#557,.F.);
#792=ORIENTED_EDGE('',*,*,#559,.T.);
#793=ORIENTED_EDGE('',*,*,#560,.T.);
#794=ORIENTED_EDGE('',*,*,#561,.F.);
#795=ORIENTED_EDGE('',*,*,#562,.T.);
#796=ORIENTED_EDGE('',*,*,#556,.F.);
#797=ORIENTED_EDGE('',*,*,#563,.T.);
#798=ORIENTED_EDGE('',*,*,#564,.T.);
#799=ORIENTED_EDGE('',*,*,#559,.F.);
#800=ORIENTED_EDGE('',*,*,#555,.F.);
#801=ORIENTED_EDGE('',*,*,#565,.T.);
#802=ORIENTED_EDGE('',*,*,#566,.T.);
#803=ORIENTED_EDGE('',*,*,#567,.T.);
#804=ORIENTED_EDGE('',*,*,#563,.F.);
#805=ORIENTED_EDGE('',*,*,#568,.T.);
#806=ORIENTED_EDGE('',*,*,#569,.T.);
#807=ORIENTED_EDGE('',*,*,#570,.T.);
#808=ORIENTED_EDGE('',*,*,#566,.F.);
#809=ORIENTED_EDGE('',*,*,#571,.F.);
#810=ORIENTED_EDGE('',*,*,#561,.T.);
#811=ORIENTED_EDGE('',*,*,#572,.T.);
#812=ORIENTED_EDGE('',*,*,#569,.F.);
#813=ORIENTED_EDGE('',*,*,#558,.F.);
#814=ORIENTED_EDGE('',*,*,#562,.F.);
#815=ORIENTED_EDGE('',*,*,#571,.T.);
#816=ORIENTED_EDGE('',*,*,#568,.F.);
#817=ORIENTED_EDGE('',*,*,#565,.F.);
#818=ORIENTED_EDGE('',*,*,#560,.F.);
#819=ORIENTED_EDGE('',*,*,#564,.F.);
#820=ORIENTED_EDGE('',*,*,#567,.F.);
#821=ORIENTED_EDGE('',*,*,#570,.F.);
#822=ORIENTED_EDGE('',*,*,#572,.F.);
#823=PLANE('',#930);
#824=PLANE('',#931);
#825=PLANE('',#932);
#826=PLANE('',#933);
#827=PLANE('',#934);
#828=PLANE('',#935);
#829=PLANE('',#936);
#830=PLANE('',#937);
#831=PLANE('',#938);
#832=PLANE('',#939);
#833=PLANE('',#940);
#834=PLANE('',#941);
#835=PLANE('',#942);
#836=PLANE('',#943);
#837=PLANE('',#944);
#838=PLANE('',#945);
#839=PLANE('',#946);
#840=PLANE('',#947);
#841=PLANE('',#962);
#842=PLANE('',#966);
#843=PLANE('',#969);
#844=PLANE('',#970);
#845=PLANE('',#973);
#846=PLANE('',#980);
#847=PLANE('',#983);
#848=PLANE('',#987);
#849=PLANE('',#988);
#850=PLANE('',#992);
#851=PLANE('',#993);
#852=PLANE('',#994);
#853=PLANE('',#995);
#854=PLANE('',#999);
#855=PLANE('',#1000);
#856=PLANE('',#1001);
#857=PLANE('',#1005);
#858=PLANE('',#1006);
#859=PLANE('',#1007);
#860=ADVANCED_FACE('',(#74),#823,.F.);
#861=ADVANCED_FACE('',(#75),#824,.F.);
#862=ADVANCED_FACE('',(#76),#825,.F.);
#863=ADVANCED_FACE('',(#77),#826,.F.);
#864=ADVANCED_FACE('',(#78),#827,.T.);
#865=ADVANCED_FACE('',(#79),#828,.T.);
#866=ADVANCED_FACE('',(#80),#829,.T.);
#867=ADVANCED_FACE('',(#81),#830,.T.);
#868=ADVANCED_FACE('',(#82),#831,.T.);
#869=ADVANCED_FACE('',(#83),#832,.T.);
#870=ADVANCED_FACE('',(#84),#833,.T.);
#871=ADVANCED_FACE('',(#85),#834,.T.);
#872=ADVANCED_FACE('',(#86),#835,.T.);
#873=ADVANCED_FACE('',(#87),#836,.T.);
#874=ADVANCED_FACE('',(#88),#837,.T.);
#875=ADVANCED_FACE('',(#89),#838,.T.);
#876=ADVANCED_FACE('',(#90,#70,#71),#839,.T.);
#877=ADVANCED_FACE('',(#91,#72,#73),#840,.F.);
#878=ADVANCED_FACE('',(#92),#50,.T.);
#879=ADVANCED_FACE('',(#93),#51,.T.);
#880=ADVANCED_FACE('',(#94),#22,.T.);
#881=ADVANCED_FACE('',(#95),#52,.T.);
#882=ADVANCED_FACE('',(#96),#21,.T.);
#883=ADVANCED_FACE('',(#97),#841,.T.);
#884=ADVANCED_FACE('',(#98),#53,.T.);
#885=ADVANCED_FACE('',(#99),#842,.T.);
#886=ADVANCED_FACE('',(#100),#54,.T.);
#887=ADVANCED_FACE('',(#101),#843,.T.);
#888=ADVANCED_FACE('',(#102),#844,.T.);
#889=ADVANCED_FACE('',(#103),#20,.F.);
#890=ADVANCED_FACE('',(#104),#845,.T.);
#891=ADVANCED_FACE('',(#105),#55,.T.);
#892=ADVANCED_FACE('',(#106),#56,.T.);
#893=ADVANCED_FACE('',(#107),#23,.T.);
#894=ADVANCED_FACE('',(#108),#846,.T.);
#895=ADVANCED_FACE('',(#109),#57,.F.);
#896=ADVANCED_FACE('',(#110),#847,.F.);
#897=ADVANCED_FACE('',(#111),#58,.T.);
#898=ADVANCED_FACE('',(#112),#848,.T.);
#899=ADVANCED_FACE('',(#113),#849,.T.);
#900=ADVANCED_FACE('',(#114),#59,.T.);
#901=ADVANCED_FACE('',(#115),#850,.T.);
#902=ADVANCED_FACE('',(#116),#851,.T.);
#903=ADVANCED_FACE('',(#117),#852,.T.);
#904=ADVANCED_FACE('',(#118),#853,.F.);
#905=ADVANCED_FACE('',(#119),#60,.T.);
#906=ADVANCED_FACE('',(#120),#854,.F.);
#907=ADVANCED_FACE('',(#121),#855,.F.);
#908=ADVANCED_FACE('',(#122),#856,.F.);
#909=ADVANCED_FACE('',(#123),#61,.T.);
#910=ADVANCED_FACE('',(#124),#857,.F.);
#911=ADVANCED_FACE('',(#125),#858,.F.);
#912=ADVANCED_FACE('',(#126),#859,.T.);
#913=CLOSED_SHELL('',(#860,#861,#862,#863,#864,#865,#866,#867,#868,#869,
#870,#871,#872,#873,#874,#875,#876,#877));
#914=CLOSED_SHELL('',(#878,#879,#880,#881,#882,#883,#884,#885,#886,#887,
#888,#889,#890,#891,#892,#893,#894,#895,#896));
#915=CLOSED_SHELL('',(#897,#898,#899,#900,#901,#902,#903,#904));
#916=CLOSED_SHELL('',(#905,#906,#907,#908,#909,#910,#911,#912));
#917=DERIVED_UNIT_ELEMENT(#919,1.);
#918=DERIVED_UNIT_ELEMENT(#1570,-3.);
#919=(
MASS_UNIT()
NAMED_UNIT(*)
SI_UNIT(.KILO.,.GRAM.)
);
#920=DERIVED_UNIT((#917,#918));
#921=MEASURE_REPRESENTATION_ITEM('density measure',
POSITIVE_RATIO_MEASURE(7850.),#920);
#922=PROPERTY_DEFINITION_REPRESENTATION(#927,#924);
#923=PROPERTY_DEFINITION_REPRESENTATION(#928,#925);
#924=REPRESENTATION('material name',(#926),#1567);
#925=REPRESENTATION('density',(#921),#1567);
#926=DESCRIPTIVE_REPRESENTATION_ITEM('Steel','Steel');
#927=PROPERTY_DEFINITION('material property','material name',#1577);
#928=PROPERTY_DEFINITION('material property','density of part',#1577);
#929=AXIS2_PLACEMENT_3D('',#1258,#1008,#1009);
#930=AXIS2_PLACEMENT_3D('',#1259,#1010,#1011);
#931=AXIS2_PLACEMENT_3D('',#1268,#1016,#1017);
#932=AXIS2_PLACEMENT_3D('',#1274,#1021,#1022);
#933=AXIS2_PLACEMENT_3D('',#1280,#1026,#1027);
#934=AXIS2_PLACEMENT_3D('',#1283,#1030,#1031);
#935=AXIS2_PLACEMENT_3D('',#1292,#1036,#1037);
#936=AXIS2_PLACEMENT_3D('',#1298,#1041,#1042);
#937=AXIS2_PLACEMENT_3D('',#1304,#1046,#1047);
#938=AXIS2_PLACEMENT_3D('',#1307,#1050,#1051);
#939=AXIS2_PLACEMENT_3D('',#1316,#1056,#1057);
#940=AXIS2_PLACEMENT_3D('',#1322,#1061,#1062);
#941=AXIS2_PLACEMENT_3D('',#1328,#1066,#1067);
#942=AXIS2_PLACEMENT_3D('',#1334,#1071,#1072);
#943=AXIS2_PLACEMENT_3D('',#1340,#1076,#1077);
#944=AXIS2_PLACEMENT_3D('',#1346,#1081,#1082);
#945=AXIS2_PLACEMENT_3D('',#1352,#1086,#1087);
#946=AXIS2_PLACEMENT_3D('',#1355,#1090,#1091);
#947=AXIS2_PLACEMENT_3D('',#1356,#1092,#1093);
#948=AXIS2_PLACEMENT_3D('',#1357,#1094,#1095);
#949=AXIS2_PLACEMENT_3D('',#1360,#1096,#1097);
#950=AXIS2_PLACEMENT_3D('',#1364,#1099,#1100);
#951=AXIS2_PLACEMENT_3D('',#1366,#1102,#1103);
#952=AXIS2_PLACEMENT_3D('',#1369,#1104,#1105);
#953=AXIS2_PLACEMENT_3D('',#1373,#1107,#1108);
#954=AXIS2_PLACEMENT_3D('',#1375,#1110,#1111);
#955=AXIS2_PLACEMENT_3D('',#1378,#1112,#1113);
#956=AXIS2_PLACEMENT_3D('',#1379,#1114,#1115);
#957=AXIS2_PLACEMENT_3D('',#1380,#1116,#1117);
#958=AXIS2_PLACEMENT_3D('',#1381,#1118,#1119);
#959=AXIS2_PLACEMENT_3D('',#1383,#1120,#1121);
#960=AXIS2_PLACEMENT_3D('',#1386,#1124,#1125);
#961=AXIS2_PLACEMENT_3D('',#1387,#1126,#1127);
#962=AXIS2_PLACEMENT_3D('',#1388,#1128,#1129);
#963=AXIS2_PLACEMENT_3D('',#1392,#1131,#1132);
#964=AXIS2_PLACEMENT_3D('',#1394,#1134,#1135);
#965=AXIS2_PLACEMENT_3D('',#1397,#1137,#1138);
#966=AXIS2_PLACEMENT_3D('',#1398,#1139,#1140);
#967=AXIS2_PLACEMENT_3D('',#1402,#1143,#1144);
#968=AXIS2_PLACEMENT_3D('',#1405,#1146,#1147);
#969=AXIS2_PLACEMENT_3D('',#1406,#1148,#1149);
#970=AXIS2_PLACEMENT_3D('',#1410,#1152,#1153);
#971=AXIS2_PLACEMENT_3D('',#1415,#1156,#1157);
#972=AXIS2_PLACEMENT_3D('',#1449,#1158,#1159);
#973=AXIS2_PLACEMENT_3D('',#1450,#1160,#1161);
#974=AXIS2_PLACEMENT_3D('',#1462,#1163,#1164);
#975=AXIS2_PLACEMENT_3D('',#1463,#1165,#1166);
#976=AXIS2_PLACEMENT_3D('',#1464,#1167,#1168);
#977=AXIS2_PLACEMENT_3D('',#1467,#1170,#1171);
#978=AXIS2_PLACEMENT_3D('',#1468,#1172,#1173);
#979=AXIS2_PLACEMENT_3D('',#1469,#1174,#1175);
#980=AXIS2_PLACEMENT_3D('',#1470,#1176,#1177);
#981=AXIS2_PLACEMENT_3D('',#1474,#1180,#1181);
#982=AXIS2_PLACEMENT_3D('',#1475,#1182,#1183);
#983=AXIS2_PLACEMENT_3D('',#1476,#1184,#1185);
#984=AXIS2_PLACEMENT_3D('',#1477,#1186,#1187);
#985=AXIS2_PLACEMENT_3D('',#1480,#1188,#1189);
#986=AXIS2_PLACEMENT_3D('',#1484,#1191,#1192);
#987=AXIS2_PLACEMENT_3D('',#1486,#1194,#1195);
#988=AXIS2_PLACEMENT_3D('',#1500,#1198,#1199);
#989=AXIS2_PLACEMENT_3D('',#1504,#1202,#1203);
#990=AXIS2_PLACEMENT_3D('',#1506,#1204,#1205);
#991=AXIS2_PLACEMENT_3D('',#1508,#1206,#1207);
#992=AXIS2_PLACEMENT_3D('',#1510,#1209,#1210);
#993=AXIS2_PLACEMENT_3D('',#1516,#1214,#1215);
#994=AXIS2_PLACEMENT_3D('',#1519,#1218,#1219);
#995=AXIS2_PLACEMENT_3D('',#1520,#1220,#1221);
#996=AXIS2_PLACEMENT_3D('',#1521,#1222,#1223);
#997=AXIS2_PLACEMENT_3D('',#1524,#1224,#1225);
#998=AXIS2_PLACEMENT_3D('',#1528,#1227,#1228);
#999=AXIS2_PLACEMENT_3D('',#1530,#1230,#1231);
#1000=AXIS2_PLACEMENT_3D('',#1538,#1236,#1237);
#1001=AXIS2_PLACEMENT_3D('',#1542,#1240,#1241);
#1002=AXIS2_PLACEMENT_3D('',#1554,#1243,#1244);
#1003=AXIS2_PLACEMENT_3D('',#1556,#1245,#1246);
#1004=AXIS2_PLACEMENT_3D('',#1559,#1248,#1249);
#1005=AXIS2_PLACEMENT_3D('',#1560,#1250,#1251);
#1006=AXIS2_PLACEMENT_3D('',#1563,#1254,#1255);
#1007=AXIS2_PLACEMENT_3D('',#1564,#1256,#1257);
#1008=DIRECTION('axis',(0.,0.,1.));
#1009=DIRECTION('refdir',(1.,0.,0.));
#1010=DIRECTION('center_axis',(0.,-1.,0.));
#1011=DIRECTION('ref_axis',(0.,0.,-1.));
#1012=DIRECTION('',(0.,0.,1.));
#1013=DIRECTION('',(1.,0.,0.));
#1014=DIRECTION('',(0.,0.,-1.));
#1015=DIRECTION('',(1.,0.,0.));
#1016=DIRECTION('center_axis',(0.,0.,1.));
#1017=DIRECTION('ref_axis',(0.,-1.,0.));
#1018=DIRECTION('',(0.,1.,0.));
#1019=DIRECTION('',(0.,-1.,0.));
#1020=DIRECTION('',(1.,0.,0.));
#1021=DIRECTION('center_axis',(0.,1.,0.));
#1022=DIRECTION('ref_axis',(0.,0.,1.));
#1023=DIRECTION('',(0.,0.,-1.));
#1024=DIRECTION('',(0.,0.,1.));
#1025=DIRECTION('',(1.,0.,0.));
#1026=DIRECTION('center_axis',(0.,0.,-1.));
#1027=DIRECTION('ref_axis',(0.,1.,0.));
#1028=DIRECTION('',(0.,-1.,0.));
#1029=DIRECTION('',(0.,1.,0.));
#1030=DIRECTION('center_axis',(0.,5.44894736012347E-17,-1.));
#1031=DIRECTION('ref_axis',(0.,1.,5.44894736012347E-17));
#1032=DIRECTION('',(0.,1.,5.44894736012347E-17));
#1033=DIRECTION('',(1.,0.,0.));
#1034=DIRECTION('',(0.,1.,5.44894736012347E-17));
#1035=DIRECTION('',(1.,0.,0.));
#1036=DIRECTION('center_axis',(0.,1.,0.));
#1037=DIRECTION('ref_axis',(0.,0.,1.));
#1038=DIRECTION('',(0.,0.,1.));
#1039=DIRECTION('',(0.,0.,1.));
#1040=DIRECTION('',(1.,0.,0.));
#1041=DIRECTION('center_axis',(0.,0.,1.));
#1042=DIRECTION('ref_axis',(0.,-1.,0.));
#1043=DIRECTION('',(0.,-1.,0.));
#1044=DIRECTION('',(0.,-1.,0.));
#1045=DIRECTION('',(1.,0.,0.));
#1046=DIRECTION('center_axis',(0.,-1.,0.));
#1047=DIRECTION('ref_axis',(0.,0.,-1.));
#1048=DIRECTION('',(0.,0.,-1.));
#1049=DIRECTION('',(0.,0.,-1.));
#1050=DIRECTION('center_axis',(0.,-0.82888133271891,0.559424468780303));
#1051=DIRECTION('ref_axis',(0.,-0.559424468780303,-0.82888133271891));
#1052=DIRECTION('',(0.,0.559424468780303,0.82888133271891));
#1053=DIRECTION('',(1.,0.,0.));
#1054=DIRECTION('',(0.,-0.559424468780303,-0.82888133271891));
#1055=DIRECTION('',(1.,0.,0.));
#1056=DIRECTION('center_axis',(0.,0.,1.));
#1057=DIRECTION('ref_axis',(0.,-1.,0.));
#1058=DIRECTION('',(0.,-1.,0.));
#1059=DIRECTION('',(0.,-1.,0.));
#1060=DIRECTION('',(1.,0.,0.));
#1061=DIRECTION('center_axis',(0.,0.828881332720339,0.559424468778186));
#1062=DIRECTION('ref_axis',(0.,-0.559424468778186,0.828881332720339));
#1063=DIRECTION('',(0.,-0.559424468778186,0.828881332720339));
#1064=DIRECTION('',(0.,-0.559424468778186,0.828881332720339));
#1065=DIRECTION('',(1.,0.,0.));
#1066=DIRECTION('center_axis',(0.,1.,0.));
#1067=DIRECTION('ref_axis',(0.,0.,1.));
#1068=DIRECTION('',(0.,0.,1.));
#1069=DIRECTION('',(0.,0.,1.));
#1070=DIRECTION('',(1.,0.,0.));
#1071=DIRECTION('center_axis',(0.,0.828881332720371,-0.559424468778138));
#1072=DIRECTION('ref_axis',(0.,0.559424468778138,0.828881332720371));
#1073=DIRECTION('',(0.,-0.559424468778138,-0.828881332720371));
#1074=DIRECTION('',(0.,0.559424468778138,0.828881332720371));
#1075=DIRECTION('',(1.,0.,0.));
#1076=DIRECTION('center_axis',(0.,5.07530525542929E-17,-1.));
#1077=DIRECTION('ref_axis',(0.,1.,5.07530525542929E-17));
#1078=DIRECTION('',(0.,1.,5.07530525542929E-17));
#1079=DIRECTION('',(0.,1.,5.07530525542929E-17));
#1080=DIRECTION('',(1.,0.,0.));
#1081=DIRECTION('center_axis',(0.,-0.828881332713364,-0.559424468788521));
#1082=DIRECTION('ref_axis',(0.,0.55942446878852,-0.828881332713364));
#1083=DIRECTION('',(0.,0.55942446878852,-0.828881332713364));
#1084=DIRECTION('',(0.,0.55942446878852,-0.828881332713364));
#1085=DIRECTION('',(1.,0.,0.));
#1086=DIRECTION('center_axis',(0.,-1.,1.1842378929335E-16));
#1087=DIRECTION('ref_axis',(0.,-1.1842378929335E-16,-1.));
#1088=DIRECTION('',(0.,-1.1842378929335E-16,-1.));
#1089=DIRECTION('',(0.,-1.1842378929335E-16,-1.));
#1090=DIRECTION('center_axis',(1.,0.,0.));
#1091=DIRECTION('ref_axis',(0.,0.,-1.));
#1092=DIRECTION('center_axis',(1.,0.,0.));
#1093=DIRECTION('ref_axis',(0.,1.,0.));
#1094=DIRECTION('center_axis',(1.,0.,0.));
#1095=DIRECTION('ref_axis',(0.,-0.707106781186548,-0.707106781186548));
#1096=DIRECTION('center_axis',(-1.,0.,-1.98682149610184E-8));
#1097=DIRECTION('ref_axis',(1.40489495290081E-8,-0.707106781186547,-0.707106781186547));
#1098=DIRECTION('',(-1.,0.,0.));
#1099=DIRECTION('center_axis',(1.,0.,0.));
#1100=DIRECTION('ref_axis',(0.,-1.,0.));
#1101=DIRECTION('',(1.,0.,0.));
#1102=DIRECTION('center_axis',(-1.,0.,0.));
#1103=DIRECTION('ref_axis',(0.,-0.707106781186548,0.707106781186548));
#1104=DIRECTION('center_axis',(-1.,0.,0.));
#1105=DIRECTION('ref_axis',(0.,-0.707106781186548,0.707106781186548));
#1106=DIRECTION('',(-1.,0.,0.));
#1107=DIRECTION('center_axis',(1.,0.,0.));
#1108=DIRECTION('ref_axis',(0.,0.,1.));
#1109=DIRECTION('',(1.,0.,0.));
#1110=DIRECTION('center_axis',(0.,-1.,0.));
#1111=DIRECTION('ref_axis',(0.,0.,-1.));
#1112=DIRECTION('center_axis',(-1.98681959773239E-8,0.,1.));
#1113=DIRECTION('ref_axis',(-1.,0.,-1.98681959773239E-8));
#1114=DIRECTION('center_axis',(0.,1.,0.));
#1115=DIRECTION('ref_axis',(-0.707106788211022,0.,0.707106774162073));
#1116=DIRECTION('center_axis',(0.,-1.,0.));
#1117=DIRECTION('ref_axis',(-0.707106788211022,0.,0.707106774162073));
#1118=DIRECTION('center_axis',(1.98682149610184E-8,0.,-1.));
#1119=DIRECTION('ref_axis',(-0.707106781186547,-0.707106781186547,-1.40489361055093E-8));
#1120=DIRECTION('center_axis',(-1.98681959773243E-8,0.,1.));
#1121=DIRECTION('ref_axis',(-1.,0.,-1.98681959773243E-8));
#1122=DIRECTION('',(-1.98682149610184E-8,0.,1.));
#1123=DIRECTION('',(1.98682149610184E-8,0.,-1.));
#1124=DIRECTION('center_axis',(0.408248283704559,-0.816496583631448,0.408248291815724));
#1125=DIRECTION('ref_axis',(-0.577350265365982,-0.577350265366018,-0.577350276836878));
#1126=DIRECTION('center_axis',(0.,-1.,0.));
#1127=DIRECTION('ref_axis',(-0.707106774162078,0.,-0.707106788211017));
#1128=DIRECTION('center_axis',(0.,0.,-1.));
#1129=DIRECTION('ref_axis',(1.,0.,0.));
#1130=DIRECTION('',(0.,-1.,0.));
#1131=DIRECTION('center_axis',(0.,0.,1.));
#1132=DIRECTION('ref_axis',(-0.707106781186544,0.707106781186551,0.));
#1133=DIRECTION('',(0.,-1.,0.));
#1134=DIRECTION('center_axis',(0.,-1.,0.));
#1135=DIRECTION('ref_axis',(-0.707106774162095,0.,-0.707106788211));
#1136=DIRECTION('',(0.,1.,0.));
#1137=DIRECTION('center_axis',(0.,1.,0.));
#1138=DIRECTION('ref_axis',(0.,0.,-1.));
#1139=DIRECTION('center_axis',(-1.,0.,-1.98682149610184E-8));
#1140=DIRECTION('ref_axis',(1.98682149610184E-8,0.,-1.));
#1141=DIRECTION('',(0.,-1.,0.));
#1142=DIRECTION('',(-1.98682149610184E-8,0.,1.));
#1143=DIRECTION('center_axis',(0.,-1.,0.));
#1144=DIRECTION('ref_axis',(-1.,0.,-1.98682148284577E-8));
#1145=DIRECTION('',(0.,-1.,0.));
#1146=DIRECTION('center_axis',(0.,1.,0.));
#1147=DIRECTION('ref_axis',(-0.707106788211022,0.,0.707106774162073));
#1148=DIRECTION('center_axis',(0.,0.,1.));
#1149=DIRECTION('ref_axis',(-1.,0.,0.));
#1150=DIRECTION('',(0.,-1.,0.));
#1151=DIRECTION('',(1.,0.,0.));
#1152=DIRECTION('center_axis',(1.,0.,0.));
#1153=DIRECTION('ref_axis',(0.,0.,1.));
#1154=DIRECTION('',(0.,0.,1.));
#1155=DIRECTION('',(0.,-1.,0.));
#1156=DIRECTION('center_axis',(-1.,0.,0.));
#1157=DIRECTION('ref_axis',(0.,0.707106781186535,0.70710678118656));
#1158=DIRECTION('center_axis',(0.,0.,-1.));
#1159=DIRECTION('ref_axis',(-0.707106781186544,0.707106781186551,0.));
#1160=DIRECTION('center_axis',(1.,0.,1.98682149610184E-8));
#1161=DIRECTION('ref_axis',(-1.98682149610184E-8,0.,1.));
#1162=DIRECTION('',(0.,-1.,0.));
#1163=DIRECTION('center_axis',(-1.98682149610184E-8,0.,1.));
#1164=DIRECTION('ref_axis',(-0.707106781186544,0.707106781186551,-1.40489361055089E-8));
#1165=DIRECTION('center_axis',(-1.98682137408922E-8,-2.6469778023975E-22,
1.));
#1166=DIRECTION('ref_axis',(-1.33226762955019E-14,1.,0.));
#1167=DIRECTION('center_axis',(-1.,0.,0.));
#1168=DIRECTION('ref_axis',(0.,0.707106781186535,0.70710678118656));
#1169=DIRECTION('',(-1.,0.,0.));
#1170=DIRECTION('center_axis',(1.,0.,-2.22044604925032E-15));
#1171=DIRECTION('ref_axis',(0.,1.,0.));
#1172=DIRECTION('center_axis',(0.,1.,0.));
#1173=DIRECTION('ref_axis',(0.,0.,1.));
#1174=DIRECTION('center_axis',(0.,1.,0.));
#1175=DIRECTION('ref_axis',(-1.,0.,-1.98682148747371E-8));
#1176=DIRECTION('center_axis',(0.,0.,-1.));
#1177=DIRECTION('ref_axis',(1.,0.,0.));
#1178=DIRECTION('',(1.,0.,0.));
#1179=DIRECTION('',(0.,-1.,0.));
#1180=DIRECTION('center_axis',(0.,-1.,0.));
#1181=DIRECTION('ref_axis',(-1.,0.,-1.98682148747371E-8));
#1182=DIRECTION('center_axis',(0.,1.,0.));
#1183=DIRECTION('ref_axis',(-1.,0.,-1.98682148747371E-8));
#1184=DIRECTION('center_axis',(0.,1.,0.));
#1185=DIRECTION('ref_axis',(1.,0.,0.));
#1186=DIRECTION('center_axis',(-1.,0.,0.));
#1187=DIRECTION('ref_axis',(0.,0.707106781186548,-0.707106781186548));
#1188=DIRECTION('center_axis',(1.,0.,1.98682149610184E-8));
#1189=DIRECTION('ref_axis',(1.40489495290081E-8,0.707106781186547,-0.707106781186547));
#1190=DIRECTION('',(1.,0.,0.));
#1191=DIRECTION('center_axis',(-1.,0.,0.));
#1192=DIRECTION('ref_axis',(0.,0.707106781186548,-0.707106781186548));
#1193=DIRECTION('',(-1.,0.,0.));
#1194=DIRECTION('center_axis',(-1.,0.,-1.98682149610184E-8));
#1195=DIRECTION('ref_axis',(1.98682149610184E-8,0.,-1.));
#1196=DIRECTION('',(0.,-1.,0.));
#1197=DIRECTION('',(0.,-1.,0.));
#1198=DIRECTION('center_axis',(0.,0.,-1.));
#1199=DIRECTION('ref_axis',(1.,0.,0.));
#1200=DIRECTION('',(0.,-1.,0.));
#1201=DIRECTION('',(1.,0.,0.));
#1202=DIRECTION('center_axis',(0.,-1.,0.));
#1203=DIRECTION('ref_axis',(-1.,0.,-1.98682148747371E-8));
#1204=DIRECTION('center_axis',(0.,1.,0.));
#1205=DIRECTION('ref_axis',(-1.,0.,-1.98682148747371E-8));
#1206=DIRECTION('center_axis',(0.,-1.,0.));
#1207=DIRECTION('ref_axis',(-1.,0.,-1.98682148747371E-8));
#1208=DIRECTION('',(0.,-1.,0.));
#1209=DIRECTION('center_axis',(0.,0.,1.));
#1210=DIRECTION('ref_axis',(-1.,0.,0.));
#1211=DIRECTION('',(-1.,0.,0.));
#1212=DIRECTION('',(-1.,0.,0.));
#1213=DIRECTION('',(0.,-1.,0.));
#1214=DIRECTION('center_axis',(1.,0.,0.));
#1215=DIRECTION('ref_axis',(0.,0.,1.));
#1216=DIRECTION('',(0.,0.,-1.));
#1217=DIRECTION('',(0.,0.,1.));
#1218=DIRECTION('center_axis',(0.,1.,0.));
#1219=DIRECTION('ref_axis',(1.,0.,0.));
#1220=DIRECTION('center_axis',(0.,1.,0.));
#1221=DIRECTION('ref_axis',(1.,0.,0.));
#1222=DIRECTION('center_axis',(-1.,0.,0.));
#1223=DIRECTION('ref_axis',(0.,-0.707106781186548,-0.707106781186548));
#1224=DIRECTION('center_axis',(1.,0.,1.98682149610184E-8));
#1225=DIRECTION('ref_axis',(1.40489495290081E-8,-0.707106781186547,-0.707106781186547));
#1226=DIRECTION('',(1.,0.,0.));
#1227=DIRECTION('center_axis',(-1.,0.,0.));
#1228=DIRECTION('ref_axis',(0.,-0.707106781186548,-0.707106781186548));
#1229=DIRECTION('',(-1.,0.,0.));
#1230=DIRECTION('center_axis',(-1.,0.,0.));
#1231=DIRECTION('ref_axis',(0.,0.,1.));
#1232=DIRECTION('',(0.,1.,0.));
#1233=DIRECTION('',(0.,0.,1.));
#1234=DIRECTION('',(0.,1.,0.));
#1235=DIRECTION('',(0.,0.,-1.));
#1236=DIRECTION('center_axis',(0.,0.,1.));
#1237=DIRECTION('ref_axis',(1.,0.,0.));
#1238=DIRECTION('',(0.,1.,0.));
#1239=DIRECTION('',(1.,0.,0.));
#1240=DIRECTION('center_axis',(1.,0.,1.98682149610184E-8));
#1241=DIRECTION('ref_axis',(1.98682149610184E-8,0.,-1.));
#1242=DIRECTION('',(0.,1.,0.));
#1243=DIRECTION('center_axis',(0.,-1.,0.));
#1244=DIRECTION('ref_axis',(-1.,0.,-1.98682148747371E-8));
#1245=DIRECTION('center_axis',(0.,1.,0.));
#1246=DIRECTION('ref_axis',(-1.,0.,-1.98682148747371E-8));
#1247=DIRECTION('',(0.,1.,0.));
#1248=DIRECTION('center_axis',(0.,-1.,0.));
#1249=DIRECTION('ref_axis',(-1.,0.,-1.98682148747371E-8));
#1250=DIRECTION('center_axis',(0.,0.,-1.));
#1251=DIRECTION('ref_axis',(-1.,0.,0.));
#1252=DIRECTION('',(-1.,0.,0.));
#1253=DIRECTION('',(-1.,0.,0.));
#1254=DIRECTION('center_axis',(0.,1.,0.));
#1255=DIRECTION('ref_axis',(1.,0.,0.));
#1256=DIRECTION('center_axis',(0.,1.,0.));
#1257=DIRECTION('ref_axis',(1.,0.,0.));
#1258=CARTESIAN_POINT('',(0.,0.,0.));
#1259=CARTESIAN_POINT('Origin',(0.,-75.,69.9999999999997));
#1260=CARTESIAN_POINT('',(5.,-75.,54.9999999999997));
#1261=CARTESIAN_POINT('',(5.,-75.,69.9999999999997));
#1262=CARTESIAN_POINT('',(5.,-75.,34.9999999999998));
#1263=CARTESIAN_POINT('',(0.,-75.,54.9999999999997));
#1264=CARTESIAN_POINT('',(0.,-75.,54.9999999999997));
#1265=CARTESIAN_POINT('',(0.,-75.,69.9999999999997));
#1266=CARTESIAN_POINT('',(0.,-75.,34.9999999999998));
#1267=CARTESIAN_POINT('',(0.,-75.,69.9999999999997));
#1268=CARTESIAN_POINT('Origin',(0.,75.,69.9999999999997));
#1269=CARTESIAN_POINT('',(5.,75.,69.9999999999997));
#1270=CARTESIAN_POINT('',(5.,37.4999999999922,69.9999999999997));
#1271=CARTESIAN_POINT('',(0.,75.,69.9999999999997));
#1272=CARTESIAN_POINT('',(0.,37.4999999999922,69.9999999999997));
#1273=CARTESIAN_POINT('',(0.,75.,69.9999999999997));
#1274=CARTESIAN_POINT('Origin',(0.,75.,54.9999999999997));
#1275=CARTESIAN_POINT('',(5.,75.,54.9999999999997));
#1276=CARTESIAN_POINT('',(5.,75.,27.4999999999998));
#1277=CARTESIAN_POINT('',(0.,75.,54.9999999999997));
#1278=CARTESIAN_POINT('',(0.,75.,27.4999999999998));
#1279=CARTESIAN_POINT('',(0.,75.,54.9999999999997));
#1280=CARTESIAN_POINT('Origin',(0.,-75.,54.9999999999997));
#1281=CARTESIAN_POINT('',(5.,-37.5000000000078,54.9999999999997));
#1282=CARTESIAN_POINT('',(0.,-37.5000000000078,54.9999999999997));
#1283=CARTESIAN_POINT('Origin',(0.,-81.5,48.35));
#1284=CARTESIAN_POINT('',(0.,-81.5,48.35));
#1285=CARTESIAN_POINT('',(0.,81.5,48.35));
#1286=CARTESIAN_POINT('',(0.,81.5,48.35));
#1287=CARTESIAN_POINT('',(5.,81.5,48.35));
#1288=CARTESIAN_POINT('',(0.,81.5,48.35));
#1289=CARTESIAN_POINT('',(5.,-81.5,48.35));
#1290=CARTESIAN_POINT('',(5.,81.5,48.35));
#1291=CARTESIAN_POINT('',(0.,-81.5,48.35));
#1292=CARTESIAN_POINT('Origin',(0.,-81.5,-48.35));
#1293=CARTESIAN_POINT('',(0.,-81.5,-48.35));
#1294=CARTESIAN_POINT('',(0.,-81.5,48.35));
#1295=CARTESIAN_POINT('',(5.,-81.5,-48.35));
#1296=CARTESIAN_POINT('',(5.,-81.5,48.35));
#1297=CARTESIAN_POINT('',(0.,-81.5,-48.35));
#1298=CARTESIAN_POINT('Origin',(0.,81.5,-48.35));
#1299=CARTESIAN_POINT('',(0.,81.5,-48.35));
#1300=CARTESIAN_POINT('',(0.,-81.5,-48.35));
#1301=CARTESIAN_POINT('',(5.,81.5,-48.35));
#1302=CARTESIAN_POINT('',(5.,-81.5,-48.35));
#1303=CARTESIAN_POINT('',(0.,81.5,-48.35));
#1304=CARTESIAN_POINT('Origin',(0.,81.5,48.35));
#1305=CARTESIAN_POINT('',(0.,81.5,-48.35));
#1306=CARTESIAN_POINT('',(5.,81.5,-48.35));
#1307=CARTESIAN_POINT('Origin',(0.,-85.8217265936591,74.9999999999997));
#1308=CARTESIAN_POINT('',(0.,-87.4999999999999,72.5133560018432));
#1309=CARTESIAN_POINT('',(0.,-85.8217265936591,74.9999999999997));
#1310=CARTESIAN_POINT('',(0.,-87.4999999999999,72.5133560018432));
#1311=CARTESIAN_POINT('',(5.,-87.4999999999999,72.5133560018432));
#1312=CARTESIAN_POINT('',(0.,-87.4999999999999,72.5133560018432));
#1313=CARTESIAN_POINT('',(5.,-85.8217265936591,74.9999999999997));
#1314=CARTESIAN_POINT('',(5.,-87.4999999999999,72.5133560018432));
#1315=CARTESIAN_POINT('',(0.,-85.8217265936591,74.9999999999997));
#1316=CARTESIAN_POINT('Origin',(0.,85.8217265936591,74.9999999999997));
#1317=CARTESIAN_POINT('',(0.,85.8217265936591,75.));
#1318=CARTESIAN_POINT('',(0.,87.5000000000001,74.9999999999997));
#1319=CARTESIAN_POINT('',(5.,85.8217265936591,75.));
#1320=CARTESIAN_POINT('',(5.,87.5000000000001,74.9999999999997));
#1321=CARTESIAN_POINT('',(0.,85.8217265936591,75.));
#1322=CARTESIAN_POINT('Origin',(0.,87.4999999999907,72.5133560018432));
#1323=CARTESIAN_POINT('',(0.,87.4999999999907,72.5133560018432));
#1324=CARTESIAN_POINT('',(0.,87.4999999999907,72.5133560018432));
#1325=CARTESIAN_POINT('',(5.,87.4999999999907,72.5133560018432));
#1326=CARTESIAN_POINT('',(5.,87.4999999999907,72.5133560018432));
#1327=CARTESIAN_POINT('',(0.,87.4999999999907,72.5133560018432));
#1328=CARTESIAN_POINT('Origin',(0.,87.5000000000001,-72.5133560018335));
#1329=CARTESIAN_POINT('',(0.,87.4999999999948,-72.5133560018335));
#1330=CARTESIAN_POINT('',(0.,87.5000000000001,-75.0000000000003));
#1331=CARTESIAN_POINT('',(5.,87.4999999999948,-72.5133560018335));
#1332=CARTESIAN_POINT('',(5.,87.5000000000001,-75.0000000000003));
#1333=CARTESIAN_POINT('',(0.,87.4999999999948,-72.5133560018335));
#1334=CARTESIAN_POINT('Origin',(0.,85.8217265936633,-74.9999999999903));
#1335=CARTESIAN_POINT('',(0.,85.8217265936633,-74.9999999999903));
#1336=CARTESIAN_POINT('',(0.,87.4999999999948,-72.5133560018335));
#1337=CARTESIAN_POINT('',(5.,85.8217265936633,-74.9999999999903));
#1338=CARTESIAN_POINT('',(5.,87.4999999999948,-72.5133560018335));
#1339=CARTESIAN_POINT('',(0.,85.8217265936633,-74.9999999999903));
#1340=CARTESIAN_POINT('Origin',(0.,-85.8217265936547,-75.0000000000003));
#1341=CARTESIAN_POINT('',(0.,-85.8217265936547,-75.));
#1342=CARTESIAN_POINT('',(0.,-87.4999999999999,-75.0000000000003));
#1343=CARTESIAN_POINT('',(5.,-85.8217265936547,-75.));
#1344=CARTESIAN_POINT('',(5.,-87.4999999999999,-75.0000000000003));
#1345=CARTESIAN_POINT('',(0.,-85.8217265936547,-75.));
#1346=CARTESIAN_POINT('Origin',(0.,-87.5000000000314,-72.5133560018434));
#1347=CARTESIAN_POINT('',(0.,-87.5000000000314,-72.5133560018434));
#1348=CARTESIAN_POINT('',(0.,-87.5000000000314,-72.5133560018434));
#1349=CARTESIAN_POINT('',(5.,-87.5000000000314,-72.5133560018434));
#1350=CARTESIAN_POINT('',(5.,-87.5000000000314,-72.5133560018434));
#1351=CARTESIAN_POINT('',(0.,-87.5000000000314,-72.5133560018434));
#1352=CARTESIAN_POINT('Origin',(0.,-87.4999999999999,72.5133560018432));
#1353=CARTESIAN_POINT('',(0.,-87.4999999999999,74.9999999999997));
#1354=CARTESIAN_POINT('',(5.,-87.4999999999999,74.9999999999997));
#1355=CARTESIAN_POINT('Origin',(5.,-1.56674673235102E-11,-1.68753899743024E-13));
#1356=CARTESIAN_POINT('Origin',(0.,-1.56674673235102E-11,-1.68753899743024E-13));
#1357=CARTESIAN_POINT('Origin',(-15.0000000136594,-74.9,55.1000008195639));
#1358=CARTESIAN_POINT('',(-19.5,-74.9,55.000000829498));
#1359=CARTESIAN_POINT('',(-19.5000000019868,-75.,55.1000008195639));
#1360=CARTESIAN_POINT('Origin',(-19.5000000019868,-74.9,55.1000008195639));
#1361=CARTESIAN_POINT('',(-19.9000000019868,-75.,55.1000008195639));
#1362=CARTESIAN_POINT('',(-15.0000000136594,-75.,55.1000008195639));
#1363=CARTESIAN_POINT('',(-19.9000000019868,-74.9,55.0000008195639));
#1364=CARTESIAN_POINT('Origin',(-19.9000000019868,-74.9,55.1000008195639));
#1365=CARTESIAN_POINT('',(-15.0000000136594,-74.9,55.0000008195639));
#1366=CARTESIAN_POINT('Origin',(-5.00000001365939,-74.9,69.8999999999997));
#1367=CARTESIAN_POINT('',(0.,-75.,69.8999999999997));
#1368=CARTESIAN_POINT('',(0.,-74.9,69.9999999999997));
#1369=CARTESIAN_POINT('Origin',(0.,-74.9,69.8999999999997));
#1370=CARTESIAN_POINT('',(-7.75000005463757,-74.9,69.9999999999997));
#1371=CARTESIAN_POINT('',(-5.00000001365939,-74.9,69.9999999999997));
#1372=CARTESIAN_POINT('',(-7.75000005463757,-75.,69.8999999999997));
#1373=CARTESIAN_POINT('Origin',(-7.75000005463757,-74.9,69.8999999999997));
#1374=CARTESIAN_POINT('',(-5.00000001365939,-75.,69.8999999999997));
#1375=CARTESIAN_POINT('Origin',(-7.75000005463757,-74.9,57.7499999999997));
#1376=CARTESIAN_POINT('',(-20.0000000546376,-74.9,57.7499997566141));
#1377=CARTESIAN_POINT('',(-19.9000000546376,-75.,57.7499997586009));
#1378=CARTESIAN_POINT('Origin',(-19.9000000546376,-74.9,57.7499997586009));
#1379=CARTESIAN_POINT('Origin',(-7.75000005463757,-75.,57.7499999999997));
#1380=CARTESIAN_POINT('Origin',(-7.75000005463757,-74.9,57.7499999999997));
#1381=CARTESIAN_POINT('Origin',(-19.9000001018243,-74.9,60.1249874883272));
#1382=CARTESIAN_POINT('',(-20.0000000019868,-74.9,55.100000817577));
#1383=CARTESIAN_POINT('Origin',(-19.9000000019868,-74.9,55.1000008195639));
#1384=CARTESIAN_POINT('',(-19.9000001018243,-75.,60.1249874883272));
#1385=CARTESIAN_POINT('',(-20.0000001018243,-74.9,60.1249874863404));
#1386=CARTESIAN_POINT('Origin',(-19.9000000019868,-74.9,55.1000008195639));
#1387=CARTESIAN_POINT('Origin',(-19.9000000019868,-74.9,55.1000008195639));
#1388=CARTESIAN_POINT('Origin',(-20.,75.,55.0000008195639));
#1389=CARTESIAN_POINT('',(-19.9000000019868,74.5,55.0000008195639));
#1390=CARTESIAN_POINT('',(-19.9000000019868,75.,55.0000008195639));
#1391=CARTESIAN_POINT('',(-19.5,74.9,55.000000829498));
#1392=CARTESIAN_POINT('Origin',(-19.5000000019868,74.5,55.0000008195639));
#1393=CARTESIAN_POINT('',(-19.5,75.,55.000000829498));
#1394=CARTESIAN_POINT('Origin',(-19.9000000019868,75.,55.1000008195639));
#1395=CARTESIAN_POINT('',(-20.0000000019868,74.5,55.1000008195639));
#1396=CARTESIAN_POINT('',(-20.0000000019868,75.,55.100000817577));
#1397=CARTESIAN_POINT('Origin',(-19.9000000019868,74.5,55.1000008195639));
#1398=CARTESIAN_POINT('Origin',(-20.0000000546376,75.,57.7499997566141));
#1399=CARTESIAN_POINT('',(-20.0000000546376,74.5,57.7499997566141));
#1400=CARTESIAN_POINT('',(-20.0000000546376,75.,57.7499997566141));
#1401=CARTESIAN_POINT('',(-20.0000001018243,74.5,60.1249874863404));
#1402=CARTESIAN_POINT('Origin',(-7.75000005463757,75.,57.7499999999997));
#1403=CARTESIAN_POINT('',(-7.75000005463757,74.5,69.9999999999997));
#1404=CARTESIAN_POINT('',(-7.75000005463757,75.,69.9999999999997));
#1405=CARTESIAN_POINT('Origin',(-7.75000005463757,74.5,57.7499999999997));
#1406=CARTESIAN_POINT('Origin',(0.,75.,69.9999999999997));
#1407=CARTESIAN_POINT('',(0.,74.5,69.9999999999997));
#1408=CARTESIAN_POINT('',(0.,75.,69.9999999999997));
#1409=CARTESIAN_POINT('',(-5.00000001365939,74.5,69.9999999999997));
#1410=CARTESIAN_POINT('Origin',(0.,75.,69.4999999999997));
#1411=CARTESIAN_POINT('',(0.,-75.,69.4999999999997));
#1412=CARTESIAN_POINT('',(0.,-75.,69.9999999999997));
#1413=CARTESIAN_POINT('',(0.,75.,69.4999999999997));
#1414=CARTESIAN_POINT('',(0.,75.,69.4999999999997));
#1415=CARTESIAN_POINT('Origin',(0.,74.5,69.4999999999997));
#1416=CARTESIAN_POINT('Ctrl Pts',(-19.5,74.9,55.0000008195639));
#1417=CARTESIAN_POINT('Ctrl Pts',(-19.6047197554508,74.9000000005201,55.0000008195639));
#1418=CARTESIAN_POINT('Ctrl Pts',(-19.8132525071258,74.813252506695,55.0000008195639));
#1419=CARTESIAN_POINT('Ctrl Pts',(-19.9000000019868,74.6047197554508,55.0000008195639));
#1420=CARTESIAN_POINT('Ctrl Pts',(-19.9000000019868,74.5,55.0000008195639));
#1421=CARTESIAN_POINT('Ctrl Pts',(-19.4999999998514,74.9299199300342,55.0000008195639));
#1422=CARTESIAN_POINT('Ctrl Pts',(-19.612586713467,74.9299199304922,55.000000819568));
#1423=CARTESIAN_POINT('Ctrl Pts',(-19.8367075173366,74.8367075169284,55.0000008195668));
#1424=CARTESIAN_POINT('Ctrl Pts',(-19.9299199316426,74.6125867135144,55.0000008195639));
#1425=CARTESIAN_POINT('Ctrl Pts',(-19.9299199316426,74.5,55.0000008195639));
#1426=CARTESIAN_POINT('Ctrl Pts',(-19.4999999995942,74.9817008401757,55.0251297000912));
#1427=CARTESIAN_POINT('Ctrl Pts',(-19.6260998314677,74.9817008405397,55.0251296999137));
#1428=CARTESIAN_POINT('Ctrl Pts',(-19.8772285756825,74.8772285753322,55.0251296995625));
#1429=CARTESIAN_POINT('Ctrl Pts',(-19.9817008411583,74.6260998316112,55.025129699417));
#1430=CARTESIAN_POINT('Ctrl Pts',(-19.9817008411583,74.5,55.025129699417));
#1431=CARTESIAN_POINT('Ctrl Pts',(-19.4999999995033,75.,55.0775608720382));
#1432=CARTESIAN_POINT('Ctrl Pts',(-19.630920971419,75.0000000005325,55.0775608715913));
#1433=CARTESIAN_POINT('Ctrl Pts',(-19.8915805404656,74.8915805403159,55.0775608707038));
#1434=CARTESIAN_POINT('Ctrl Pts',(-20.000000001541,74.6309209717978,55.0775608703352));
#1435=CARTESIAN_POINT('Ctrl Pts',(-20.000000001541,74.5,55.0775608703352));
#1436=CARTESIAN_POINT('Ctrl Pts',(-19.4999999995033,75.,55.1000008195639));
#1437=CARTESIAN_POINT('Ctrl Pts',(-19.6308996938168,75.0000000006502,55.1000008190437));
#1438=CARTESIAN_POINT('Ctrl Pts',(-19.8915656334106,74.8915656333687,55.100000818008));
#1439=CARTESIAN_POINT('Ctrl Pts',(-20.0000000019868,74.6308996943135,55.100000817577));
#1440=CARTESIAN_POINT('Ctrl Pts',(-20.0000000019868,74.5,55.100000817577));
#1441=CARTESIAN_POINT('',(-19.5000000019868,75.,55.1000008195639));
#1442=CARTESIAN_POINT('Ctrl Pts',(-19.5000000019869,75.,55.1000008195639));
#1443=CARTESIAN_POINT('Ctrl Pts',(-19.5000000019873,75.,55.0775608720382));
#1444=CARTESIAN_POINT('Ctrl Pts',(-19.500000001987,74.9921575029324,55.0550903697752));
#1445=CARTESIAN_POINT('Ctrl Pts',(-19.500000001987,74.9781652966229,55.0376345740995));
#1446=CARTESIAN_POINT('Ctrl Pts',(-19.500000001987,74.9595090215436,55.0143601798652));
#1447=CARTESIAN_POINT('Ctrl Pts',(-19.5000000019875,74.9299199300342,55.0000008195639));
#1448=CARTESIAN_POINT('Ctrl Pts',(-19.5000000019869,74.9,55.0000008195639));
#1449=CARTESIAN_POINT('Origin',(-19.5000000019868,74.5,55.1000008195639));
#1450=CARTESIAN_POINT('Origin',(-19.5,75.,55.000000829498));
#1451=CARTESIAN_POINT('',(-19.5000000546376,75.,57.7499997665482));
#1452=CARTESIAN_POINT('Ctrl Pts',(-19.5000000019868,75.,55.1000008195639));
#1453=CARTESIAN_POINT('Ctrl Pts',(-19.5000000195371,75.,55.983333801892));
#1454=CARTESIAN_POINT('Ctrl Pts',(-19.5000000370873,75.,56.8666667842201));
#1455=CARTESIAN_POINT('Ctrl Pts',(-19.5000000546376,75.,57.7499997665482));
#1456=CARTESIAN_POINT('',(-19.5000000546376,-75.,57.7499997665482));
#1457=CARTESIAN_POINT('',(-19.5000000546376,75.,57.7499997665482));
#1458=CARTESIAN_POINT('Ctrl Pts',(-19.5000000019868,-75.,55.1000008195639));
#1459=CARTESIAN_POINT('Ctrl Pts',(-19.5000000195371,-75.,55.983333801892));
#1460=CARTESIAN_POINT('Ctrl Pts',(-19.5000000370873,-75.,56.8666667842201));
#1461=CARTESIAN_POINT('Ctrl Pts',(-19.5000000546376,-75.,57.7499997665482));
#1462=CARTESIAN_POINT('Origin',(-19.5000001018243,74.5,60.1249874962745));
#1463=CARTESIAN_POINT('Origin',(-19.5000000546376,74.5,57.7499997665482));
#1464=CARTESIAN_POINT('Origin',(-5.00000001365939,74.5,69.4999999999997));
#1465=CARTESIAN_POINT('',(-7.75000005463757,75.,69.4999999999997));
#1466=CARTESIAN_POINT('',(0.,75.,69.4999999999997));
#1467=CARTESIAN_POINT('Origin',(-7.75000005463757,74.5,69.4999999999997));
#1468=CARTESIAN_POINT('Origin',(-7.75000005463757,74.5,57.7499999999997));
#1469=CARTESIAN_POINT('Origin',(-7.75000005463757,75.,57.7499999999997));
#1470=CARTESIAN_POINT('Origin',(-7.75000005463757,75.,69.4999999999997));
#1471=CARTESIAN_POINT('',(-7.75000005463757,-75.,69.4999999999997));
#1472=CARTESIAN_POINT('',(0.,-75.,69.4999999999997));
#1473=CARTESIAN_POINT('',(-7.75000005463757,75.,69.4999999999997));
#1474=CARTESIAN_POINT('Origin',(-7.75000005463757,75.,57.7499999999997));
#1475=CARTESIAN_POINT('Origin',(-7.75000005463757,-75.,57.7499999999997));
#1476=CARTESIAN_POINT('Origin',(-10.0000000273188,-75.,62.4999754147488));
#1477=CARTESIAN_POINT('Origin',(-14.6250125136594,74.9,55.1000008195639));
#1478=CARTESIAN_POINT('',(-19.5,74.9,55.000000829498));
#1479=CARTESIAN_POINT('',(-19.5000000019868,75.,55.1000008195639));
#1480=CARTESIAN_POINT('Origin',(-19.5000000019868,74.9,55.1000008195639));
#1481=CARTESIAN_POINT('',(0.,75.,55.1000008195639));
#1482=CARTESIAN_POINT('',(-14.6250125136594,75.,55.1000008195639));
#1483=CARTESIAN_POINT('',(0.,74.9,55.0000008195639));
#1484=CARTESIAN_POINT('Origin',(0.,74.9,55.1000008195639));
#1485=CARTESIAN_POINT('',(-14.6250125136594,74.9,55.0000008195639));
#1486=CARTESIAN_POINT('Origin',(-19.5000000546376,75.,57.7499997665482));
#1487=CARTESIAN_POINT('',(-19.5,74.5,55.000000829498));
#1488=CARTESIAN_POINT('',(-19.5,75.,55.000000829498));
#1489=CARTESIAN_POINT('',(-19.5000000546376,74.5,57.7499997665482));
#1490=CARTESIAN_POINT('Ctrl Pts',(-19.5000000546376,74.5,57.7499997665482));
#1491=CARTESIAN_POINT('Ctrl Pts',(-19.500000036425,74.5,56.8333334541981));
#1492=CARTESIAN_POINT('Ctrl Pts',(-19.5000000182125,74.5,55.916667141848));
#1493=CARTESIAN_POINT('Ctrl Pts',(-19.5,74.5,55.000000829498));
#1494=CARTESIAN_POINT('',(-19.5000000546376,75.,57.7499997665482));
#1495=CARTESIAN_POINT('',(-19.5000000546376,75.,57.7499997665482));
#1496=CARTESIAN_POINT('Ctrl Pts',(-19.5000000019868,75.,55.1000008195639));
#1497=CARTESIAN_POINT('Ctrl Pts',(-19.5000000195371,75.,55.983333801892));
#1498=CARTESIAN_POINT('Ctrl Pts',(-19.5000000370873,75.,56.8666667842201));
#1499=CARTESIAN_POINT('Ctrl Pts',(-19.5000000546376,75.,57.7499997665482));
#1500=CARTESIAN_POINT('Origin',(-19.5,75.,55.0000008195639));
#1501=CARTESIAN_POINT('',(0.,74.5,55.0000008195639));
#1502=CARTESIAN_POINT('',(0.,75.,55.0000008195639));
#1503=CARTESIAN_POINT('',(0.,74.5,55.0000008195639));
#1504=CARTESIAN_POINT('Origin',(-7.75000005463757,75.,57.7499999999997));
#1505=CARTESIAN_POINT('',(-7.75000005463757,75.,69.4999999999997));
#1506=CARTESIAN_POINT('Origin',(-7.75000005463757,75.,57.7499999999997));
#1507=CARTESIAN_POINT('',(-7.75000005463757,74.5,69.4999999999997));
#1508=CARTESIAN_POINT('Origin',(-7.75000005463757,74.5,57.7499999999997));
#1509=CARTESIAN_POINT('',(-7.75000005463757,75.,69.4999999999997));
#1510=CARTESIAN_POINT('Origin',(0.,75.,69.4999999999997));
#1511=CARTESIAN_POINT('',(0.,75.,69.4999999999997));
#1512=CARTESIAN_POINT('',(0.,75.,69.4999999999997));
#1513=CARTESIAN_POINT('',(0.,74.5,69.4999999999997));
#1514=CARTESIAN_POINT('',(0.,74.5,69.4999999999997));
#1515=CARTESIAN_POINT('',(0.,75.,69.4999999999997));
#1516=CARTESIAN_POINT('Origin',(0.,75.,55.0000008195639));
#1517=CARTESIAN_POINT('',(0.,75.,69.9999999999997));
#1518=CARTESIAN_POINT('',(0.,74.5,69.9999999999997));
#1519=CARTESIAN_POINT('Origin',(-9.75002502731879,75.,62.2499754147488));
#1520=CARTESIAN_POINT('Origin',(-9.75002502731879,74.5,62.2499754147488));
#1521=CARTESIAN_POINT('Origin',(-14.6250125136594,-74.9,55.1000008195639));
#1522=CARTESIAN_POINT('',(-19.5000000019868,-75.,55.1000008195639));
#1523=CARTESIAN_POINT('',(-19.5,-74.9,55.000000829498));
#1524=CARTESIAN_POINT('Origin',(-19.5000000019868,-74.9,55.1000008195639));
#1525=CARTESIAN_POINT('',(0.,-74.9,55.0000008195639));
#1526=CARTESIAN_POINT('',(-14.6250125136594,-74.9,55.0000008195639));
#1527=CARTESIAN_POINT('',(0.,-75.,55.1000008195639));
#1528=CARTESIAN_POINT('Origin',(0.,-74.9,55.1000008195639));
#1529=CARTESIAN_POINT('',(-14.6250125136594,-75.,55.1000008195639));
#1530=CARTESIAN_POINT('Origin',(0.,-75.,55.0000008195639));
#1531=CARTESIAN_POINT('',(0.,-74.5,55.0000008195639));
#1532=CARTESIAN_POINT('',(0.,-75.,55.0000008195639));
#1533=CARTESIAN_POINT('',(0.,-74.5,69.4999999999997));
#1534=CARTESIAN_POINT('',(0.,-74.5,69.9999999999997));
#1535=CARTESIAN_POINT('',(0.,-75.,69.4999999999997));
#1536=CARTESIAN_POINT('',(0.,-75.,69.4999999999997));
#1537=CARTESIAN_POINT('',(0.,-75.,69.9999999999997));
#1538=CARTESIAN_POINT('Origin',(-19.5,-75.,55.0000008195639));
#1539=CARTESIAN_POINT('',(-19.5,-74.5,55.000000829498));
#1540=CARTESIAN_POINT('',(-19.5,-75.,55.000000829498));
#1541=CARTESIAN_POINT('',(0.,-74.5,55.0000008195639));
#1542=CARTESIAN_POINT('Origin',(-19.5000000546376,-75.,57.7499997665482));
#1543=CARTESIAN_POINT('',(-19.5000000546376,-75.,57.7499997665482));
#1544=CARTESIAN_POINT('Ctrl Pts',(-19.5000000019868,-75.,55.1000008195639));
#1545=CARTESIAN_POINT('Ctrl Pts',(-19.5000000195371,-75.,55.983333801892));
#1546=CARTESIAN_POINT('Ctrl Pts',(-19.5000000370873,-75.,56.8666667842201));
#1547=CARTESIAN_POINT('Ctrl Pts',(-19.5000000546376,-75.,57.7499997665482));
#1548=CARTESIAN_POINT('',(-19.5000000546376,-74.5,57.7499997665482));
#1549=CARTESIAN_POINT('',(-19.5000000546376,-75.,57.7499997665482));
#1550=CARTESIAN_POINT('Ctrl Pts',(-19.5000000546376,-74.5,57.7499997665482));
#1551=CARTESIAN_POINT('Ctrl Pts',(-19.500000036425,-74.5,56.8333334541981));
#1552=CARTESIAN_POINT('Ctrl Pts',(-19.5000000182125,-74.5,55.916667141848));
#1553=CARTESIAN_POINT('Ctrl Pts',(-19.5,-74.5,55.000000829498));
#1554=CARTESIAN_POINT('Origin',(-7.75000005463757,-75.,57.7499999999997));
#1555=CARTESIAN_POINT('',(-7.75000005463757,-75.,69.4999999999997));
#1556=CARTESIAN_POINT('Origin',(-7.75000005463757,-75.,57.7499999999997));
#1557=CARTESIAN_POINT('',(-7.75000005463757,-74.5,69.4999999999997));
#1558=CARTESIAN_POINT('',(-7.75000005463757,-75.,69.4999999999997));
#1559=CARTESIAN_POINT('Origin',(-7.75000005463757,-74.5,57.7499999999997));
#1560=CARTESIAN_POINT('Origin',(0.,-75.,69.4999999999997));
#1561=CARTESIAN_POINT('',(0.,-75.,69.4999999999997));
#1562=CARTESIAN_POINT('',(0.,-74.5,69.4999999999997));
#1563=CARTESIAN_POINT('Origin',(-9.75002502731879,-75.,62.2499754147488));
#1564=CARTESIAN_POINT('Origin',(-9.75002502731879,-74.5,62.2499754147488));
#1565=UNCERTAINTY_MEASURE_WITH_UNIT(LENGTH_MEASURE(0.01),#1569,
'DISTANCE_ACCURACY_VALUE',
'Maximum model space distance between geometric entities at asserted c
onnectivities');
#1566=UNCERTAINTY_MEASURE_WITH_UNIT(LENGTH_MEASURE(0.01),#1569,
'DISTANCE_ACCURACY_VALUE',
'Maximum model space distance between geometric entities at asserted c
onnectivities');
#1567=(
GEOMETRIC_REPRESENTATION_CONTEXT(3)
GLOBAL_UNCERTAINTY_ASSIGNED_CONTEXT((#1565))
GLOBAL_UNIT_ASSIGNED_CONTEXT((#1569,#1571,#1572))
REPRESENTATION_CONTEXT('','3D')
);
#1568=(
GEOMETRIC_REPRESENTATION_CONTEXT(3)
GLOBAL_UNCERTAINTY_ASSIGNED_CONTEXT((#1566))
GLOBAL_UNIT_ASSIGNED_CONTEXT((#1569,#1571,#1572))
REPRESENTATION_CONTEXT('','3D')
);
#1569=(
LENGTH_UNIT()
NAMED_UNIT(*)
SI_UNIT(.MILLI.,.METRE.)
);
#1570=(
LENGTH_UNIT()
NAMED_UNIT(*)
SI_UNIT($,.METRE.)
);
#1571=(
NAMED_UNIT(*)
PLANE_ANGLE_UNIT()
SI_UNIT($,.RADIAN.)
);
#1572=(
NAMED_UNIT(*)
SI_UNIT($,.STERADIAN.)
SOLID_ANGLE_UNIT()
);
#1573=SHAPE_DEFINITION_REPRESENTATION(#1574,#1575);
#1574=PRODUCT_DEFINITION_SHAPE('',$,#1577);
#1575=SHAPE_REPRESENTATION('',(#929),#1567);
#1576=PRODUCT_DEFINITION_CONTEXT('part definition',#1581,'design');
#1577=PRODUCT_DEFINITION('2026-06-29-18-25-40-189','LCD mount',#1578,#1576);
#1578=PRODUCT_DEFINITION_FORMATION('',$,#1583);
#1579=PRODUCT_RELATED_PRODUCT_CATEGORY('LCD mount','LCD mount',(#1583));
#1580=APPLICATION_PROTOCOL_DEFINITION('international standard',
'automotive_design',2009,#1581);
#1581=APPLICATION_CONTEXT(
'Core Data for Automotive Mechanical Design Process');
#1582=PRODUCT_CONTEXT('part definition',#1581,'mechanical');
#1583=PRODUCT('2026-06-29-18-25-40-189','LCD mount',$,(#1582));
#1584=PRESENTATION_STYLE_ASSIGNMENT((#1585));
#1585=SURFACE_STYLE_USAGE(.BOTH.,#1586);
#1586=SURFACE_SIDE_STYLE('',(#1587));
#1587=SURFACE_STYLE_FILL_AREA(#1588);
#1588=FILL_AREA_STYLE('Plastic - Matte (White)',(#1589));
#1589=FILL_AREA_STYLE_COLOUR('Plastic - Matte (White)',#1590);
#1590=COLOUR_RGB('Plastic - Matte (White)',0.964705882352941,0.964705882352941,
0.952941176470588);
ENDSEC;
END-ISO-10303-21;
